<?xml version="1.0" encoding="utf-8"?>
<!-- Generator: Adobe Illustrator 24.1.2, SVG Export Plug-In . SVG Version: 6.00 Build 0)  -->
<svg version="1.1" id="Layer_1" xmlns="http://www.w3.org/2000/svg" xmlns:xlink="http://www.w3.org/1999/xlink" x="0px" y="0px"
	 viewBox="0 0 171.9 171.5" style="enable-background:new 0 0 171.9 171.5;" xml:space="preserve">
<style type="text/css">
	.st0{fill:#3680A7;}
</style>
<g id="soYhdU.tif">
	<g>
		<path class="st0" d="M85.9,0.2c18,0,35.9,0.4,53.9-0.1c16.6-0.5,32.2,13.8,32.2,32.3c-0.1,35.5,0,71.1,0,106.6
			c0,20.3-17,32.8-32.5,32.5c-35.6-0.5-71.2-0.6-106.7,0C17.6,171.7,0,159.9,0,138.7c0-35.4,0.1-70.8,0-106.1
			C-0.1,14.1,15.3-0.6,32.5,0C50.3,0.6,68.1,0.2,85.9,0.2z M115,78.7c5.3,5.3,9.8,9.9,14.3,14.5c2.7,2.7,5.4,4.8,9.7,3.2
			c4-1.5,5.1-4.7,5.2-8.3c0.2-17.1,0.3-34.2,0-51.3c-0.1-6.6-3.2-9-10-9c-16.6,0-33.3,0-49.9,0c-3.8,0-7.1,0.8-8.7,4.5
			c-1.7,3.8-0.5,7.1,2.6,9.8c5.1,4.5,10.1,9.1,16.2,14.6c-4,3.4-6.9,5.6-9.5,8.2c-16.9,16.7-33.7,33.5-50.5,50.3
			c-4.7,4.7-4.7,8.6-0.1,13.3c2.9,3,5.8,5.9,8.8,8.8c5.1,4.9,8.5,5,13.7-0.1c7.1-7,14.1-14.1,21.2-21.1
			C90.2,103.7,102.4,91.4,115,78.7z"/>
	</g>
</g>
</svg>
