<svg version="1.1" id="Layer_1" xmlns="http://www.w3.org/2000/svg" x="0" y="0" viewBox="0 0 448.4 320.1" xml:space="preserve"><style>.st0{fill:#fff}</style><path class="st0" d="M224.2 192H32.8c-13.6 0-23.8-6.2-29.5-18.5-5.7-12.1-3.9-23.8 4.6-34.1 6.3-7.6 14.7-11.3 24.6-11.3 15.3-.1 30.7 0 46 0h336.4c18.6 0 32.8 13.2 33.4 30.8.5 18.2-13.6 33.1-32 33.1-32 .1-64 0-96 0h-96.1zM224.4 256c63.8 0 127.6-.1 191.4 0 13.6 0 23.7 6.4 29.4 18.8 5.6 12.2 3.7 23.8-4.9 34.1-5.9 7.1-13.9 10.8-23.2 11.1-5.5.2-11 0-16.5 0H33.7C14.4 320 .1 306.2.1 287.9c0-17.5 14.1-31.8 31.8-31.9 23.7-.1 47.3 0 71 0h121.5zM223.7 64H33.3C14.2 64 0 49.8.3 31.4.5 14.7 13.9.8 30.5.1 31.7 0 32.9 0 34 0h380.9c18.3 0 32.5 13.1 33.3 30.4.8 18.4-13.5 33.5-32.1 33.6-36 .1-72 0-108 0h-84.4z"/></svg>