<svg xmlns="http://www.w3.org/2000/svg" viewBox="0 0 753.1 747.4"><path d="M0 320.7v-24.5c.4-2.5 1-4.9 1.1-7.4 1.2-19 4.1-37.8 8.8-56.3C43.2 101.4 158.8 6.9 293.8.5c1.2-.1 2.5-.3 3.7-.5h23.2c.8.2 1.6.4 2.4.5 3.1.2 6.3.4 9.4.6 20.3 1.4 40.2 5 59.8 10.5 123.1 34.5 217 144.6 224.5 280.1 1.3 22.7.1 45.4-3.7 67.8-6.5 38.3-19.6 74.2-39.6 107.6-.6 1.1-1.3 2.1-2.2 3.7 1.1.9 2.1 1.6 3 2.5 57.5 57.5 115.1 115 172.6 172.5 2.6 2.6 5.1 5.2 6.3 8.7v10c-1.1 3.5-2 7-3.4 10.3-4 9.1-9.9 16.9-16.9 24-9.1 9.2-18.3 18.4-27.5 27.5-1.8 1.8-3.6 3.5-5.6 5.1-8.6 7.2-17.9 13.1-29 15.5-.2 0-.3.3-.5.4h-9.4c-4.1-1.5-7.1-4.6-10.1-7.6-56.8-56.6-113.5-113.3-170.2-170-.9-.9-1.8-1.7-2.7-2.7-1 .6-1.8 1-2.5 1.5-45.5 29-95.2 45.1-149 48.2-29.6 1.7-58.9-.7-87.8-7.6C149 588 73.9 528.6 32.9 446.6 14.3 409.3 3.7 369.7 1.1 328.1c-.2-2.5-.7-4.9-1.1-7.4zm102.7-12.2c0 113.7 92.2 206.1 205.8 206.2 113.9.1 206.1-92 206.2-206 .1-113.9-92-205.9-205.9-206-113.8 0-206.1 92.1-206.1 205.8z" fill="#595959"/></svg>