<?xml version="1.0" standalone="no"?>
<!DOCTYPE svg PUBLIC "-//W3C//DTD SVG 1.1//EN" "http://www.w3.org/Graphics/SVG/1.1/DTD/svg11.dtd" >
<svg xmlns="http://www.w3.org/2000/svg">
<metadata></metadata>
<defs>
<font id="dezen_pro_regularregular" horiz-adv-x="196" >
<font-face units-per-em="1000" ascent="750" descent="-250" />
<missing-glyph horiz-adv-x="194" />
<glyph unicode=" "  horiz-adv-x="194" />
<glyph unicode="&#x09;" horiz-adv-x="194" />
<glyph unicode="&#xa0;" horiz-adv-x="194" />
<glyph unicode="!" d="M54 192v511h88v-511h-88zM54 0v101h88v-101h-88z" />
<glyph unicode="&#x22;" horiz-adv-x="267" d="M110 538h-74v232h74v-232zM231 538h-74v232h74v-232z" />
<glyph unicode="#" horiz-adv-x="481" d="M269 0l23 189h-142l-23 -189h-76l23 189h-52v69h61l23 190h-77v69h86l23 186h77l-24 -186h142l23 186h77l-24 -186h53v-69h-61l-24 -190h78v-69h-87l-23 -189h-76zM183 448l-24 -190h142l23 190h-141z" />
<glyph unicode="$" horiz-adv-x="502" d="M285 -82h-68v72q-78 1 -131 56t-53 133v46h86v-45q0 -46 31.5 -78.5t77.5 -32.5h44q49 0 79 33t30 82v19q0 50 -29.5 81t-93.5 31h-19q-91 0 -145 54.5t-54 130.5v33q0 73 51.5 125t125.5 55v73h68v-73q74 -4 124 -59t50 -131v-47h-84v46q0 46 -30.5 79t-76.5 33h-34 q-44 0 -75 -30t-31 -74v-21q0 -50 31 -83.5t92 -33.5h21q97 0 147 -50.5t50 -133.5v-28q0 -80 -51.5 -134.5t-132.5 -55.5v-72z" />
<glyph unicode="%" horiz-adv-x="606" d="M70 0l385 703h83l-385 -703h-83zM587 107q0 -47 -33 -80t-80 -33h-31q-47 0 -80 33t-33 80v109q0 47 33 80t80 33h31q47 0 80 -33t33 -80v-109zM396 211v-100q0 -22 15.5 -38t37.5 -16h19q22 0 37.5 16t15.5 38v100q0 23 -15.5 38.5t-37.5 15.5h-19q-22 0 -37.5 -16 t-15.5 -38zM278 487q0 -47 -32.5 -80t-79.5 -33h-32q-47 0 -79.5 33t-32.5 80v109q0 47 32.5 80t79.5 33h32q47 0 79.5 -33t32.5 -80v-109zM88 591v-100q0 -22 15.5 -38t37.5 -16h18q22 0 37.5 16t15.5 38v100q0 23 -15.5 38.5t-37.5 15.5h-18q-22 0 -37.5 -15.5 t-15.5 -38.5z" />
<glyph unicode="&#x26;" horiz-adv-x="566" d="M9 162v21q0 96 110 171l14 10q-57 74 -57 151v25q0 72 49.5 122.5t121.5 50.5h40q70 0 119 -50t49 -127v-65h-81v59q0 48 -27 76.5t-67 28.5h-27q-39 0 -66.5 -28.5t-27.5 -67.5v-20q0 -43 18.5 -78t75.5 -90l155 -149q9 12 10 13l101 120l59 -52l-102 -120l-12 -14 l112 -107l-57 -58l-109 105q-48 -49 -91.5 -74t-98.5 -25h-35q-75 0 -125.5 48.5t-50.5 123.5zM211 282l-26 24l-21 -14q-72 -49 -72 -113v-13q0 -42 29 -70t72 -28h26q62 0 136 74z" />
<glyph unicode="'" horiz-adv-x="146" d="M110 538h-74v232h74v-232z" />
<glyph unicode="(" horiz-adv-x="251" d="M136 -86q-82 85 -82 205v457q0 120 82 205l59 62l63 -56l-56 -59q-32 -35 -46 -70.5t-14 -98.5v-423q0 -64 13.5 -100t45.5 -70l56 -60l-62 -54z" />
<glyph unicode=")" horiz-adv-x="251" d="M197 576v-458q0 -120 -81 -204l-60 -63l-62 56l56 60q32 35 45.5 70t13.5 98v424q0 64 -13.5 99.5t-44.5 69.5l-56 60l61 55l60 -63q81 -84 81 -204z" />
<glyph unicode="*" horiz-adv-x="318" d="M6 514v68h93l-69 96l60 39l68 -96l70 96l60 -39l-71 -96h95v-68h-90l66 -91l-60 -39l-69 95l-69 -95l-60 39l66 91h-90z" />
<glyph unicode="+" horiz-adv-x="350" d="M15 315v75h121v122h76v-122h123v-75h-123v-122h-76v122h-121z" />
<glyph unicode="," horiz-adv-x="159" d="M123 -136h-87v264h87v-264z" />
<glyph unicode="-" horiz-adv-x="225" d="M16 217v76h193v-76h-193z" />
<glyph unicode="." horiz-adv-x="159" d="M36 0v101h87v-101h-87z" />
<glyph unicode="/" horiz-adv-x="283" d="M0 0l193 703h90l-193 -703h-90z" />
<glyph unicode="0" horiz-adv-x="528" d="M40 514q0 82 58.5 140.5t140.5 58.5h50q83 0 141 -58.5t58 -140.5v-325q0 -83 -58 -141t-141 -58h-50q-82 0 -140.5 58.5t-58.5 140.5v325zM128 512v-321q0 -50 34.5 -85t83.5 -35h36q49 0 84 35t35 85v321q0 50 -35 85t-84 35h-36q-49 0 -83.5 -35t-34.5 -85z" />
<glyph unicode="1" horiz-adv-x="307" d="M165 0v612l-163 -36v77l196 50h55v-703h-88z" />
<glyph unicode="2" horiz-adv-x="463" d="M26 0v68l236 288q58 70 72 98q14 29 14 56v18q0 44 -30.5 75t-74.5 31h-23q-45 0 -76 -33t-31 -79v-69h-82v70q0 80 52.5 135t130.5 55h41q76 0 129.5 -53t53.5 -129v-21q0 -19 -2.5 -35.5t-11 -34.5t-12.5 -28t-20 -30.5t-20 -26t-25.5 -30t-24.5 -28.5l-177 -212h299 v-85h-418z" />
<glyph unicode="3" horiz-adv-x="494" d="M35 497v33q0 77 51.5 130t127.5 53h51q76 0 129.5 -53.5t53.5 -129.5v-23q0 -46 -27.5 -90.5t-71.5 -61.5q52 -18 81.5 -61.5t29.5 -92.5v-27q0 -76 -53.5 -130t-129.5 -54h-67q-77 0 -130 53.5t-53 130.5v31h86v-30q0 -44 32 -76.5t76 -32.5h39q44 0 75.5 32.5 t31.5 76.5v28q0 49 -38.5 80.5t-98.5 31.5h-92v74h88q53 0 93 34.5t40 85.5v20q0 44 -31 76t-75 32h-28q-44 0 -74 -31.5t-30 -76.5v-32h-86z" />
<glyph unicode="4" horiz-adv-x="473" d="M291 703h96v-475h84v-77h-84v-151h-85v151h-300v66zM97 227h205v340z" />
<glyph unicode="5" horiz-adv-x="501" d="M47 180v39h85v-37q0 -47 31 -80t77 -33h36q46 0 77 33.5t31 81.5v35q0 51 -32.5 86t-85.5 35h-207v363h401v-81h-317v-203h139q82 0 136 -56.5t54 -137.5v-44q0 -80 -53.5 -135.5t-132.5 -55.5h-55q-78 0 -131 55.5t-53 134.5z" />
<glyph unicode="6" horiz-adv-x="508" d="M127 507v-119q20 10 58 18t63 8h41q79 0 132.5 -53.5t53.5 -132.5v-44q0 -81 -55 -137.5t-136 -56.5h-54q-80 0 -135 56.5t-55 137.5v327q0 85 55.5 143.5t138.5 58.5h45q80 0 134 -56.5t54 -137.5v-35h-85v30q0 49 -32.5 83.5t-79.5 34.5h-26q-50 0 -83.5 -36.5 t-33.5 -88.5zM241 337q-57 0 -114 -22v-129q0 -49 32.5 -83.5t79.5 -34.5h36q48 0 80.5 35t32.5 83v34q0 48 -32.5 82.5t-80.5 34.5h-34z" />
<glyph unicode="7" horiz-adv-x="414" d="M74 0l238 620h-304v83h405v-62l-246 -641h-93z" />
<glyph unicode="8" horiz-adv-x="513" d="M40 510v22q0 78 54 129.5t132 51.5h60q79 0 131.5 -51.5t52.5 -128.5v-24q0 -48 -24.5 -91t-65.5 -63q46 -17 72.5 -62t26.5 -97v-25q0 -76 -50.5 -128.5t-129.5 -52.5h-80q-78 0 -131.5 52.5t-53.5 129.5v25q0 51 26.5 97t71.5 61q-45 19 -68.5 62.5t-23.5 92.5z M269 316h-28q-60 0 -90.5 -35.5t-30.5 -77.5v-23q0 -47 33 -79.5t80 -32.5h52q47 0 76.5 32.5t29.5 78.5v23q0 48 -31 81t-91 33zM384 506v20q0 46 -31.5 77.5t-77.5 31.5h-40q-45 0 -76.5 -31t-31.5 -78v-20q0 -46 29 -79.5t88 -33.5h21q59 0 89 34.5t30 78.5z" />
<glyph unicode="9" horiz-adv-x="508" d="M381 196v124q-21 -10 -58.5 -18t-62.5 -8h-41q-78 0 -131.5 53.5t-53.5 132.5v39q0 81 55 137.5t135 56.5h54q81 0 135.5 -56.5t54.5 -137.5v-327q0 -85 -55.5 -143.5t-138.5 -58.5h-45q-80 0 -134 56.5t-54 137.5v36h85v-31q0 -49 32.5 -83.5t79.5 -34.5h26 q50 0 83.5 36.5t33.5 88.5zM267 371q53 0 114 21v126q0 48 -32 82.5t-80 34.5h-36q-48 0 -80 -34.5t-32 -82.5v-30q0 -48 32 -82.5t80 -34.5h34z" />
<glyph unicode=":" horiz-adv-x="159" d="M36 407v101h87v-101h-87zM36 0v101h87v-101h-87z" />
<glyph unicode=";" horiz-adv-x="159" d="M36 407v101h87v-101h-87zM36 -136v264h87v-264h-87z" />
<glyph unicode="&#x3c;" horiz-adv-x="350" d="M25 317v68l300 134v-79l-209 -89l209 -89v-79z" />
<glyph unicode="=" horiz-adv-x="350" d="M15 399v72h320v-72h-320zM15 234v72h320v-72h-320z" />
<glyph unicode="&#x3e;" horiz-adv-x="350" d="M325 317l-300 -134v79l208 89l-208 89v79l300 -134v-68z" />
<glyph unicode="?" horiz-adv-x="301" d="M52 192v41q0 58 51 115l49 54q47 52 47 104v17q0 42 -30 71.5t-71 29.5h-75v79h96q70 0 119 -49t49 -118v-22q0 -77 -59 -145l-52 -58q-37 -42 -37 -87v-32h-87zM52 0v101h87v-101h-87z" />
<glyph unicode="@" horiz-adv-x="683" d="M462 443v-311h25q41 0 68 29t27 80v109q0 86 -60.5 147.5t-145.5 61.5h-57q-91 0 -155.5 -65t-64.5 -156v-170q0 -86 61 -148t147 -62h89q98 0 163 80l45 56l51 -41l-43 -57q-89 -100 -213 -100h-96q-112 0 -191.5 79.5t-79.5 191.5v174q0 115 82.5 197.5t198.5 82.5h66 q111 0 190 -78.5t79 -188.5v-122q0 -60 -44 -112t-119 -52h-53q-34 0 -37 40q-33 -45 -87 -45h-22q-42 0 -69.5 27.5t-27.5 67.5v147q0 58 38.5 98t95.5 40h139zM307 129h17q26 0 48.5 24t22.5 55v171h-67q-34 0 -53 -24.5t-19 -59.5v-112q0 -22 13.5 -38t37.5 -16z" />
<glyph unicode="A" horiz-adv-x="486" d="M400 0l-51 187h-217l-52 -187h-85l197 703h104l194 -703h-90zM241 599l-89 -334h177z" />
<glyph unicode="B" horiz-adv-x="521" d="M54 0v703h230q74 0 126.5 -52.5t52.5 -126.5v-27q0 -41 -22 -81t-54 -60q43 -18 69.5 -60t26.5 -90v-28q0 -74 -51.5 -126t-125.5 -52h-252zM140 388h133q42 0 72 30t30 72v32q0 42 -30.5 72t-72.5 30h-132v-236zM140 79h151q42 0 71 30t29 72v31q0 43 -30 73t-78 30 h-143v-236z" />
<glyph unicode="C" horiz-adv-x="519" d="M394 266h87v-77q0 -83 -58.5 -141t-140.5 -58h-43q-82 0 -140.5 58.5t-58.5 140.5v325q0 82 58.5 140.5t140.5 58.5h43q82 0 140.5 -58.5t58.5 -140.5v-77h-87v75q0 50 -35 85t-84 35h-29q-49 0 -83.5 -35t-34.5 -85v-321q0 -50 34.5 -85t83.5 -35h29q49 0 84 35t35 85 v75z" />
<glyph unicode="D" horiz-adv-x="533" d="M492 199q0 -83 -58 -141t-141 -58h-239v703h239q83 0 141 -58.5t58 -140.5v-305zM142 624v-545h144q49 0 83.5 36t34.5 86v301q0 49 -35 85.5t-83 36.5h-144z" />
<glyph unicode="E" horiz-adv-x="435" d="M54 0v703h349v-79h-261v-233h249v-79h-249v-233h261v-79h-349z" />
<glyph unicode="F" horiz-adv-x="408" d="M54 0v703h342v-79h-254v-234h242v-79h-242v-311h-88z" />
<glyph unicode="G" horiz-adv-x="527" d="M487 463h-87v49q0 49 -35 84.5t-84 35.5h-35q-49 0 -83.5 -35t-34.5 -85v-322q0 -50 34.5 -85t83.5 -35h38q49 0 83.5 35t34.5 85v81h-124v78h210v-160q0 -83 -58 -141t-141 -58h-50q-82 0 -140.5 58.5t-58.5 140.5v325q0 82 58.5 140.5t140.5 58.5h48q83 0 141.5 -58.5 t58.5 -140.5v-51z" />
<glyph unicode="H" horiz-adv-x="550" d="M54 0v703h88v-312h266v312h87v-703h-87v312h-266v-312h-88z" />
<glyph unicode="I" d="M54 0v703h88v-703h-88z" />
<glyph unicode="J" horiz-adv-x="276" d="M-7 0v79h35q52 0 81.5 35.5t29.5 85.5v503h88v-520q0 -78 -50.5 -130.5t-130.5 -52.5h-53z" />
<glyph unicode="K" horiz-adv-x="496" d="M54 0v703h88v-312h100l152 312h93l-166 -346l190 -357h-99l-169 312h-101v-312h-88z" />
<glyph unicode="L" horiz-adv-x="388" d="M54 0v703h88v-624h256v-79h-344z" />
<glyph unicode="M" horiz-adv-x="616" d="M54 0v703h92l165 -368l163 368h88v-703h-84v530l-159 -355h-20l-161 355v-530h-84z" />
<glyph unicode="N" horiz-adv-x="549" d="M54 0v703h82l274 -505v505h84v-703h-67l-289 528v-528h-84z" />
<glyph unicode="O" horiz-adv-x="521" d="M40 514q0 82 58 140.5t141 58.5h43q82 0 140.5 -58.5t58.5 -140.5v-325q0 -82 -58.5 -140.5t-140.5 -58.5h-43q-83 0 -141 58t-58 141v325zM128 512v-321q0 -50 34.5 -85t83.5 -35h29q49 0 83.5 35t34.5 85v321q0 50 -34.5 85t-83.5 35h-29q-49 0 -83.5 -35t-34.5 -85z " />
<glyph unicode="P" horiz-adv-x="468" d="M54 0v703h217q81 0 138 -57t57 -138v-47q0 -81 -57 -138t-138 -57h-129v-266h-88zM142 345h125q46 0 79 33t33 80v53q0 47 -33 80t-79 33h-125v-279z" />
<glyph unicode="Q" horiz-adv-x="521" d="M217 -142v133q-75 8 -126 64.5t-51 133.5v325q0 82 58 140.5t141 58.5h43q82 0 140.5 -58.5t58.5 -140.5v-325q0 -76 -51 -132.5t-125 -64.5v-134h-88zM128 512v-321q0 -50 34.5 -85t83.5 -35h29q49 0 83.5 35t34.5 85v321q0 50 -34.5 85t-83.5 35h-29q-49 0 -83.5 -35 t-34.5 -85z" />
<glyph unicode="R" horiz-adv-x="510" d="M406 0l-136 280h-128v-280h-88v703h221q79 0 136 -56.5t57 -136.5v-37q0 -54 -29.5 -102t-79.5 -72l146 -299h-99zM142 358h127q46 0 78 32.5t32 78.5v44q0 46 -32 78.5t-78 32.5h-127v-266z" />
<glyph unicode="S" horiz-adv-x="502" d="M33 179v46h86v-45q0 -46 31.5 -78.5t77.5 -32.5h44q49 0 79 33t30 82v19q0 50 -29.5 80.5t-93.5 30.5h-19q-91 0 -145 55t-54 131v33q0 76 55 128t134 52h49q78 0 129.5 -55t51.5 -135v-47h-85v46q0 47 -30 79.5t-76 32.5h-34q-44 0 -75 -30t-31 -74v-21q0 -50 31 -83 t92 -33h21q97 0 147 -51t50 -134v-28q0 -80 -52.5 -135t-133.5 -55h-63q-79 0 -133 55t-54 134z" />
<glyph unicode="T" horiz-adv-x="417" d="M165 0v624h-175v79h437v-79h-175v-624h-87z" />
<glyph unicode="U" horiz-adv-x="534" d="M397 703h88v-518q0 -81 -57.5 -138t-137.5 -57h-45q-81 0 -138.5 57t-57.5 138v518h88v-515q0 -48 33.5 -82t80.5 -34h32q48 0 81 34t33 82v515z" />
<glyph unicode="V" horiz-adv-x="474" d="M184 0l-185 703h88l152 -581l151 581h85l-185 -703h-106z" />
<glyph unicode="W" horiz-adv-x="745" d="M156 0l-130 703h86l103 -578l115 578h91l110 -579l108 579h83l-135 -703h-110l-105 532l-110 -532h-106z" />
<glyph unicode="X" horiz-adv-x="457" d="M-1 0l176 351l-175 352h89l139 -277l140 277h89l-176 -351l177 -352h-91l-139 277l-139 -277h-90z" />
<glyph unicode="Y" horiz-adv-x="450" d="M181 0v283l-186 420h87l143 -326l144 326h86l-186 -420v-283h-88z" />
<glyph unicode="Z" horiz-adv-x="419" d="M11 0v68l290 556h-276v79h382v-56l-296 -568h296v-79h-396z" />
<glyph unicode="[" horiz-adv-x="251" d="M142 -37h104v-79h-192v935h192v-79h-104v-777z" />
<glyph unicode="\" horiz-adv-x="283" d="M193 0l-193 703h90l193 -703h-90z" />
<glyph unicode="]" horiz-adv-x="251" d="M5 -37h104v777h-104v79h192v-935h-192v79z" />
<glyph unicode="^" horiz-adv-x="293" d="M-2 421l113 283h71l113 -283h-78l-71 184l-71 -184h-77z" />
<glyph unicode="_" horiz-adv-x="309" d="M1 -59h308v-85h-308v85z" />
<glyph unicode="`" horiz-adv-x="302" d="M206 542l-160 93l34 57l159 -95z" />
<glyph unicode="a" horiz-adv-x="466" d="M471 71v-72h-46q-66 0 -89 46q-44 -50 -124 -50h-52q-59 0 -97.5 33.5t-38.5 94.5q0 64 37.5 98.5t102.5 34.5h161v91q0 37 -22.5 64t-58.5 27h-30q-41 0 -63 -27t-22 -65v-23h-83v37q0 64 45.5 109.5t113.5 45.5h55q66 0 109 -43.5t43 -106.5v-243q0 -28 11 -39.5 t36 -11.5h12zM183 62h40q35 0 67.5 23.5t34.5 73.5v28h-140q-35 0 -53.5 -16.5t-18.5 -47.5q0 -61 70 -61z" />
<glyph unicode="b" horiz-adv-x="485" d="M54 0v703h85v-239q36 51 115 51h53q60 0 100 -42t40 -101v-212q0 -70 -46.5 -118.5t-114.5 -48.5h-50q-72 0 -99 37v-30h-83zM243 438q-42 0 -70.5 -32t-30.5 -73v-189q0 -33 25 -54t61 -21h42q43 0 66.5 31.5t23.5 75.5v168q0 40 -20.5 67t-57.5 27h-39z" />
<glyph unicode="c" horiz-adv-x="469" d="M348 204h86v-40q0 -71 -48 -121t-118 -50h-63q-70 0 -118.5 50t-48.5 121v180q0 71 48.5 121t118.5 50h63q70 0 118 -50t48 -121v-41h-86v30q0 44 -24 74.5t-66 30.5h-43q-42 0 -66 -30.5t-24 -74.5v-159q0 -44 25 -74.5t67 -30.5h41q42 0 66 30.5t24 74.5v30z" />
<glyph unicode="d" horiz-adv-x="485" d="M430 703v-703h-84v44q-37 -51 -115 -51h-52q-61 0 -101 42t-40 101v208q0 71 47 121t118 50h48q64 0 94 -34v222h85zM203 69h39q42 0 71.5 34.5t29.5 76.5v190q-1 31 -25.5 49.5t-60.5 18.5h-42q-43 0 -66.5 -31t-23.5 -76v-168q0 -40 20 -67t58 -27z" />
<glyph unicode="e" horiz-adv-x="460" d="M343 195h84v-29q0 -74 -47 -123.5t-118 -49.5h-59q-70 0 -117.5 49t-47.5 122v182q0 70 50 119.5t121 49.5h53q70 0 117.5 -49t47.5 -120v-78h-306v-99q0 -43 25.5 -74t68.5 -31h38q42 0 66 31t24 76v24zM121 342v-8h223v8q0 43 -23.5 72t-66.5 29h-42q-43 0 -67 -29 t-24 -72z" />
<glyph unicode="f" horiz-adv-x="248" d="M9 432v76h67v49q0 61 40.5 103.5t101.5 42.5h84v-75h-70q-70 0 -70 -82v-38h106v-76h-106v-432h-86v432h-67z" />
<glyph unicode="g" horiz-adv-x="466" d="M463 434h-51q-6 0 -18 -2q16 -32 16 -67v-53q0 -62 -42 -106t-107 -44h-76q-27 0 -47 7q-4 -13 -4 -36v-7q0 -48 57 -48h128q60 0 99 -37.5t39 -92.5v-16q0 -63 -42.5 -100t-128.5 -37h-127q-70 0 -108 37.5t-38 82.5v32q0 37 17.5 64.5t47.5 40.5q-20 29 -20 60v17 q0 55 18 79q-39 42 -39 103v54q0 62 42.5 106t107.5 44h77q43 0 78 -24q27 16 58 16h63v-73zM202 445q-37 0 -59 -25t-22 -63v-37q0 -40 23 -64t58 -24h42q38 0 59.5 24.5t21.5 63.5v37q0 38 -22 63t-59 25h-42zM170 -131h107q94 0 94 67v8q0 24 -19.5 41t-48.5 17h-146 q-59 -3 -59 -60v-11q0 -24 18 -43t54 -19z" />
<glyph unicode="h" horiz-adv-x="490" d="M280 436h-34q-41 0 -71.5 -32t-32.5 -72v-332h-88v703h88v-252q18 34 52 49t70 15h34q64 0 103 -40.5t39 -102.5v-372h-89v349q0 36 -18.5 61.5t-52.5 25.5z" />
<glyph unicode="i" d="M54 0v508h88v-508h-88zM54 569v84h88v-84h-88z" />
<glyph unicode="j" horiz-adv-x="200" d="M-61 -196v75h49q33 0 51 23t18 60v546h88v-566q0 -58 -38.5 -98t-95.5 -40h-72zM57 569v84h88v-84h-88z" />
<glyph unicode="k" horiz-adv-x="434" d="M54 0v703h88v-410h79l109 215h93l-126 -250l142 -258h-95l-122 218h-80v-218h-88z" />
<glyph unicode="l" d="M54 0v703h88v-703h-88z" />
<glyph unicode="m" horiz-adv-x="753" d="M545 434h-24q-41 0 -69 -30.5t-30 -71.5v-332h-87v349q0 36 -18.5 60.5t-52.5 24.5h-24q-40 0 -68.5 -29.5t-31.5 -68.5v-336h-86v508h85v-56q19 32 52 47.5t66 15.5h36q73 0 110 -63q48 63 135 63h37q54 0 91 -39.5t37 -94.5v-381h-87v349q0 36 -18.5 60.5t-52.5 24.5z M139 427v25v-32v7z" />
<glyph unicode="n" horiz-adv-x="490" d="M280 436h-28q-47 0 -77.5 -33t-32.5 -74v-329h-88v508h87v-57q36 64 123 64h34q64 0 103 -40.5t39 -102.5v-372h-89v351q0 36 -18.5 60.5t-52.5 24.5z" />
<glyph unicode="o" horiz-adv-x="477" d="M205 515h67q70 0 118.5 -50t48.5 -121v-180q0 -71 -48.5 -121t-118.5 -50h-67q-70 0 -118.5 50t-48.5 121v180q0 71 48.5 121t118.5 50zM217 69h43q42 0 67 30.5t25 74.5v159q0 44 -25 74.5t-67 30.5h-43q-42 0 -67 -30.5t-25 -74.5v-159q0 -44 25 -74.5t67 -30.5z" />
<glyph unicode="p" horiz-adv-x="485" d="M54 -196v704h84v-45q37 52 116 52h53q60 0 100 -42t40 -101v-208q0 -71 -47.5 -121t-117.5 -50h-48q-66 0 -95 35v-224h-85zM243 438q-42 0 -70.5 -32t-30.5 -73v-192q0 -33 24.5 -52.5t61.5 -19.5h42q43 0 66.5 31.5t23.5 75.5v168q0 40 -20.5 67t-57.5 27h-39z" />
<glyph unicode="q" horiz-adv-x="486" d="M431 508v-704h-85v240q-37 -51 -114 -51h-53q-61 0 -101 42t-40 101v211q0 70 46.5 119t115.5 49h49q69 0 99 -37v30h83zM203 69h40q42 0 71.5 34.5t29.5 76.5v187q0 32 -25 51.5t-62 19.5h-42q-43 0 -66.5 -31t-23.5 -76v-168q0 -39 20.5 -66.5t57.5 -27.5z" />
<glyph unicode="r" horiz-adv-x="312" d="M54 0v508h84v-68q17 34 52.5 51t71.5 17h41v-79h-40q-54 0 -86.5 -36.5t-34.5 -89.5v-303h-88z" />
<glyph unicode="s" horiz-adv-x="452" d="M31 128v42h86v-28q0 -34 23.5 -55t66.5 -21h41q40 0 63 19t23 49v7q0 35 -25 55t-74 20h-18q-82 0 -129 37.5t-47 101.5v18q0 60 44.5 101t114.5 41h57q68 0 112 -40.5t44 -97.5v-35h-86v26q0 33 -22.5 53.5t-62.5 20.5h-30q-40 0 -62 -19t-22 -49v-6q0 -73 100 -73h19 q79 0 127.5 -37.5t48.5 -100.5v-25q0 -58 -45.5 -98.5t-110.5 -40.5h-79q-68 0 -112.5 39.5t-44.5 95.5z" />
<glyph unicode="t" horiz-adv-x="404" d="M9 432v76h63v87h86v-87h229v-76h-229v-292q0 -31 17.5 -51.5t47.5 -20.5h19q36 0 52.5 21t16.5 53v35h81v-50q0 -55 -38.5 -94.5t-94.5 -39.5h-56q-56 0 -93.5 38.5t-37.5 91.5v309h-63z" />
<glyph unicode="u" horiz-adv-x="489" d="M209 72h32q41 0 72.5 32t33.5 72v332h87v-508h-84v58q-19 -34 -54 -49.5t-69 -15.5h-44q-54 0 -93.5 41t-39.5 94v380h89v-349q0 -37 18 -62t52 -25z" />
<glyph unicode="v" horiz-adv-x="418" d="M271 0h-125l-146 508h88l121 -422l121 422h88z" />
<glyph unicode="w" horiz-adv-x="654" d="M239 0h-106l-113 508h84l87 -393l93 393h87l100 -393l86 393h84l-114 -508h-106l-94 360z" />
<glyph unicode="x" horiz-adv-x="399" d="M96 508l103 -183l104 183h96l-147 -252l150 -256h-96l-107 188l-106 -188h-97l151 257l-147 251h96z" />
<glyph unicode="y" horiz-adv-x="418" d="M17 -197v76h65q35 0 54.5 16t31.5 52l17 53h-38l-147 508h88l121 -423l121 423h88l-147 -508l-28 -84q-20 -61 -58 -87t-97 -26h-71z" />
<glyph unicode="z" horiz-adv-x="401" d="M25 429v79h355v-56l-248 -373h250v-79h-361v62l247 367h-243z" />
<glyph unicode="{" horiz-adv-x="263" d="M158 414q0 -44 -35 -63q35 -21 35 -63v-262q0 -25 18.5 -44.5t43.5 -19.5h38v-79h-65q-52 0 -87.5 35t-35.5 85v262q0 19 -11 33t-28 14h-30v79h30q17 0 28 14t11 33v262q0 50 35.5 84.5t87.5 34.5h65v-79h-38q-25 0 -43.5 -19t-18.5 -45v-262z" />
<glyph unicode="|" d="M54 -116v935h88v-935h-88z" />
<glyph unicode="}" horiz-adv-x="263" d="M105 26v262q0 44 35 63q-35 21 -35 63v262q0 26 -18 45t-44 19h-38v79h65q53 0 88.5 -34.5t35.5 -84.5v-262q0 -19 10.5 -33t27.5 -14h30v-79h-30q-17 0 -27.5 -14t-10.5 -33v-262q0 -51 -35.5 -85.5t-88.5 -34.5h-65v79h38q26 0 44 19.5t18 44.5z" />
<glyph unicode="~" horiz-adv-x="316" d="M4 345l25 31q31 39 73 39q23 0 50 -17l34 -21q17 -10 26 -10q15 0 24 12l22 27l53 -43l-27 -35q-28 -35 -64 -35q-29 0 -56 16l-31 20q-15 10 -27 10q-18 0 -26 -12l-21 -26z" />
<glyph unicode="&#xa1;" d="M142 316v-511h-88v511h88zM142 508v-101h-88v101h88z" />
<glyph unicode="&#xa2;" horiz-adv-x="469" d="M271 -82h-68v75q-70 1 -117.5 50.5t-47.5 120.5v180q0 70 48 120t117 51v75h68v-75q69 -1 116 -51t47 -120v-41h-86v30q0 44 -24 74.5t-66 30.5h-43q-42 0 -66 -30.5t-24 -74.5v-159q0 -44 25 -74.5t67 -30.5h41q42 0 66 30.5t24 74.5v30h86v-40q0 -70 -47 -120t-116 -51 v-75z" />
<glyph unicode="&#xa3;" horiz-adv-x="458" d="M28 320v64h69v117q0 85 60 143.5t149 58.5h119v-81h-113q-52 0 -89 -37.5t-37 -89.5v-111h213v-64h-213v-115q0 -72 -59 -124h319v-81h-430v78q81 52 81 124v118h-69z" />
<glyph unicode="&#xa4;" horiz-adv-x="447" d="M401 360v-91q0 -55 -34 -99l61 -85l-60 -38l-58 79q-31 -13 -62 -13h-47q-34 0 -64 14l-58 -80l-60 38l62 86q-33 42 -33 98v91q0 56 33 98l-62 87l60 38l58 -81q31 14 64 14h47q32 0 62 -14l58 81l60 -38l-62 -86q35 -43 35 -99zM125 347v-65q0 -39 22 -66.5t60 -27.5 h35q38 0 60 27.5t22 66.5v65q0 39 -22 66.5t-60 27.5h-35q-38 0 -60 -27.5t-22 -66.5z" />
<glyph unicode="&#xa5;" horiz-adv-x="464" d="M62 223v64h122l-182 416h88l142 -323l145 323h85l-186 -416h122v-64h-124v-68h124v-64h-124v-91h-88v91h-124v64h124v68h-124z" />
<glyph unicode="&#xa6;" d="M54 427v392h88v-392h-88zM54 -116v392h88v-392h-88z" />
<glyph unicode="&#xa7;" horiz-adv-x="388" d="M16 341v31q0 76 69 116q-64 36 -64 114v30q0 61 42.5 103t103.5 42h50q62 0 104.5 -44t42.5 -106v-41h-77v40q0 33 -22.5 58t-55.5 25h-29q-33 0 -55.5 -22.5t-22.5 -55.5v-22q0 -35 23.5 -60t64.5 -25h18q70 0 116.5 -43.5t46.5 -109.5v-30q0 -38 -17.5 -70t-48.5 -49 q67 -34 67 -114v-29q0 -63 -41.5 -106.5t-104.5 -43.5h-61q-62 0 -104.5 43t-42.5 107v41h77v-41q0 -33 23.5 -57t55.5 -24h39q34 0 55.5 23.5t21.5 57.5v23q0 37 -24.5 60t-70.5 23h-16q-72 1 -117.5 45t-45.5 111zM181 255h21q41 0 65 23.5t24 53.5v37q0 33 -25.5 57 t-65.5 24h-21q-37 0 -61.5 -23.5t-24.5 -55.5v-34q0 -31 25.5 -56.5t62.5 -25.5z" />
<glyph unicode="&#xa8;" horiz-adv-x="302" d="M191 571v82h70v-82h-70zM43 571v82h71v-82h-71z" />
<glyph unicode="&#xa9;" horiz-adv-x="690" d="M658 265q0 -112 -80 -193.5t-191 -81.5h-84q-112 0 -191.5 79.5t-79.5 190.5v184q0 111 79.5 190.5t191.5 79.5h84q112 0 191.5 -79.5t79.5 -190.5v-179zM591 443q0 86 -61 148t-146 62h-77q-86 0 -147 -62t-61 -148v-182q0 -86 61 -148t147 -62h77q85 0 146 64.5 t61 150.5v177zM426 319h70v-47q0 -53 -38 -91t-91 -38h-42q-53 0 -91 38t-38 91v161q0 53 38 90.5t91 37.5h42q53 0 91 -37.5t38 -90.5v-48h-70v45q0 28 -19 47.5t-46 19.5h-30q-27 0 -46.5 -19.5t-19.5 -47.5v-156q0 -28 19.5 -47.5t46.5 -19.5h30q27 0 46 19.5t19 47.5v45 z" />
<glyph unicode="&#xaa;" horiz-adv-x="321" d="M321 399v-63h-35q-49 0 -67 32q-32 -36 -88 -36h-32q-41 0 -70 25.5t-29 74.5q0 46 28 71.5t73 25.5h109v57q0 23 -14.5 40.5t-36.5 17.5h-17q-24 0 -39.5 -17t-15.5 -40v-19h-71v33q0 46 34.5 77t83.5 31h39q47 0 79 -31.5t32 -77.5v-169q0 -32 27 -32h10zM8 213v68h308 v-68h-308zM124 389h18q23 0 45 14.5t23 46.5v24h-87q-47 0 -47 -41q0 -21 13.5 -32.5t34.5 -11.5z" />
<glyph unicode="&#xab;" horiz-adv-x="335" d="M229 122l-80 129v8l80 129h89l-83 -133l83 -133h-89zM93 122l-80 129v8l80 129h89l-83 -133l83 -133h-89z" />
<glyph unicode="&#xac;" horiz-adv-x="350" d="M15 315v75h320v-197h-77v122h-243z" />
<glyph unicode="&#xae;" horiz-adv-x="545" d="M243 168q-92 0 -157 65.5t-65 157.5v101q0 92 65.5 157t156.5 65h58q92 0 157.5 -65t65.5 -157v-97q0 -93 -65.5 -160t-157.5 -67h-58zM244 221h57q67 0 116 52t49 120v102q0 68 -49 117.5t-116 49.5h-57q-68 0 -117 -49.5t-49 -117.5v-106q0 -68 49 -118t117 -50z M336 288l-49 111h-59v-111h-57v307h127q36 0 61.5 -25t25.5 -61v-23q0 -49 -42 -74l58 -124h-65zM228 451h64q13 0 22.5 9.5t9.5 22.5v28q0 13 -9.5 22.5t-22.5 9.5h-64v-92z" />
<glyph unicode="&#xaf;" horiz-adv-x="302" d="M23 578v68h255v-68h-255z" />
<glyph unicode="&#xb0;" horiz-adv-x="224" d="M101 499q-40 0 -68.5 28t-28.5 69v21q0 40 28.5 68.5t68.5 28.5h21q41 0 69.5 -28.5t28.5 -68.5v-21q0 -41 -28.5 -69t-69.5 -28h-21zM105 558h14q17 0 28.5 12t11.5 29v14q0 17 -11.5 29t-28.5 12h-14q-17 0 -28.5 -12t-11.5 -29v-14q0 -17 11.5 -29t28.5 -12z" />
<glyph unicode="&#xb1;" horiz-adv-x="350" d="M15 371v74h121v122h76v-122h123v-74h-123v-123h-76v123h-121zM15 145v72h320v-72h-320z" />
<glyph unicode="&#xb2;" horiz-adv-x="301" d="M30 386v52l124 99q49 40 49 67v10q0 39 -42 39h-22q-20 0 -33.5 -12t-13.5 -31v-36h-61v37q0 41 29 69.5t72 28.5h44q41 0 69 -27t28 -65v-11q0 -48 -64 -99l-78 -64h149v-57h-250z" />
<glyph unicode="&#xb3;" horiz-adv-x="301" d="M30 595v23q0 39 27 65t71 26h44q43 0 70.5 -25t27.5 -61v-15q0 -46 -44 -62q49 -18 49 -65v-13q0 -37 -27.5 -62.5t-72.5 -25.5h-48q-46 0 -73 25.5t-27 62.5v26h64v-22q0 -17 13 -27.5t36 -10.5h21q20 0 32.5 10.5t12.5 27.5v10q0 17 -14.5 27.5t-37.5 10.5h-52v50h50 q22 0 36.5 10.5t14.5 29.5v10q0 16 -12.5 26t-30.5 10h-20q-21 0 -33.5 -12t-12.5 -32v-17h-64z" />
<glyph unicode="&#xb4;" horiz-adv-x="302" d="M101 541l-33 55l158 95l35 -57z" />
<glyph unicode="&#xb6;" horiz-adv-x="409" d="M170 0v369h-30q-59 0 -99.5 40.5t-40.5 99.5v55q0 58 40.5 98.5t99.5 40.5h267v-76h-57v-627h-66v627h-48v-627h-66z" />
<glyph unicode="&#xb7;" horiz-adv-x="159" d="M36 204v101h87v-101h-87z" />
<glyph unicode="&#xb8;" horiz-adv-x="302" d="M124 0h59v-35q25 -4 42.5 -24t17.5 -47v-16q0 -34 -23 -56.5t-56 -22.5h-17q-33 0 -55.5 22.5t-22.5 56.5v17l55 -1v-14q0 -10 8 -18t19 -8h9q10 0 18 8t8 18v10q0 10 -7 17.5t-17 8.5h-38v84z" />
<glyph unicode="&#xb9;" horiz-adv-x="301" d="M36 442h98v194l-105 -23v58l126 32h47v-261h80v-56h-246v56z" />
<glyph unicode="&#xba;" horiz-adv-x="315" d="M136 330q-48 0 -81.5 34t-33.5 82v148q0 48 34 81.5t81 33.5h44q47 0 81 -33.5t34 -81.5v-148q0 -48 -33.5 -82t-81.5 -34h-44zM146 395h23q23 0 38.5 16.5t15.5 39.5v138q0 23 -15.5 39t-38.5 16h-23q-22 0 -38 -16t-16 -39v-138q0 -23 16 -39.5t38 -16.5zM16 213v68 h284v-68h-284z" />
<glyph unicode="&#xbb;" horiz-adv-x="335" d="M106 388l80 -129v-8l-80 -129h-89l83 133l-83 133h89zM242 388l80 -129v-8l-80 -129h-89l83 133l-83 133h89z" />
<glyph unicode="&#xbc;" horiz-adv-x="619" d="M75 0l385 703h83l-385 -703h-83zM605 67h-49v-67h-66v67h-158v48l137 202h87v-193h49v-57zM36 442h98v194l-105 -23v58l126 32h47v-261h80v-56h-246v56zM491 253l-87 -129h87v129z" />
<glyph unicode="&#xbd;" horiz-adv-x="619" d="M75 0l385 703h83l-385 -703h-83zM347 0v52l124 99q49 40 49 67v10q0 39 -42 39h-22q-20 0 -33.5 -12t-13.5 -31v-36h-61v37q0 41 29 69.5t72 28.5h44q41 0 69 -27t28 -65v-11q0 -48 -64 -99l-78 -64h149v-57h-250zM36 442h98v194l-105 -23v58l126 32h47v-261h80v-56h-246 v56z" />
<glyph unicode="&#xbe;" horiz-adv-x="619" d="M30 595v23q0 39 27 65t71 26h44q43 0 70.5 -25t27.5 -61v-15q0 -46 -44 -62q49 -18 49 -65v-13q0 -37 -27.5 -62.5t-72.5 -25.5h-48q-46 0 -73 25.5t-27 62.5v26h64v-22q0 -17 13 -27.5t36 -10.5h21q20 0 32.5 10.5t12.5 27.5v10q0 17 -14.5 27.5t-37.5 10.5h-52v50h50 q22 0 36.5 10.5t14.5 29.5v10q0 16 -12.5 26t-30.5 10h-20q-21 0 -33.5 -12t-12.5 -32v-17h-64zM75 0l385 703h83l-385 -703h-83zM605 67h-49v-67h-66v67h-158v48l137 202h87v-193h49v-57zM491 253l-87 -129h87v129z" />
<glyph unicode="&#xbf;" horiz-adv-x="301" d="M249 316v-41q0 -58 -51 -115l-49 -54q-47 -52 -47 -104v-17q0 -42 30 -71.5t71 -29.5h75v-79h-96q-70 0 -119 49t-49 118v22q0 77 59 145l52 58q37 42 37 87v32h87zM249 508v-101h-87v101h87z" />
<glyph unicode="&#xc0;" horiz-adv-x="486" d="M400 0l-51 187h-217l-52 -187h-85l197 703h104l194 -703h-90zM241 599l-89 -334h177zM298 735l-160 93l33 58l159 -95z" />
<glyph unicode="&#xc1;" horiz-adv-x="486" d="M400 0l-51 187h-217l-52 -187h-85l197 703h104l194 -703h-90zM241 599l-89 -334h177zM214 734l-32 56l158 95l34 -58z" />
<glyph unicode="&#xc2;" horiz-adv-x="486" d="M400 0l-51 187h-217l-52 -187h-85l197 703h104l194 -703h-90zM241 599l-89 -334h177zM131 746l-31 52l143 87l143 -87l-31 -52l-112 68z" />
<glyph unicode="&#xc3;" horiz-adv-x="486" d="M400 0l-51 187h-217l-52 -187h-85l197 703h104l194 -703h-90zM241 599l-89 -334h177zM93 801l24 30q27 37 68 37q31 0 56 -17l29 -20q15 -11 27 -11q16 0 26 14l20 26l49 -39l-25 -33q-25 -35 -65 -35q-34 0 -55 15l-30 20q-18 12 -28 12q-16 0 -24 -10l-22 -29z" />
<glyph unicode="&#xc4;" horiz-adv-x="486" d="M400 0l-51 187h-217l-52 -187h-85l197 703h104l194 -703h-90zM241 599l-89 -334h177zM283 763v82h70v-82h-70zM135 763v82h71v-82h-71z" />
<glyph unicode="&#xc5;" horiz-adv-x="486" d="M400 0l-51 187h-217l-52 -187h-85l197 703h104l194 -703h-90zM241 599l-89 -334h177zM235 730q-31 0 -53.5 22t-22.5 53v15q0 31 22.5 52.5t53.5 21.5h16q31 0 53 -21.5t22 -52.5v-15q0 -31 -22 -53t-53 -22h-16zM238 781h10q10 0 18 8t8 18v10q0 10 -8 18t-18 8h-10 q-10 0 -18 -7.5t-8 -18.5v-10q0 -10 8 -18t18 -8z" />
<glyph unicode="&#xc6;" horiz-adv-x="669" d="M298 0v194h-153l-72 -194h-85l256 703h393v-79h-255v-233h243v-79h-243v-233h255v-79h-339zM169 270h129v358z" />
<glyph unicode="&#xc7;" horiz-adv-x="519" d="M394 266h87v-77q0 -80 -55 -137t-134 -62v-25q25 -4 42.5 -24t17.5 -47v-16q0 -34 -23 -56.5t-56 -22.5h-17q-33 0 -55.5 22.5t-22.5 56.5v17l55 -1v-14q0 -10 8 -18t19 -8h9q11 0 18.5 8t7.5 18v10q0 10 -7 17.5t-17 8.5h-38v74q-80 3 -136.5 60.5t-56.5 138.5v325 q0 82 58.5 140.5t140.5 58.5h43q82 0 140.5 -58.5t58.5 -140.5v-77h-87v75q0 50 -35 85t-84 35h-29q-49 0 -83.5 -35t-34.5 -85v-321q0 -50 34.5 -85t83.5 -35h29q49 0 84 35t35 85v75z" />
<glyph unicode="&#xc8;" horiz-adv-x="435" d="M281 735l-160 93l33 58l159 -95zM54 0v703h349v-79h-261v-233h249v-79h-249v-233h261v-79h-349z" />
<glyph unicode="&#xc9;" horiz-adv-x="435" d="M54 0v703h349v-79h-261v-233h249v-79h-249v-233h261v-79h-349zM198 734l-32 56l158 95l34 -58z" />
<glyph unicode="&#xca;" horiz-adv-x="435" d="M114 746l-31 52l143 87l143 -87l-31 -52l-112 68zM54 0v703h349v-79h-261v-233h249v-79h-249v-233h261v-79h-349z" />
<glyph unicode="&#xcb;" horiz-adv-x="435" d="M54 0v703h349v-79h-261v-233h249v-79h-249v-233h261v-79h-349zM266 763v82h70v-82h-70zM118 763v82h71v-82h-71z" />
<glyph unicode="&#xcc;" d="M54 0v703h88v-703h-88zM154 735l-160 93l33 58l159 -95z" />
<glyph unicode="&#xcd;" d="M54 0v703h88v-703h-88zM71 734l-32 56l158 95l34 -58z" />
<glyph unicode="&#xce;" d="M54 0v703h88v-703h-88zM-13 746l-31 52l143 87l143 -87l-31 -52l-112 68z" />
<glyph unicode="&#xcf;" d="M54 0v703h88v-703h-88zM139 763v82h70v-82h-70zM-9 763v82h71v-82h-71z" />
<glyph unicode="&#xd0;" horiz-adv-x="550" d="M19 316v72h51v315h239q83 0 141 -58.5t58 -140.5v-305q0 -83 -58 -141t-141 -58h-239v316h-51zM158 624v-236h90v-72h-90v-237h144q49 0 83.5 36t34.5 86v301q0 49 -35 85.5t-83 36.5h-144z" />
<glyph unicode="&#xd1;" horiz-adv-x="549" d="M126 801l24 30q27 37 68 37q30 0 56 -17l29 -20q15 -11 27 -11q16 0 26 14l20 26l49 -39l-25 -33q-25 -35 -65 -35q-34 0 -55 15l-30 20q-18 12 -28 12q-16 0 -24 -10l-22 -29zM54 0v703h82l274 -505v505h84v-703h-67l-289 528v-528h-84z" />
<glyph unicode="&#xd2;" horiz-adv-x="521" d="M316 735l-160 93l33 58l159 -95zM40 514q0 82 58 140.5t141 58.5h43q82 0 140.5 -58.5t58.5 -140.5v-325q0 -82 -58.5 -140.5t-140.5 -58.5h-43q-83 0 -141 58t-58 141v325zM128 512v-321q0 -50 34.5 -85t83.5 -35h29q49 0 83.5 35t34.5 85v321q0 50 -34.5 85t-83.5 35 h-29q-49 0 -83.5 -35t-34.5 -85z" />
<glyph unicode="&#xd3;" horiz-adv-x="521" d="M233 734l-32 56l158 95l34 -58zM40 514q0 82 58 140.5t141 58.5h43q82 0 140.5 -58.5t58.5 -140.5v-325q0 -82 -58.5 -140.5t-140.5 -58.5h-43q-83 0 -141 58t-58 141v325zM128 512v-321q0 -50 34.5 -85t83.5 -35h29q49 0 83.5 35t34.5 85v321q0 50 -34.5 85t-83.5 35 h-29q-49 0 -83.5 -35t-34.5 -85z" />
<glyph unicode="&#xd4;" horiz-adv-x="521" d="M149 746l-31 52l143 87l143 -87l-31 -52l-112 68zM40 514q0 82 58 140.5t141 58.5h43q82 0 140.5 -58.5t58.5 -140.5v-325q0 -82 -58.5 -140.5t-140.5 -58.5h-43q-83 0 -141 58t-58 141v325zM128 512v-321q0 -50 34.5 -85t83.5 -35h29q49 0 83.5 35t34.5 85v321 q0 50 -34.5 85t-83.5 35h-29q-49 0 -83.5 -35t-34.5 -85z" />
<glyph unicode="&#xd5;" horiz-adv-x="521" d="M40 514q0 82 58 140.5t141 58.5h43q82 0 140.5 -58.5t58.5 -140.5v-325q0 -82 -58.5 -140.5t-140.5 -58.5h-43q-83 0 -141 58t-58 141v325zM128 512v-321q0 -50 34.5 -85t83.5 -35h29q49 0 83.5 35t34.5 85v321q0 50 -34.5 85t-83.5 35h-29q-49 0 -83.5 -35t-34.5 -85z M111 801l24 30q27 37 68 37q31 0 56 -17l29 -20q15 -11 27 -11q16 0 26 14l20 26l49 -39l-25 -33q-25 -35 -65 -35q-34 0 -55 15l-30 20q-18 12 -28 12q-16 0 -24 -10l-22 -29z" />
<glyph unicode="&#xd6;" horiz-adv-x="521" d="M40 514q0 82 58 140.5t141 58.5h43q82 0 140.5 -58.5t58.5 -140.5v-325q0 -82 -58.5 -140.5t-140.5 -58.5h-43q-83 0 -141 58t-58 141v325zM128 512v-321q0 -50 34.5 -85t83.5 -35h29q49 0 83.5 35t34.5 85v321q0 50 -34.5 85t-83.5 35h-29q-49 0 -83.5 -35t-34.5 -85z M301 763v82h70v-82h-70zM153 763v82h71v-82h-71z" />
<glyph unicode="&#xd7;" horiz-adv-x="358" d="M75 198l-52 52l103 103l-102 102l52 53l102 -103l104 103l52 -52l-103 -103l103 -103l-52 -53l-104 103z" />
<glyph unicode="&#xd8;" horiz-adv-x="526" d="M42 514q0 82 58 140.5t141 58.5h43q61 0 112 -35l42 81l68 -36l-55 -102q32 -50 32 -107v-325q0 -82 -58.5 -140.5t-140.5 -58.5h-43q-63 0 -111 34l-43 -80l-66 35l53 102q-32 50 -32 108v325zM130 512v-321q0 -50 34.5 -85t83.5 -35h29q49 0 83.5 35t34.5 85v321 q0 50 -34.5 85t-83.5 35h-29q-49 0 -83.5 -35t-34.5 -85z" />
<glyph unicode="&#xd9;" horiz-adv-x="534" d="M322 735l-160 93l33 58l159 -95zM397 703h88v-518q0 -81 -57.5 -138t-137.5 -57h-45q-81 0 -138.5 57t-57.5 138v518h88v-515q0 -48 33.5 -82t80.5 -34h32q48 0 81 34t33 82v515z" />
<glyph unicode="&#xda;" horiz-adv-x="534" d="M397 703h88v-518q0 -81 -57.5 -138t-137.5 -57h-45q-81 0 -138.5 57t-57.5 138v518h88v-515q0 -48 33.5 -82t80.5 -34h32q48 0 81 34t33 82v515zM238 734l-32 56l158 95l34 -58z" />
<glyph unicode="&#xdb;" horiz-adv-x="534" d="M155 746l-31 52l143 87l143 -87l-31 -52l-112 68zM397 703h88v-518q0 -81 -57.5 -138t-137.5 -57h-45q-81 0 -138.5 57t-57.5 138v518h88v-515q0 -48 33.5 -82t80.5 -34h32q48 0 81 34t33 82v515z" />
<glyph unicode="&#xdc;" horiz-adv-x="534" d="M397 703h88v-518q0 -81 -57.5 -138t-137.5 -57h-45q-81 0 -138.5 57t-57.5 138v518h88v-515q0 -48 33.5 -82t80.5 -34h32q48 0 81 34t33 82v515zM307 763v82h70v-82h-70zM159 763v82h71v-82h-71z" />
<glyph unicode="&#xdd;" horiz-adv-x="450" d="M181 0v283l-186 420h87l143 -326l144 326h86l-186 -420v-283h-88zM196 734l-32 56l158 95l34 -58z" />
<glyph unicode="&#xde;" horiz-adv-x="468" d="M54 0v703h88v-133h129q81 0 138 -57t57 -138v-46q0 -80 -57 -137.5t-138 -57.5h-129v-134h-88zM142 213h125q46 0 79 33t33 80v52q0 47 -33 80.5t-79 33.5h-125v-279z" />
<glyph unicode="&#xdf;" horiz-adv-x="485" d="M230 320v71h27q43 0 67.5 31.5t24.5 76.5v25q0 43 -25 73.5t-67 30.5h-36q-38 0 -59.5 -25t-21.5 -63v-540h-86v547q0 65 44 110.5t110 45.5h62q69 0 117.5 -50t48.5 -120v-40q0 -84 -63 -134q39 -19 60 -57t21 -80v-57q0 -69 -46.5 -117t-114.5 -48h-64v79h43 q42 0 66.5 30.5t24.5 74.5v29q0 45 -24.5 76t-67.5 31h-41z" />
<glyph unicode="&#xe0;" horiz-adv-x="466" d="M471 71v-72h-46q-66 0 -89 46q-44 -50 -124 -50h-52q-59 0 -97.5 33.5t-38.5 94.5q0 64 37.5 98.5t102.5 34.5h161v91q0 37 -22.5 64t-58.5 27h-30q-41 0 -63 -27t-22 -65v-23h-83v37q0 64 45.5 109.5t113.5 45.5h55q66 0 109 -43.5t43 -106.5v-243q0 -28 11 -39.5 t36 -11.5h12zM183 62h40q36 0 69 25t33 78v22h-140q-35 0 -53.5 -16.5t-18.5 -47.5q0 -61 70 -61zM286 542l-160 93l34 57l159 -95z" />
<glyph unicode="&#xe1;" horiz-adv-x="466" d="M471 71v-72h-46q-66 0 -89 46q-44 -50 -124 -50h-52q-59 0 -97.5 33.5t-38.5 94.5q0 64 37.5 98.5t102.5 34.5h161v91q0 37 -22.5 64t-58.5 27h-30q-41 0 -63 -27t-22 -65v-23h-83v37q0 64 45.5 109.5t113.5 45.5h55q66 0 109 -43.5t43 -106.5v-243q0 -28 11 -39.5 t36 -11.5h12zM183 62h40q35 0 67.5 23.5t34.5 73.5v28h-140q-35 0 -53.5 -16.5t-18.5 -47.5q0 -61 70 -61zM203 541l-33 55l158 95l35 -57z" />
<glyph unicode="&#xe2;" horiz-adv-x="466" d="M471 71v-72h-46q-66 0 -89 46q-44 -50 -124 -50h-52q-59 0 -97.5 33.5t-38.5 94.5q0 64 37.5 98.5t102.5 34.5h161v91q0 37 -22.5 64t-58.5 27h-30q-41 0 -63 -27t-22 -65v-23h-83v37q0 64 45.5 109.5t113.5 45.5h55q66 0 109 -43.5t43 -106.5v-243q0 -28 11 -39.5 t36 -11.5h12zM183 62h40q35 0 67.5 23.5t34.5 73.5v28h-140q-35 0 -53.5 -16.5t-18.5 -47.5q0 -61 70 -61zM119 553l-31 52l143 87l143 -87l-31 -52l-112 69z" />
<glyph unicode="&#xe3;" horiz-adv-x="466" d="M471 71v-72h-46q-66 0 -89 46q-44 -50 -124 -50h-52q-59 0 -97.5 33.5t-38.5 94.5q0 64 37.5 98.5t102.5 34.5h161v91q0 37 -22.5 64t-58.5 27h-30q-41 0 -63 -27t-22 -65v-23h-83v37q0 64 45.5 109.5t113.5 45.5h55q66 0 109 -43.5t43 -106.5v-243q0 -28 11 -39.5 t36 -11.5h12zM183 62h40q35 0 67.5 23.5t34.5 73.5v28h-140q-35 0 -53.5 -16.5t-18.5 -47.5q0 -61 70 -61zM81 608l24 30q27 37 68 37q31 0 56 -17l29 -20q15 -11 27 -11q16 0 26 14l20 26l49 -39l-25 -33q-25 -35 -65 -35q-34 0 -55 15l-30 20q-18 12 -28 12q-16 0 -24 -10 l-22 -29z" />
<glyph unicode="&#xe4;" horiz-adv-x="466" d="M471 71v-72h-46q-66 0 -89 46q-44 -50 -124 -50h-52q-59 0 -97.5 33.5t-38.5 94.5q0 64 37.5 98.5t102.5 34.5h161v91q0 37 -22.5 64t-58.5 27h-30q-41 0 -63 -27t-22 -65v-23h-83v37q0 64 45.5 109.5t113.5 45.5h55q66 0 109 -43.5t43 -106.5v-243q0 -28 11 -39.5 t36 -11.5h12zM183 62h40q36 0 69 25t33 78v22h-140q-35 0 -53.5 -16.5t-18.5 -47.5q0 -61 70 -61zM123 571v82h71v-82h-71zM271 571v82h70v-82h-70z" />
<glyph unicode="&#xe5;" horiz-adv-x="466" d="M471 71v-72h-46q-66 0 -89 46q-44 -50 -124 -50h-52q-59 0 -97.5 33.5t-38.5 94.5q0 64 37.5 98.5t102.5 34.5h161v91q0 37 -22.5 64t-58.5 27h-30q-41 0 -63 -27t-22 -65v-23h-83v37q0 64 45.5 109.5t113.5 45.5h55q66 0 109 -43.5t43 -106.5v-243q0 -28 11 -39.5 t36 -11.5h12zM183 62h40q36 0 69 25t33 78v22h-140q-35 0 -53.5 -16.5t-18.5 -47.5q0 -61 70 -61zM223 538q-31 0 -53.5 22t-22.5 53v15q0 31 22.5 52.5t53.5 21.5h16q31 0 53 -21.5t22 -52.5v-15q0 -31 -22 -53t-53 -22h-16zM226 589h10q10 0 18 8t8 18v10q0 10 -8 18 t-18 8h-10q-10 0 -18 -7.5t-8 -18.5v-10q0 -10 8 -18t18 -8z" />
<glyph unicode="&#xe6;" horiz-adv-x="748" d="M632 195h84v-29q0 -74 -47.5 -123.5t-118.5 -49.5h-55q-45 0 -81.5 19.5t-53.5 47.5q-43 -66 -137 -66h-65q-55 0 -94.5 33.5t-39.5 95.5q0 61 36.5 97t100.5 36h164v91q0 37 -22.5 64t-58.5 27h-27q-41 0 -64.5 -27.5t-23.5 -64.5v-23h-83v37q0 64 44 109.5t112 45.5h52 q36 0 67 -17t47 -43q51 60 123 60h59q70 0 118 -49t48 -120v-78h-306v-99q0 -44 25 -74.5t67 -30.5h38q43 0 67.5 31t24.5 76v24zM188 62h33q36 0 70 24t34 75v26h-143q-32 0 -50.5 -16.5t-18.5 -42.5q0 -66 75 -66zM410 341v-7h223v4q0 44 -24 74.5t-66 30.5h-44 q-41 0 -64.5 -29.5t-24.5 -72.5z" />
<glyph unicode="&#xe7;" horiz-adv-x="469" d="M348 204h86v-40q0 -71 -48 -121t-118 -50v-28q25 -4 42.5 -24t17.5 -47v-16q0 -34 -23 -56.5t-56 -22.5h-17q-33 0 -55.5 22.5t-22.5 56.5v17l55 -1v-14q0 -10 8 -18t19 -8h9q11 0 18.5 8t7.5 18v10q0 10 -7 17.5t-17 8.5h-38v77h-4q-70 0 -118.5 50t-48.5 121v180 q0 71 48.5 121t118.5 50h63q70 0 118 -50t48 -121v-41h-86v30q0 44 -24 74.5t-66 30.5h-43q-42 0 -66 -30.5t-24 -74.5v-159q0 -44 25 -74.5t67 -30.5h41q42 0 66 30.5t24 74.5v30z" />
<glyph unicode="&#xe8;" horiz-adv-x="460" d="M343 195h84v-29q0 -74 -47 -123.5t-118 -49.5h-59q-70 0 -117.5 49t-47.5 122v182q0 70 50 119.5t121 49.5h53q70 0 117.5 -49t47.5 -120v-78h-306v-99q0 -43 25.5 -74t68.5 -31h38q42 0 66 31t24 76v24zM121 342v-8h223v8q0 43 -23.5 72t-66.5 29h-42q-43 0 -67 -29 t-24 -72zM288 542l-160 93l34 57l159 -95z" />
<glyph unicode="&#xe9;" horiz-adv-x="460" d="M343 195h84v-29q0 -74 -47 -123.5t-118 -49.5h-59q-70 0 -117.5 49t-47.5 122v182q0 70 50 119.5t121 49.5h53q70 0 117.5 -49t47.5 -120v-78h-306v-99q0 -43 25.5 -74t68.5 -31h38q42 0 66 31t24 76v24zM121 342v-8h223v8q0 43 -23.5 72t-66.5 29h-42q-43 0 -67 -29 t-24 -72zM205 541l-33 55l158 95l35 -57z" />
<glyph unicode="&#xea;" horiz-adv-x="460" d="M343 195h84v-29q0 -74 -47 -123.5t-118 -49.5h-59q-70 0 -117.5 49t-47.5 122v182q0 70 50 119.5t121 49.5h53q70 0 117.5 -49t47.5 -120v-78h-306v-99q0 -43 25.5 -74t68.5 -31h38q42 0 66 31t24 76v24zM121 342v-8h223v8q0 43 -23.5 72t-66.5 29h-42q-43 0 -67 -29 t-24 -72zM121 553l-31 52l143 87l143 -87l-31 -52l-112 69z" />
<glyph unicode="&#xeb;" horiz-adv-x="460" d="M343 195h84v-29q0 -74 -47 -123.5t-118 -49.5h-59q-70 0 -117.5 49t-47.5 122v182q0 70 50 119.5t121 49.5h53q70 0 117.5 -49t47.5 -120v-78h-306v-99q0 -43 25.5 -74t68.5 -31h38q42 0 66 31t24 76v24zM121 342v-8h223v8q0 43 -23.5 72t-66.5 29h-42q-43 0 -67 -29 t-24 -72zM125 571v82h71v-82h-71zM273 571v82h70v-82h-70z" />
<glyph unicode="&#xec;" d="M54 0v508h88v-508h-88zM154 542l-160 93l34 57l159 -95z" />
<glyph unicode="&#xed;" d="M62 541l-33 55l158 95l35 -57zM54 0v508h88v-508h-88z" />
<glyph unicode="&#xee;" d="M-13 553l-31 52l143 87l143 -87l-31 -52l-112 69zM54 0v508h88v-508h-88z" />
<glyph unicode="&#xef;" d="M139 571v82h70v-82h-70zM-9 571v82h71v-82h-71zM54 0v508h88v-508h-88z" />
<glyph unicode="&#xf0;" horiz-adv-x="459" d="M139 475l-34 52l90 57l-93 75l50 62l115 -91l88 56l35 -52l-72 -46q103 -91 103 -219v-212q0 -69 -47.5 -118t-116.5 -49h-63q-68 0 -115.5 49t-47.5 118v99q0 73 49.5 122.5t121.5 49.5h31q54 0 100 -25q-6 71 -86 140zM244 67q38 0 64 27t26 66v165q-60 24 -99 24h-20 q-41 0 -69 -27.5t-28 -69.5v-91q0 -39 26 -66.5t64 -27.5h36z" />
<glyph unicode="&#xf1;" horiz-adv-x="490" d="M280 436h-28q-47 0 -77.5 -33t-32.5 -74v-329h-88v508h87v-57q36 64 123 64h34q64 0 103 -40.5t39 -102.5v-372h-89v351q0 36 -18.5 60.5t-52.5 24.5zM97 608l24 30q27 37 68 37q30 0 56 -17l29 -20q15 -11 27 -11q16 0 26 14l20 26l49 -39l-25 -33q-25 -35 -65 -35 q-34 0 -55 15l-30 20q-18 12 -28 12q-16 0 -24 -10l-22 -29z" />
<glyph unicode="&#xf2;" horiz-adv-x="477" d="M205 515h67q70 0 118.5 -50t48.5 -121v-180q0 -71 -48.5 -121t-118.5 -50h-67q-70 0 -118.5 50t-48.5 121v180q0 71 48.5 121t118.5 50zM217 69h43q42 0 67 30.5t25 74.5v159q0 44 -25 74.5t-67 30.5h-43q-42 0 -67 -30.5t-25 -74.5v-159q0 -44 25 -74.5t67 -30.5z M292 542l-160 93l34 57l159 -95z" />
<glyph unicode="&#xf3;" horiz-adv-x="477" d="M209 541l-33 55l158 95l35 -57zM205 515h67q70 0 118.5 -50t48.5 -121v-180q0 -71 -48.5 -121t-118.5 -50h-67q-70 0 -118.5 50t-48.5 121v180q0 71 48.5 121t118.5 50zM217 69h43q42 0 67 30.5t25 74.5v159q0 44 -25 74.5t-67 30.5h-43q-42 0 -67 -30.5t-25 -74.5v-159 q0 -44 25 -74.5t67 -30.5z" />
<glyph unicode="&#xf4;" horiz-adv-x="477" d="M125 553l-31 52l143 87l143 -87l-31 -52l-112 69zM205 515h67q70 0 118.5 -50t48.5 -121v-180q0 -71 -48.5 -121t-118.5 -50h-67q-70 0 -118.5 50t-48.5 121v180q0 71 48.5 121t118.5 50zM217 69h43q42 0 67 30.5t25 74.5v159q0 44 -25 74.5t-67 30.5h-43 q-42 0 -67 -30.5t-25 -74.5v-159q0 -44 25 -74.5t67 -30.5z" />
<glyph unicode="&#xf5;" horiz-adv-x="477" d="M205 515h67q70 0 118.5 -50t48.5 -121v-180q0 -71 -48.5 -121t-118.5 -50h-67q-70 0 -118.5 50t-48.5 121v180q0 71 48.5 121t118.5 50zM217 69h43q42 0 67 30.5t25 74.5v159q0 44 -25 74.5t-67 30.5h-43q-42 0 -67 -30.5t-25 -74.5v-159q0 -44 25 -74.5t67 -30.5z M87 608l24 30q27 37 68 37q31 0 56 -17l29 -20q15 -11 27 -11q16 0 26 14l20 26l49 -39l-25 -33q-25 -35 -65 -35q-34 0 -55 15l-30 20q-18 12 -28 12q-16 0 -24 -10l-22 -29z" />
<glyph unicode="&#xf6;" horiz-adv-x="477" d="M277 571v82h70v-82h-70zM129 571v82h71v-82h-71zM205 515h67q70 0 118.5 -50t48.5 -121v-180q0 -71 -48.5 -121t-118.5 -50h-67q-70 0 -118.5 50t-48.5 121v180q0 71 48.5 121t118.5 50zM217 69h43q42 0 67 30.5t25 74.5v159q0 44 -25 74.5t-67 30.5h-43q-42 0 -67 -30.5 t-25 -74.5v-159q0 -44 25 -74.5t67 -30.5z" />
<glyph unicode="&#xf7;" horiz-adv-x="350" d="M133 449v75h82v-75h-82zM15 315v75h320v-75h-320zM133 182v74h82v-74h-82z" />
<glyph unicode="&#xf8;" horiz-adv-x="477" d="M205 515h67q32 0 64 -13l41 80l60 -31l-46 -87q48 -50 48 -120v-180q0 -71 -48.5 -121t-118.5 -50h-67q-30 0 -60 11l-45 -85l-57 31l46 90q-51 49 -51 124v180q0 71 48.5 121t118.5 50zM217 69h43q42 0 67 30.5t25 74.5v159q0 44 -25 74.5t-67 30.5h-43q-42 0 -67 -30.5 t-25 -74.5v-159q0 -44 25 -74.5t67 -30.5z" />
<glyph unicode="&#xf9;" horiz-adv-x="489" d="M209 72h32q41 0 72.5 32t33.5 72v332h87v-508h-84v58q-19 -34 -54 -49.5t-69 -15.5h-44q-54 0 -93.5 41t-39.5 94v380h89v-349q0 -37 18 -62t52 -25zM298 542l-160 93l34 57l159 -95z" />
<glyph unicode="&#xfa;" horiz-adv-x="489" d="M209 72h32q43 0 74.5 34t31.5 74v328h87v-508h-84v58q-19 -34 -54 -49.5t-69 -15.5h-44q-54 0 -93.5 41t-39.5 94v380h89v-349q0 -37 18 -62t52 -25zM215 541l-33 55l158 95l35 -57z" />
<glyph unicode="&#xfb;" horiz-adv-x="489" d="M209 72h32q41 0 72.5 32t33.5 72v332h87v-508h-84v58q-19 -34 -54 -49.5t-69 -15.5h-44q-54 0 -93.5 41t-39.5 94v380h89v-349q0 -37 18 -62t52 -25zM131 553l-31 52l143 87l143 -87l-31 -52l-112 69z" />
<glyph unicode="&#xfc;" horiz-adv-x="489" d="M209 72h32q43 0 74.5 34t31.5 74v328h87v-508h-84v58q-19 -34 -54 -49.5t-69 -15.5h-44q-54 0 -93.5 41t-39.5 94v380h89v-349q0 -37 18 -62t52 -25zM135 571v82h71v-82h-71zM283 571v82h70v-82h-70z" />
<glyph unicode="&#xfd;" horiz-adv-x="418" d="M17 -197v76h65q35 0 54.5 16t31.5 52l17 53h-38l-147 508h88l121 -423l121 423h88l-147 -508l-28 -84q-20 -61 -58 -87t-97 -26h-71zM181 541l-33 55l158 95l35 -57z" />
<glyph unicode="&#xfe;" horiz-adv-x="485" d="M54 -196v899h85v-239q36 51 115 51h53q60 0 100 -42t40 -101v-208q0 -71 -47.5 -121t-117.5 -50h-48q-66 0 -95 35v-224h-85zM243 438q-42 0 -70.5 -32t-30.5 -73v-192q0 -33 24.5 -52.5t61.5 -19.5h42q43 0 66.5 31.5t23.5 75.5v168q0 40 -20.5 67t-57.5 27h-39z" />
<glyph unicode="&#xff;" horiz-adv-x="418" d="M17 -197v76h65q35 0 54.5 16t31.5 52l17 53h-38l-147 508h88l121 -423l121 423h88l-147 -508l-28 -84q-20 -61 -58 -87t-97 -26h-71zM101 571v82h71v-82h-71zM249 571v82h70v-82h-70z" />
<glyph unicode="&#x100;" horiz-adv-x="486" d="M400 0l-51 187h-217l-52 -187h-85l197 703h104l194 -703h-90zM241 599l-89 -334h177zM115 771v68h255v-68h-255z" />
<glyph unicode="&#x101;" horiz-adv-x="466" d="M471 71v-72h-46q-66 0 -89 46q-44 -50 -124 -50h-52q-59 0 -97.5 33.5t-38.5 94.5q0 64 37.5 98.5t102.5 34.5h161v91q0 37 -22.5 64t-58.5 27h-30q-41 0 -63 -27t-22 -65v-23h-83v37q0 64 45.5 109.5t113.5 45.5h55q66 0 109 -43.5t43 -106.5v-243q0 -28 11 -39.5 t36 -11.5h12zM183 62h40q35 0 67.5 23.5t34.5 73.5v28h-140q-35 0 -53.5 -16.5t-18.5 -47.5q0 -61 70 -61zM103 578v68h255v-68h-255z" />
<glyph unicode="&#x102;" horiz-adv-x="486" d="M400 0l-51 187h-217l-52 -187h-85l197 703h104l194 -703h-90zM241 599l-89 -334h177zM228 741q-43 0 -72.5 29.5t-29.5 72.5v24h60v-24q0 -19 13.5 -32.5t32.5 -13.5h21q19 0 32.5 13.5t13.5 32.5v24h61v-24q0 -43 -30 -72.5t-72 -29.5h-30z" />
<glyph unicode="&#x103;" horiz-adv-x="466" d="M471 71v-72h-46q-66 0 -89 46q-44 -50 -124 -50h-52q-59 0 -97.5 33.5t-38.5 94.5q0 64 37.5 98.5t102.5 34.5h161v91q0 37 -22.5 64t-58.5 27h-30q-41 0 -63 -27t-22 -65v-23h-83v37q0 64 45.5 109.5t113.5 45.5h55q66 0 109 -43.5t43 -106.5v-243q0 -28 11 -39.5 t36 -11.5h12zM183 62h40q36 0 69 25t33 78v22h-140q-35 0 -53.5 -16.5t-18.5 -47.5q0 -61 70 -61zM114 650v24h60v-24q0 -18 13.5 -32t32.5 -14h21q19 0 32.5 14t13.5 32v24h61v-24q0 -43 -30 -72.5t-72 -29.5h-30q-43 0 -72.5 29.5t-29.5 72.5z" />
<glyph unicode="&#x104;" horiz-adv-x="486" d="M400 0l-51 187h-217l-52 -187h-85l197 703h104l194 -703v-87h-30q-10 -1 -16.5 -8.5t-6.5 -17.5v-7q0 -10 7.5 -18t18.5 -8h27v-55h-40q-31 0 -53.5 23t-22.5 55v12q0 28 16.5 49t41.5 26v36h-32zM241 599l-89 -334h177z" />
<glyph unicode="&#x105;" horiz-adv-x="466" d="M355 -111q0 29 16.5 49.5t43.5 25.5v35q-57 3 -79 46q-44 -50 -124 -50h-52q-59 0 -97.5 33.5t-38.5 94.5q0 64 37.5 98.5t102.5 34.5h161v91q0 37 -22.5 64t-58.5 27h-30q-41 0 -63 -27t-22 -65v-23h-83v37q0 64 45.5 109.5t113.5 45.5h55q66 0 109 -43.5t43 -106.5 v-243q0 -28 11 -39.5t36 -11.5h12v-158h-30q-10 -1 -16.5 -8.5t-6.5 -17.5v-7q0 -10 8 -18t18 -8h27v-55h-40q-31 0 -53.5 23t-22.5 55v12zM183 62h40q36 0 69 25t33 78v22h-140q-35 0 -53.5 -16.5t-18.5 -47.5q0 -61 70 -61z" />
<glyph unicode="&#x106;" horiz-adv-x="519" d="M394 266h87v-77q0 -83 -58.5 -141t-140.5 -58h-43q-82 0 -140.5 58.5t-58.5 140.5v325q0 82 58.5 140.5t140.5 58.5h43q82 0 140.5 -58.5t58.5 -140.5v-77h-87v75q0 50 -35 85t-84 35h-29q-49 0 -83.5 -35t-34.5 -85v-321q0 -50 34.5 -85t83.5 -35h29q49 0 84 35t35 85 v75zM232 734l-32 56l158 95l34 -58z" />
<glyph unicode="&#x107;" horiz-adv-x="469" d="M208 541l-33 55l158 95l35 -57zM348 204h86v-40q0 -71 -48 -121t-118 -50h-63q-70 0 -118.5 50t-48.5 121v180q0 71 48.5 121t118.5 50h63q70 0 118 -50t48 -121v-41h-86v30q0 44 -24 74.5t-66 30.5h-43q-42 0 -66 -30.5t-24 -74.5v-159q0 -44 25 -74.5t67 -30.5h41 q42 0 66 30.5t24 74.5v30z" />
<glyph unicode="&#x108;" horiz-adv-x="519" d="M394 266h87v-77q0 -83 -58.5 -141t-140.5 -58h-43q-82 0 -140.5 58.5t-58.5 140.5v325q0 82 58.5 140.5t140.5 58.5h43q82 0 140.5 -58.5t58.5 -140.5v-77h-87v75q0 50 -35 85t-84 35h-29q-49 0 -83.5 -35t-34.5 -85v-321q0 -50 34.5 -85t83.5 -35h29q49 0 84 35t35 85 v75zM148 746l-31 52l143 87l143 -87l-31 -52l-112 68z" />
<glyph unicode="&#x109;" horiz-adv-x="469" d="M124 553l-31 52l143 87l143 -87l-31 -52l-112 69zM348 204h86v-40q0 -71 -48 -121t-118 -50h-63q-70 0 -118.5 50t-48.5 121v180q0 71 48.5 121t118.5 50h63q70 0 118 -50t48 -121v-41h-86v30q0 44 -24 74.5t-66 30.5h-43q-42 0 -66 -30.5t-24 -74.5v-159q0 -44 25 -74.5 t67 -30.5h41q42 0 66 30.5t24 74.5v30z" />
<glyph unicode="&#x10a;" horiz-adv-x="519" d="M218 764v82h84v-82h-84zM394 266h87v-77q0 -83 -58.5 -141t-140.5 -58h-43q-82 0 -140.5 58.5t-58.5 140.5v325q0 82 58.5 140.5t140.5 58.5h43q82 0 140.5 -58.5t58.5 -140.5v-77h-87v75q0 50 -35 85t-84 35h-29q-49 0 -83.5 -35t-34.5 -85v-321q0 -50 34.5 -85 t83.5 -35h29q49 0 84 35t35 85v75z" />
<glyph unicode="&#x10b;" horiz-adv-x="469" d="M348 204h86v-40q0 -71 -48 -121t-118 -50h-63q-70 0 -118.5 50t-48.5 121v180q0 71 48.5 121t118.5 50h63q70 0 118 -50t48 -121v-41h-86v30q0 44 -24 74.5t-66 30.5h-43q-42 0 -66 -30.5t-24 -74.5v-159q0 -44 25 -74.5t67 -30.5h41q42 0 66 30.5t24 74.5v30zM194 571 v82h84v-82h-84z" />
<glyph unicode="&#x10c;" horiz-adv-x="519" d="M394 266h87v-77q0 -83 -58.5 -141t-140.5 -58h-43q-82 0 -140.5 58.5t-58.5 140.5v325q0 82 58.5 140.5t140.5 58.5h43q82 0 140.5 -58.5t58.5 -140.5v-77h-87v75q0 50 -35 85t-84 35h-29q-49 0 -83.5 -35t-34.5 -85v-321q0 -50 34.5 -85t83.5 -35h29q49 0 84 35t35 85 v75zM260 737l-143 87l30 52l113 -69l112 69l31 -52z" />
<glyph unicode="&#x10d;" horiz-adv-x="469" d="M236 544l-143 87l30 52l113 -68l112 68l31 -52zM348 204h86v-40q0 -71 -48 -121t-118 -50h-63q-70 0 -118.5 50t-48.5 121v180q0 71 48.5 121t118.5 50h63q70 0 118 -50t48 -121v-41h-86v30q0 44 -24 74.5t-66 30.5h-43q-42 0 -66 -30.5t-24 -74.5v-159q0 -44 25 -74.5 t67 -30.5h41q42 0 66 30.5t24 74.5v30z" />
<glyph unicode="&#x10e;" horiz-adv-x="533" d="M492 199q0 -83 -58 -141t-141 -58h-239v703h239q83 0 141 -58.5t58 -140.5v-305zM142 624v-545h144q49 0 83.5 36t34.5 86v301q0 49 -35 85.5t-83 36.5h-144zM260 737l-143 87l30 52l113 -69l112 69l31 -52z" />
<glyph unicode="&#x10f;" horiz-adv-x="554" d="M430 703v-703h-84v44q-37 -51 -115 -51h-52q-61 0 -101 42t-40 101v208q0 71 47 121t118 50h48q64 0 94 -34v222h85zM203 69h39q42 0 71.5 34.5t29.5 76.5v190q-1 31 -25.5 49.5t-60.5 18.5h-42q-43 0 -66.5 -31t-23.5 -76v-168q0 -40 20 -67t58 -27zM562 699l-27 -171 l-70 8l25 172z" />
<glyph unicode="&#x110;" horiz-adv-x="550" d="M19 316v72h51v315h239q83 0 141 -58.5t58 -140.5v-305q0 -83 -58 -141t-141 -58h-239v316h-51zM158 624v-236h90v-72h-90v-237h144q49 0 83.5 36t34.5 86v301q0 49 -35 85.5t-83 36.5h-144z" />
<glyph unicode="&#x111;" horiz-adv-x="496" d="M430 703v-67h52v-58h-52v-578h-84v44q-37 -51 -115 -51h-52q-61 0 -101 42t-40 101v208q0 71 47 121t118 50h48q64 0 94 -34v97h-89v58h89v67h85zM203 69h39q42 0 71.5 34.5t29.5 76.5v190q-1 31 -25.5 49.5t-60.5 18.5h-42q-43 0 -66.5 -31t-23.5 -76v-168q0 -40 20 -67 t58 -27z" />
<glyph unicode="&#x112;" horiz-adv-x="435" d="M54 0v703h349v-79h-261v-233h249v-79h-249v-233h261v-79h-349zM98 771v68h255v-68h-255z" />
<glyph unicode="&#x113;" horiz-adv-x="460" d="M343 195h84v-29q0 -74 -47 -123.5t-118 -49.5h-59q-70 0 -117.5 49t-47.5 122v182q0 70 50 119.5t121 49.5h53q70 0 117.5 -49t47.5 -120v-78h-306v-99q0 -43 25.5 -74t68.5 -31h38q42 0 66 31t24 76v24zM121 342v-8h223v8q0 43 -23.5 72t-66.5 29h-42q-43 0 -67 -29 t-24 -72zM105 578v68h255v-68h-255z" />
<glyph unicode="&#x114;" horiz-adv-x="435" d="M54 0v703h349v-79h-261v-233h249v-79h-249v-233h261v-79h-349zM109 843v24h60v-24q0 -19 13.5 -32.5t32.5 -13.5h21q19 0 32.5 13.5t13.5 32.5v24h61v-24q0 -43 -30 -72.5t-72 -29.5h-30q-43 0 -72.5 29.5t-29.5 72.5z" />
<glyph unicode="&#x115;" horiz-adv-x="460" d="M343 195h84v-29q0 -74 -47 -123.5t-118 -49.5h-59q-70 0 -117.5 49t-47.5 122v182q0 70 50 119.5t121 49.5h53q70 0 117.5 -49t47.5 -120v-78h-306v-99q0 -43 25.5 -74t68.5 -31h38q42 0 66 31t24 76v24zM121 342v-8h223v8q0 43 -23.5 72t-66.5 29h-42q-43 0 -67 -29 t-24 -72zM218 548q-43 0 -72.5 29.5t-29.5 72.5v24h60v-24q0 -18 13.5 -32t32.5 -14h21q19 0 32.5 14t13.5 32v24h61v-24q0 -43 -30 -72.5t-72 -29.5h-30z" />
<glyph unicode="&#x116;" horiz-adv-x="435" d="M184 764v82h84v-82h-84zM54 0v703h349v-79h-261v-233h249v-79h-249v-233h261v-79h-349z" />
<glyph unicode="&#x117;" horiz-adv-x="460" d="M343 195h84v-29q0 -74 -47 -123.5t-118 -49.5h-59q-70 0 -117.5 49t-47.5 122v182q0 70 50 119.5t121 49.5h53q70 0 117.5 -49t47.5 -120v-78h-306v-99q0 -43 25.5 -74t68.5 -31h38q42 0 66 31t24 76v24zM121 342v-8h223v8q0 43 -23.5 72t-66.5 29h-42q-43 0 -67 -29 t-24 -72zM191 571v82h84v-82h-84z" />
<glyph unicode="&#x118;" horiz-adv-x="435" d="M54 0v703h349v-79h-261v-233h249v-79h-249v-233h261v-166h-30q-10 -1 -16.5 -8.5t-6.5 -17.5v-7q0 -10 8 -18t18 -8h27v-55h-40q-31 0 -53.5 23t-22.5 55v12q0 29 16.5 49.5t43.5 25.5v36h-293z" />
<glyph unicode="&#x119;" horiz-adv-x="460" d="M343 195h84v-29q0 -62 -34 -107.5t-88 -59.5v-86h-30q-10 -1 -16.5 -8.5t-6.5 -17.5v-7q0 -10 8 -18t18 -8h27v-55h-40q-31 0 -53.5 23t-22.5 55v12q0 29 16.5 49.5t43.5 25.5v29h-46q-70 0 -117.5 49t-47.5 122v182q0 70 50 119.5t121 49.5h53q70 0 117.5 -49t47.5 -120 v-78h-306v-99q0 -43 25.5 -74t68.5 -31h38q42 0 66 31t24 76v24zM121 342v-8h223v8q0 43 -23.5 72t-66.5 29h-42q-43 0 -67 -29t-24 -72z" />
<glyph unicode="&#x11a;" horiz-adv-x="435" d="M54 0v703h349v-79h-261v-233h249v-79h-249v-233h261v-79h-349zM226 737l-143 87l30 52l113 -69l112 69l31 -52z" />
<glyph unicode="&#x11b;" horiz-adv-x="460" d="M343 195h84v-29q0 -74 -47 -123.5t-118 -49.5h-59q-70 0 -117.5 49t-47.5 122v182q0 70 50 119.5t121 49.5h53q70 0 117.5 -49t47.5 -120v-78h-306v-99q0 -43 25.5 -74t68.5 -31h38q42 0 66 31t24 76v24zM121 342v-8h223v8q0 43 -23.5 72t-66.5 29h-42q-43 0 -67 -29 t-24 -72zM233 544l-143 87l30 52l113 -68l112 68l31 -52z" />
<glyph unicode="&#x11c;" horiz-adv-x="527" d="M151 746l-31 52l143 87l143 -87l-31 -52l-112 68zM487 463h-87v49q0 49 -35 84.5t-84 35.5h-35q-49 0 -83.5 -35t-34.5 -85v-322q0 -50 34.5 -85t83.5 -35h38q49 0 83.5 35t34.5 85v81h-124v78h210v-160q0 -83 -58 -141t-141 -58h-50q-82 0 -140.5 58.5t-58.5 140.5v325 q0 82 58.5 140.5t140.5 58.5h48q83 0 141.5 -58.5t58.5 -140.5v-51z" />
<glyph unicode="&#x11d;" horiz-adv-x="473" d="M463 434h-51q-6 0 -18 -2q16 -32 16 -67v-53q0 -62 -42 -106t-107 -44h-76q-27 0 -47 7q-4 -13 -4 -36v-7q0 -48 57 -48h128q60 0 99 -37.5t39 -92.5v-16q0 -63 -42.5 -100t-128.5 -37h-127q-70 0 -108 37.5t-38 82.5v32q0 37 17.5 64.5t47.5 40.5q-20 29 -20 60v17 q0 55 18 79q-39 42 -39 103v54q0 62 42.5 106t107.5 44h77q43 0 78 -24q27 16 58 16h63v-73zM202 445q-37 0 -59 -25t-22 -63v-37q0 -40 23 -64t58 -24h42q38 0 59.5 24.5t21.5 63.5v37q0 38 -22 63t-59 25h-42zM170 -131h107q94 0 94 67v8q0 24 -19.5 41t-48.5 17h-146 q-59 -3 -59 -60v-11q0 -24 18 -43t54 -19zM118 553l-31 52l143 87l143 -87l-31 -52l-112 69z" />
<glyph unicode="&#x11e;" horiz-adv-x="527" d="M487 463h-87v49q0 49 -35 84.5t-84 35.5h-35q-49 0 -83.5 -35t-34.5 -85v-322q0 -50 34.5 -85t83.5 -35h38q49 0 83.5 35t34.5 85v81h-124v78h210v-160q0 -83 -58 -141t-141 -58h-50q-82 0 -140.5 58.5t-58.5 140.5v325q0 82 58.5 140.5t140.5 58.5h48q83 0 141.5 -58.5 t58.5 -140.5v-51zM248 741q-43 0 -72.5 29.5t-29.5 72.5v24h60v-24q0 -19 13.5 -32.5t32.5 -13.5h21q19 0 32.5 13.5t13.5 32.5v24h61v-24q0 -43 -30 -72.5t-72 -29.5h-30z" />
<glyph unicode="&#x11f;" horiz-adv-x="473" d="M463 434h-51q-6 0 -18 -2q16 -32 16 -67v-53q0 -62 -42 -106t-107 -44h-76q-27 0 -47 7q-4 -13 -4 -36v-7q0 -48 57 -48h128q60 0 99 -37.5t39 -92.5v-16q0 -63 -42.5 -100t-128.5 -37h-127q-70 0 -108 37.5t-38 82.5v32q0 37 17.5 64.5t47.5 40.5q-20 29 -20 60v17 q0 55 18 79q-39 42 -39 103v54q0 62 42.5 106t107.5 44h77q43 0 78 -24q27 16 58 16h63v-73zM202 445q-37 0 -59 -25t-22 -63v-37q0 -40 23 -64t58 -24h42q38 0 59.5 24.5t21.5 63.5v37q0 38 -22 63t-59 25h-42zM170 -131h107q94 0 94 67v8q0 24 -19.5 41t-48.5 17h-146 q-59 -3 -59 -60v-11q0 -24 18 -43t54 -19zM113 650v24h60v-24q0 -18 13.5 -32t32.5 -14h21q19 0 32.5 14t13.5 32v24h61v-24q0 -43 -30 -72.5t-72 -29.5h-30q-43 0 -72.5 29.5t-29.5 72.5z" />
<glyph unicode="&#x120;" horiz-adv-x="527" d="M221 764v82h84v-82h-84zM487 463h-87v49q0 49 -35 84.5t-84 35.5h-35q-49 0 -83.5 -35t-34.5 -85v-322q0 -50 34.5 -85t83.5 -35h38q49 0 83.5 35t34.5 85v81h-124v78h210v-160q0 -83 -58 -141t-141 -58h-50q-82 0 -140.5 58.5t-58.5 140.5v325q0 82 58.5 140.5 t140.5 58.5h48q83 0 141.5 -58.5t58.5 -140.5v-51z" />
<glyph unicode="&#x121;" horiz-adv-x="473" d="M463 434h-51q-6 0 -18 -2q16 -32 16 -67v-53q0 -62 -42 -106t-107 -44h-76q-27 0 -47 7q-4 -13 -4 -36v-7q0 -48 57 -48h128q60 0 99 -37.5t39 -92.5v-16q0 -63 -42.5 -100t-128.5 -37h-127q-70 0 -108 37.5t-38 82.5v32q0 37 17.5 64.5t47.5 40.5q-20 29 -20 60v17 q0 55 18 79q-39 42 -39 103v54q0 62 42.5 106t107.5 44h77q43 0 78 -24q27 16 58 16h63v-73zM202 445q-37 0 -59 -25t-22 -63v-37q0 -40 23 -64t58 -24h42q38 0 59.5 24.5t21.5 63.5v37q0 38 -22 63t-59 25h-42zM170 -131h107q94 0 94 67v8q0 24 -19.5 41t-48.5 17h-146 q-59 -3 -59 -60v-11q0 -24 18 -43t54 -19zM188 571v82h84v-82h-84z" />
<glyph unicode="&#x122;" horiz-adv-x="527" d="M239 -28l70 -17l-41 -150l-69 17zM487 463h-87v49q0 49 -35 84.5t-84 35.5h-35q-49 0 -83.5 -35t-34.5 -85v-322q0 -50 34.5 -85t83.5 -35h38q49 0 83.5 35t34.5 85v81h-124v78h210v-160q0 -83 -58 -141t-141 -58h-50q-82 0 -140.5 58.5t-58.5 140.5v325q0 82 58.5 140.5 t140.5 58.5h48q83 0 141.5 -58.5t58.5 -140.5v-51z" />
<glyph unicode="&#x123;" horiz-adv-x="473" d="M463 434h-51q-6 0 -18 -2q16 -32 16 -67v-53q0 -62 -42 -106t-107 -44h-76q-27 0 -47 7q-4 -13 -4 -36v-7q0 -48 57 -48h128q60 0 99 -37.5t39 -92.5v-16q0 -63 -42.5 -100t-128.5 -37h-127q-70 0 -108 37.5t-38 82.5v32q0 37 17.5 64.5t47.5 40.5q-20 29 -20 60v17 q0 55 18 79q-39 42 -39 103v54q0 62 42.5 106t107.5 44h77q43 0 78 -24q27 16 58 16h63v-73zM202 445q-37 0 -59 -25t-22 -63v-37q0 -40 23 -64t58 -24h42q38 0 59.5 24.5t21.5 63.5v37q0 38 -22 63t-59 25h-42zM170 -131h107q94 0 94 67v8q0 24 -19.5 41t-48.5 17h-146 q-59 -3 -59 -60v-11q0 -24 18 -43t54 -19zM263 544l-70 17l41 150l69 -17z" />
<glyph unicode="&#x124;" horiz-adv-x="550" d="M54 0v703h88v-312h266v312h87v-703h-87v312h-266v-312h-88zM163 746l-31 52l143 87l143 -87l-31 -52l-112 68z" />
<glyph unicode="&#x125;" horiz-adv-x="490" d="M280 436h-34q-41 0 -71.5 -32t-32.5 -72v-332h-88v703h88v-252q18 34 52 49t70 15h34q64 0 103 -40.5t39 -102.5v-372h-89v349q0 36 -18.5 61.5t-52.5 25.5zM-13 730l-31 52l143 87l143 -87l-31 -52l-112 68z" />
<glyph unicode="&#x126;" horiz-adv-x="567" d="M12 516v64h50v123h88v-123h133h133v123h87v-123h52v-64h-52v-516h-87v312h-266v-312h-88v516h-50zM150 516v-125h266v125h-266z" />
<glyph unicode="&#x127;" horiz-adv-x="501" d="M15 578v58h50v67h88v-67h88v-58h-88v-127q18 34 52 49t70 15h34q64 0 103 -40.5t39 -102.5v-372h-89v349q0 36 -18.5 61.5t-52.5 25.5h-34q-41 0 -71.5 -32t-32.5 -72v-332h-88v578h-50z" />
<glyph unicode="&#x128;" d="M54 0v703h88v-703h-88zM-51 801l24 30q27 37 68 37q30 0 56 -17l29 -20q15 -11 27 -11q16 0 26 14l20 26l49 -39l-25 -33q-25 -35 -65 -35q-34 0 -55 15l-30 20q-18 12 -28 12q-16 0 -24 -10l-22 -29z" />
<glyph unicode="&#x129;" d="M54 0v508h88v-508h-88zM-51 608l24 30q27 37 68 37q30 0 56 -17l29 -20q15 -11 27 -11q16 0 26 14l20 26l49 -39l-25 -33q-25 -35 -65 -35q-34 0 -55 15l-30 20q-18 12 -28 12q-16 0 -24 -10l-22 -29z" />
<glyph unicode="&#x12a;" d="M54 0v703h88v-703h-88zM-29 771v68h255v-68h-255z" />
<glyph unicode="&#x12b;" d="M54 0v508h88v-508h-88zM-29 578v68h255v-68h-255z" />
<glyph unicode="&#x12c;" d="M54 0v703h88v-703h-88zM-18 843v24h60v-24q0 -19 13.5 -32.5t32.5 -13.5h21q19 0 32.5 13.5t13.5 32.5v24h61v-24q0 -43 -30 -72.5t-72 -29.5h-30q-43 0 -72.5 29.5t-29.5 72.5z" />
<glyph unicode="&#x12d;" d="M54 0v508h88v-508h-88zM-18 650v24h60v-24q0 -18 13.5 -32t32.5 -14h21q19 0 32.5 14t13.5 32v24h61v-24q0 -43 -30 -72.5t-72 -29.5h-30q-43 0 -72.5 29.5t-29.5 72.5z" />
<glyph unicode="&#x12e;" d="M54 0v703h88v-790h-30q-10 -1 -16.5 -8.5t-6.5 -17.5v-7q0 -10 7.5 -18t18.5 -8h27v-55h-40q-31 0 -53.5 23t-22.5 55v12q0 29 16.5 49.5t43.5 25.5v36h-32z" />
<glyph unicode="&#x12f;" d="M54 0v508h88v-595h-30q-10 -1 -16.5 -8.5t-6.5 -17.5v-7q0 -10 7.5 -18t18.5 -8h27v-55h-40q-31 0 -53.5 23t-22.5 55v12q0 29 16.5 49.5t43.5 25.5v36h-32zM54 569v84h88v-84h-88z" />
<glyph unicode="&#x130;" d="M54 0v703h88v-703h-88zM57 764v82h84v-82h-84z" />
<glyph unicode="&#x131;" d="M54 0v508h88v-508h-88z" />
<glyph unicode="&#x132;" horiz-adv-x="473" d="M54 0v703h88v-703h-88zM189 0v79h35q52 0 81.5 35.5t29.5 85.5v503h88v-520q0 -78 -50.5 -130.5t-130.5 -52.5h-53z" />
<glyph unicode="&#x133;" horiz-adv-x="396" d="M54 0v508h88v-508h-88zM54 569v84h88v-84h-88zM135 -196v75h49q33 0 51 23t18 60v546h88v-566q0 -58 -38.5 -98t-95.5 -40h-72zM253 569v84h88v-84h-88z" />
<glyph unicode="&#x134;" horiz-adv-x="276" d="M-7 0v79h35q52 0 81.5 35.5t29.5 85.5v503h88v-520q0 -78 -50.5 -130.5t-130.5 -52.5h-53zM71 746l-31 52l143 87l143 -87l-31 -52l-112 68z" />
<glyph unicode="&#x135;" horiz-adv-x="200" d="M-61 -196v75h49q33 0 51 23t18 60v546h88v-566q0 -58 -38.5 -98t-95.5 -40h-72zM-10 553l-31 52l143 87l143 -87l-31 -52l-112 69z" />
<glyph unicode="&#x136;" horiz-adv-x="496" d="M237 -28l70 -17l-41 -150l-69 17zM54 0v703h88v-312h100l152 312h93l-166 -346l190 -357h-99l-169 312h-101v-312h-88z" />
<glyph unicode="&#x137;" horiz-adv-x="434" d="M54 0v703h88v-410h79l109 215h93l-126 -250l142 -258h-95l-122 218h-80v-218h-88zM204 -28l70 -17l-41 -150l-69 17z" />
<glyph unicode="&#x139;" horiz-adv-x="388" d="M71 734l-32 56l158 95l34 -58zM54 0v703h88v-624h256v-79h-344z" />
<glyph unicode="&#x13a;" d="M71 716l-33 55l158 95l35 -57zM54 0v703h88v-703h-88z" />
<glyph unicode="&#x13b;" horiz-adv-x="388" d="M201 -28l70 -17l-41 -150l-69 17zM54 0v703h88v-624h256v-79h-344z" />
<glyph unicode="&#x13c;" d="M75 -28l70 -17l-41 -150l-69 17zM54 0v703h88v-703h-88z" />
<glyph unicode="&#x13d;" horiz-adv-x="395" d="M273 699l-27 -171l-70 8l25 172zM54 0v703h88v-624h256v-79h-344z" />
<glyph unicode="&#x13e;" horiz-adv-x="266" d="M273 699l-27 -171l-70 8l25 172zM54 0v703h88v-703h-88z" />
<glyph unicode="&#x13f;" horiz-adv-x="406" d="M54 0v703h88v-624h256v-79h-344zM277 307v97h83v-97h-83z" />
<glyph unicode="&#x140;" horiz-adv-x="284" d="M54 0v703h88v-703h-88zM204 208v97h83v-97h-83z" />
<glyph unicode="&#x141;" horiz-adv-x="421" d="M41 263l-22 61l68 27v352h88v-317l148 59l23 -59l-171 -69v-238h256v-79h-344v281z" />
<glyph unicode="&#x142;" horiz-adv-x="217" d="M21 280l-21 55l61 24v344h88v-309l46 18l22 -53l-68 -28v-331h-88v296z" />
<glyph unicode="&#x143;" horiz-adv-x="549" d="M247 734l-32 56l158 95l34 -58zM54 0v703h82l274 -505v505h84v-703h-67l-289 528v-528h-84z" />
<glyph unicode="&#x144;" horiz-adv-x="490" d="M280 436h-28q-47 0 -77.5 -33t-32.5 -74v-329h-88v508h87v-57q36 64 123 64h34q64 0 103 -40.5t39 -102.5v-372h-89v351q0 36 -18.5 60.5t-52.5 24.5zM219 541l-33 55l158 95l35 -57z" />
<glyph unicode="&#x145;" horiz-adv-x="549" d="M252 -28l70 -17l-41 -150l-69 17zM54 0v703h82l274 -505v505h84v-703h-67l-289 528v-528h-84z" />
<glyph unicode="&#x146;" horiz-adv-x="490" d="M280 436h-28q-47 0 -77.5 -33t-32.5 -74v-329h-88v508h87v-57q36 64 123 64h34q64 0 103 -40.5t39 -102.5v-372h-89v351q0 36 -18.5 60.5t-52.5 24.5zM223 -28l70 -17l-41 -150l-69 17z" />
<glyph unicode="&#x147;" horiz-adv-x="549" d="M54 0v703h82l274 -505v505h84v-703h-67l-289 528v-528h-84zM276 737l-143 87l30 52l113 -69l112 69l31 -52z" />
<glyph unicode="&#x148;" horiz-adv-x="490" d="M280 436h-28q-47 0 -77.5 -33t-32.5 -74v-329h-88v508h87v-57q36 64 123 64h34q64 0 103 -40.5t39 -102.5v-372h-89v351q0 36 -18.5 60.5t-52.5 24.5zM247 544l-143 87l30 52l113 -68l112 68l31 -52z" />
<glyph unicode="&#x149;" horiz-adv-x="595" d="M385 436h-28q-47 0 -77.5 -33t-32.5 -74v-329h-88v508h87v-57q36 64 123 64h34q64 0 103 -40.5t39 -102.5v-372h-89v351q0 36 -18.5 60.5t-52.5 24.5zM109 538h-74v232h74v-232z" />
<glyph unicode="&#x14a;" horiz-adv-x="546" d="M292 0v76h25q40 0 64 22.5t30 58.5l-273 402v-559h-84v703h82l277 -416v416h84v-539q0 -70 -45 -117t-117 -47h-43z" />
<glyph unicode="&#x14b;" horiz-adv-x="490" d="M234 -196v75h49q33 0 51 23t18 60v389q0 36 -19 60.5t-53 24.5h-28q-47 0 -77.5 -33t-32.5 -74v-329h-88v508h87v-57q36 64 123 64h34q64 0 103 -40.5t39 -102.5v-430q0 -58 -38.5 -98t-95.5 -40h-72z" />
<glyph unicode="&#x14c;" horiz-adv-x="521" d="M40 514q0 82 58 140.5t141 58.5h43q82 0 140.5 -58.5t58.5 -140.5v-325q0 -82 -58.5 -140.5t-140.5 -58.5h-43q-83 0 -141 58t-58 141v325zM128 512v-321q0 -50 34.5 -85t83.5 -35h29q49 0 83.5 35t34.5 85v321q0 50 -34.5 85t-83.5 35h-29q-49 0 -83.5 -35t-34.5 -85z M133 771v68h255v-68h-255z" />
<glyph unicode="&#x14d;" horiz-adv-x="477" d="M109 578v68h255v-68h-255zM205 515h67q70 0 118.5 -50t48.5 -121v-180q0 -71 -48.5 -121t-118.5 -50h-67q-70 0 -118.5 50t-48.5 121v180q0 71 48.5 121t118.5 50zM217 69h43q42 0 67 30.5t25 74.5v159q0 44 -25 74.5t-67 30.5h-43q-42 0 -67 -30.5t-25 -74.5v-159 q0 -44 25 -74.5t67 -30.5z" />
<glyph unicode="&#x14e;" horiz-adv-x="521" d="M40 514q0 82 58 140.5t141 58.5h43q82 0 140.5 -58.5t58.5 -140.5v-325q0 -82 -58.5 -140.5t-140.5 -58.5h-43q-83 0 -141 58t-58 141v325zM128 512v-321q0 -50 34.5 -85t83.5 -35h29q49 0 83.5 35t34.5 85v321q0 50 -34.5 85t-83.5 35h-29q-49 0 -83.5 -35t-34.5 -85z M246 741q-43 0 -72.5 29.5t-29.5 72.5v24h60v-24q0 -19 13.5 -32.5t32.5 -13.5h21q19 0 32.5 13.5t13.5 32.5v24h61v-24q0 -43 -30 -72.5t-72 -29.5h-30z" />
<glyph unicode="&#x14f;" horiz-adv-x="477" d="M205 515h67q70 0 118.5 -50t48.5 -121v-180q0 -71 -48.5 -121t-118.5 -50h-67q-70 0 -118.5 50t-48.5 121v180q0 71 48.5 121t118.5 50zM217 69h43q42 0 67 30.5t25 74.5v159q0 44 -25 74.5t-67 30.5h-43q-42 0 -67 -30.5t-25 -74.5v-159q0 -44 25 -74.5t67 -30.5z M222 548q-43 0 -72.5 29.5t-29.5 72.5v24h60v-24q0 -18 13.5 -32t32.5 -14h21q19 0 32.5 14t13.5 32v24h61v-24q0 -43 -30 -72.5t-72 -29.5h-30z" />
<glyph unicode="&#x150;" horiz-adv-x="521" d="M322 737l-54 29l66 111l54 -30zM190 741l-53 29l66 110l54 -29zM40 514q0 82 58 140.5t141 58.5h43q82 0 140.5 -58.5t58.5 -140.5v-325q0 -82 -58.5 -140.5t-140.5 -58.5h-43q-83 0 -141 58t-58 141v325zM128 512v-321q0 -50 34.5 -85t83.5 -35h29q49 0 83.5 35t34.5 85 v321q0 50 -34.5 85t-83.5 35h-29q-49 0 -83.5 -35t-34.5 -85z" />
<glyph unicode="&#x151;" horiz-adv-x="477" d="M311 543l-54 29l66 111l54 -30zM179 547l-53 29l66 110l54 -29zM205 515h67q70 0 118.5 -50t48.5 -121v-180q0 -71 -48.5 -121t-118.5 -50h-67q-70 0 -118.5 50t-48.5 121v180q0 71 48.5 121t118.5 50zM217 69h43q42 0 67 30.5t25 74.5v159q0 44 -25 74.5t-67 30.5h-43 q-42 0 -67 -30.5t-25 -74.5v-159q0 -44 25 -74.5t67 -30.5z" />
<glyph unicode="&#x152;" horiz-adv-x="717" d="M236 0q-81 0 -138.5 57.5t-57.5 138.5v310q0 82 58 139.5t139 57.5h449v-79h-255v-233h243v-79h-243v-233h255v-79h-450zM128 199q0 -50 34.5 -85t83.5 -35h101v545h-101q-49 0 -83.5 -35t-34.5 -84v-306z" />
<glyph unicode="&#x153;" horiz-adv-x="777" d="M272 515q39 0 72 -19t51 -52q19 33 52.5 52t72.5 19h59q70 0 118 -49t48 -120v-78h-306v-99q0 -44 25 -74.5t67 -30.5h38q43 0 68 31t25 76v24h83v-29q0 -74 -47 -123.5t-117 -49.5h-61q-39 0 -72.5 19t-51.5 52q-18 -33 -51.5 -52t-72.5 -19h-67q-70 0 -118.5 50 t-48.5 121v180q0 71 48.5 121t118.5 50h67zM217 69h43q42 0 67 30.5t25 74.5v159q0 44 -25 74.5t-67 30.5h-43q-42 0 -67 -30.5t-25 -74.5v-159q0 -44 25 -74.5t67 -30.5zM439 342v-8h223v8q0 43 -24 72t-67 29h-41q-43 0 -67 -29t-24 -72z" />
<glyph unicode="&#x154;" horiz-adv-x="510" d="M406 0l-136 280h-128v-280h-88v703h221q79 0 136 -56.5t57 -136.5v-37q0 -54 -29.5 -102t-79.5 -72l146 -299h-99zM142 358h127q46 0 78 32.5t32 78.5v44q0 46 -32 78.5t-78 32.5h-127v-266zM207 734l-32 56l158 95l34 -58z" />
<glyph unicode="&#x155;" horiz-adv-x="312" d="M54 0v508h84v-68q17 34 52.5 51t71.5 17h41v-79h-40q-54 0 -86.5 -36.5t-34.5 -89.5v-303h-88zM143 541l-33 55l158 95l35 -57z" />
<glyph unicode="&#x156;" horiz-adv-x="510" d="M406 0l-136 280h-128v-280h-88v703h221q79 0 136 -56.5t57 -136.5v-37q0 -54 -29.5 -102t-79.5 -72l146 -299h-99zM142 358h127q46 0 78 32.5t32 78.5v44q0 46 -32 78.5t-78 32.5h-127v-266zM237 -28l70 -17l-41 -150l-69 17z" />
<glyph unicode="&#x157;" horiz-adv-x="312" d="M54 0v508h84v-68q17 34 52.5 51t71.5 17h41v-79h-40q-55 0 -88 -38.5t-33 -92.5v-298h-88zM75 -28l70 -17l-41 -150l-69 17z" />
<glyph unicode="&#x158;" horiz-adv-x="510" d="M406 0l-136 280h-128v-280h-88v703h221q79 0 136 -56.5t57 -136.5v-37q0 -54 -29.5 -102t-79.5 -72l146 -299h-99zM142 358h127q46 0 78 32.5t32 78.5v44q0 46 -32 78.5t-78 32.5h-127v-266zM235 737l-143 87l30 52l113 -69l112 69l31 -52z" />
<glyph unicode="&#x159;" horiz-adv-x="312" d="M54 0v508h84v-68q17 34 52.5 51t71.5 17h41v-79h-40q-54 0 -86.5 -36.5t-34.5 -89.5v-303h-88zM171 544l-143 87l30 52l113 -68l112 68l31 -52z" />
<glyph unicode="&#x15a;" horiz-adv-x="502" d="M33 179v46h86v-45q0 -46 31.5 -78.5t77.5 -32.5h44q49 0 79 33t30 82v19q0 50 -29.5 80.5t-93.5 30.5h-19q-91 0 -145 55t-54 131v33q0 76 55 128t134 52h49q78 0 129.5 -55t51.5 -135v-47h-85v46q0 47 -30 79.5t-76 32.5h-34q-44 0 -75 -30t-31 -74v-21q0 -50 31 -83 t92 -33h21q97 0 147 -51t50 -134v-28q0 -80 -52.5 -135t-133.5 -55h-63q-79 0 -133 55t-54 134zM221 734l-32 56l158 95l34 -58z" />
<glyph unicode="&#x15b;" horiz-adv-x="452" d="M199 541l-33 55l158 95l35 -57zM31 128v42h86v-28q0 -34 23.5 -55t66.5 -21h41q40 0 63 19t23 49v7q0 35 -25 55t-74 20h-18q-82 0 -129 37.5t-47 101.5v18q0 60 44.5 101t114.5 41h57q68 0 112 -40.5t44 -97.5v-35h-86v26q0 33 -22.5 53.5t-62.5 20.5h-30q-40 0 -62 -19 t-22 -49v-6q0 -73 100 -73h19q79 0 127.5 -37.5t48.5 -100.5v-25q0 -58 -45.5 -98.5t-110.5 -40.5h-79q-68 0 -112.5 39.5t-44.5 95.5z" />
<glyph unicode="&#x15c;" horiz-adv-x="502" d="M33 179v46h86v-45q0 -46 31.5 -78.5t77.5 -32.5h44q49 0 79 33t30 82v19q0 50 -29.5 80.5t-93.5 30.5h-19q-91 0 -145 55t-54 131v33q0 76 55 128t134 52h49q78 0 129.5 -55t51.5 -135v-47h-85v46q0 47 -30 79.5t-76 32.5h-34q-44 0 -75 -30t-31 -74v-21q0 -50 31 -83 t92 -33h21q97 0 147 -51t50 -134v-28q0 -80 -52.5 -135t-133.5 -55h-63q-79 0 -133 55t-54 134zM137 746l-31 52l143 87l143 -87l-31 -52l-112 68z" />
<glyph unicode="&#x15d;" horiz-adv-x="452" d="M115 553l-31 52l143 87l143 -87l-31 -52l-112 69zM31 128v42h86v-28q0 -34 23.5 -55t66.5 -21h41q40 0 63 19t23 49v7q0 35 -25 55t-74 20h-18q-82 0 -129 37.5t-47 101.5v18q0 60 44.5 101t114.5 41h57q68 0 112 -40.5t44 -97.5v-35h-86v26q0 33 -22.5 53.5t-62.5 20.5 h-30q-40 0 -62 -19t-22 -49v-6q0 -73 100 -73h19q79 0 127.5 -37.5t48.5 -100.5v-25q0 -58 -45.5 -98.5t-110.5 -40.5h-79q-68 0 -112.5 39.5t-44.5 95.5z" />
<glyph unicode="&#x15e;" horiz-adv-x="502" d="M33 179v46h86v-45q0 -46 31.5 -78.5t77.5 -32.5h44q49 0 79 33t30 82v19q0 50 -29.5 80.5t-93.5 30.5h-19q-91 0 -145 55t-54 131v33q0 76 55 128t134 52h49q78 0 129.5 -55t51.5 -135v-47h-85v46q0 47 -30 79.5t-76 32.5h-34q-44 0 -75 -30t-31 -74v-21q0 -50 31 -83 t92 -33h21q97 0 147 -51t50 -134v-28q0 -80 -52.5 -135t-133.5 -55h-2v-25q25 -4 42.5 -24t17.5 -47v-16q0 -34 -23 -56.5t-56 -22.5h-17q-33 0 -55.5 22.5t-22.5 56.5v17l55 -1v-14q0 -10 8 -18t19 -8h9q10 0 18 8t8 18v10q0 10 -7 17.5t-17 8.5h-38v74h-2q-79 0 -133 55 t-54 134z" />
<glyph unicode="&#x15f;" horiz-adv-x="452" d="M31 128v42h86v-28q0 -34 23.5 -55t66.5 -21h41q40 0 63 19t23 49v7q0 35 -25 55t-74 20h-18q-82 0 -129 37.5t-47 101.5v18q0 60 44.5 101t114.5 41h57q68 0 112 -40.5t44 -97.5v-35h-86v26q0 33 -22.5 53.5t-62.5 20.5h-30q-40 0 -62 -19t-22 -49v-6q0 -73 100 -73h19 q79 0 127.5 -37.5t48.5 -100.5v-25q0 -58 -45.5 -98.5t-110.5 -40.5h-8v-28q25 -4 42.5 -24t17.5 -47v-16q0 -34 -23 -56.5t-56 -22.5h-17q-33 0 -55.5 22.5t-22.5 56.5v17l55 -1v-14q0 -10 8 -18t19 -8h9q10 0 18 8t8 18v10q0 10 -7 17.5t-17 8.5h-38v77h-12 q-68 0 -112.5 39.5t-44.5 95.5z" />
<glyph unicode="&#x160;" horiz-adv-x="502" d="M33 179v46h86v-45q0 -46 31.5 -78.5t77.5 -32.5h44q49 0 79 33t30 82v19q0 50 -29.5 80.5t-93.5 30.5h-19q-91 0 -145 55t-54 131v33q0 76 55 128t134 52h49q78 0 129.5 -55t51.5 -135v-47h-85v46q0 47 -30 79.5t-76 32.5h-34q-44 0 -75 -30t-31 -74v-21q0 -50 31 -83 t92 -33h21q97 0 147 -51t50 -134v-28q0 -80 -52.5 -135t-133.5 -55h-63q-79 0 -133 55t-54 134zM249 737l-143 87l30 52l113 -69l112 69l31 -52z" />
<glyph unicode="&#x161;" horiz-adv-x="452" d="M227 544l-143 87l30 52l113 -68l112 68l31 -52zM31 128v42h86v-28q0 -34 23.5 -55t66.5 -21h41q40 0 63 19t23 49v7q0 35 -25 55t-74 20h-18q-82 0 -129 37.5t-47 101.5v18q0 60 44.5 101t114.5 41h57q68 0 112 -40.5t44 -97.5v-35h-86v26q0 33 -22.5 53.5t-62.5 20.5 h-30q-40 0 -62 -19t-22 -49v-6q0 -73 100 -73h19q79 0 127.5 -37.5t48.5 -100.5v-25q0 -58 -45.5 -98.5t-110.5 -40.5h-79q-68 0 -112.5 39.5t-44.5 95.5z" />
<glyph unicode="&#x162;" horiz-adv-x="417" d="M184 -28l70 -17l-41 -150l-69 17zM165 0v624h-175v79h437v-79h-175v-624h-87z" />
<glyph unicode="&#x163;" horiz-adv-x="404" d="M9 432v76h63v87h86v-87h229v-76h-229v-292q0 -31 17.5 -51.5t47.5 -20.5h19q36 0 52.5 21t16.5 53v35h81v-50q0 -55 -38.5 -94.5t-94.5 -39.5h-56q-56 0 -93.5 38.5t-37.5 91.5v309h-63zM204 -28l70 -17l-41 -150l-69 17z" />
<glyph unicode="&#x164;" horiz-adv-x="417" d="M165 0v624h-175v79h437v-79h-175v-624h-87zM208 737l-143 87l30 52l113 -69l112 69l31 -52z" />
<glyph unicode="&#x165;" horiz-adv-x="404" d="M9 432v76h63v87h86v-87h229v-76h-229v-292q0 -31 17.5 -51.5t47.5 -20.5h19q36 0 52.5 21t16.5 53v35h81v-50q0 -55 -38.5 -94.5t-94.5 -39.5h-56q-56 0 -93.5 38.5t-37.5 91.5v309h-63zM289 699l-27 -171l-70 8l25 172z" />
<glyph unicode="&#x166;" horiz-adv-x="417" d="M165 0v320h-104v64h104v240h-175v79h437v-79h-175v-240h104v-64h-104v-320h-87z" />
<glyph unicode="&#x167;" horiz-adv-x="404" d="M10 432v76h63v87h86v-87h229v-76h-229v-129h114v-58h-114v-101q0 -32 15.5 -52t46.5 -20h19q37 0 55.5 21.5t18.5 52.5v18h79v-37q0 -55 -39.5 -94.5t-96.5 -39.5h-55q-56 0 -92.5 37t-36.5 90v125h-46v58h46v129h-63z" />
<glyph unicode="&#x168;" horiz-adv-x="534" d="M397 703h88v-518q0 -81 -57.5 -138t-137.5 -57h-45q-81 0 -138.5 57t-57.5 138v518h88v-515q0 -48 33.5 -82t80.5 -34h32q48 0 81 34t33 82v515zM117 801l24 30q27 37 68 37q31 0 56 -17l29 -20q15 -11 27 -11q16 0 26 14l20 26l49 -39l-25 -33q-25 -35 -65 -35 q-34 0 -55 15l-30 20q-18 12 -28 12q-16 0 -24 -10l-22 -29z" />
<glyph unicode="&#x169;" horiz-adv-x="489" d="M209 72h32q43 0 74.5 34t31.5 74v328h87v-508h-84v58q-19 -34 -54 -49.5t-69 -15.5h-44q-54 0 -93.5 41t-39.5 94v380h89v-349q0 -37 18 -62t52 -25zM93 608l24 30q27 37 68 37q31 0 56 -17l29 -20q15 -11 27 -11q16 0 26 14l20 26l49 -39l-25 -33q-25 -35 -65 -35 q-34 0 -55 15l-30 20q-18 12 -28 12q-16 0 -24 -10l-22 -29z" />
<glyph unicode="&#x16a;" horiz-adv-x="534" d="M397 703h88v-518q0 -81 -57.5 -138t-137.5 -57h-45q-81 0 -138.5 57t-57.5 138v518h88v-515q0 -48 33.5 -82t80.5 -34h32q48 0 81 34t33 82v515zM139 771v68h255v-68h-255z" />
<glyph unicode="&#x16b;" horiz-adv-x="489" d="M209 72h32q43 0 74.5 34t31.5 74v328h87v-508h-84v58q-19 -34 -54 -49.5t-69 -15.5h-44q-54 0 -93.5 41t-39.5 94v380h89v-349q0 -37 18 -62t52 -25zM115 578v68h255v-68h-255z" />
<glyph unicode="&#x16c;" horiz-adv-x="534" d="M397 703h88v-518q0 -81 -57.5 -138t-137.5 -57h-45q-81 0 -138.5 57t-57.5 138v518h88v-515q0 -48 33.5 -82t80.5 -34h32q48 0 81 34t33 82v515zM252 741q-43 0 -72.5 29.5t-29.5 72.5v24h60v-24q0 -19 13.5 -32.5t32.5 -13.5h21q19 0 32.5 13.5t13.5 32.5v24h61v-24 q0 -43 -30 -72.5t-72 -29.5h-30z" />
<glyph unicode="&#x16d;" horiz-adv-x="489" d="M209 72h32q43 0 74.5 34t31.5 74v328h87v-508h-84v58q-19 -34 -54 -49.5t-69 -15.5h-44q-54 0 -93.5 41t-39.5 94v380h89v-349q0 -37 18 -62t52 -25zM228 548q-43 0 -72.5 29.5t-29.5 72.5v24h60v-24q0 -18 13.5 -32t32.5 -14h21q19 0 32.5 14t13.5 32v24h61v-24 q0 -43 -30 -72.5t-72 -29.5h-30z" />
<glyph unicode="&#x16e;" horiz-adv-x="534" d="M259 731q-31 0 -53.5 22t-22.5 53v15q0 31 22.5 52.5t53.5 21.5h16q31 0 53 -21.5t22 -52.5v-15q0 -31 -22 -53t-53 -22h-16zM262 782h10q10 0 18 8t8 18v10q0 10 -8 18t-18 8h-10q-10 0 -18 -8t-8 -18v-10q0 -10 8 -18t18 -8zM397 703h88v-518q0 -81 -57.5 -138 t-137.5 -57h-45q-81 0 -138.5 57t-57.5 138v518h88v-515q0 -48 33.5 -82t80.5 -34h32q48 0 81 34t33 82v515z" />
<glyph unicode="&#x16f;" horiz-adv-x="489" d="M209 72h32q41 0 72.5 32t33.5 72v332h87v-508h-84v58q-19 -34 -54 -49.5t-69 -15.5h-44q-54 0 -93.5 41t-39.5 94v380h89v-349q0 -37 18 -62t52 -25zM235 538q-31 0 -53.5 22t-22.5 53v15q0 31 22.5 52.5t53.5 21.5h16q31 0 53 -21.5t22 -52.5v-15q0 -31 -22 -53t-53 -22 h-16zM238 589h10q10 0 18 8t8 18v10q0 10 -8 18t-18 8h-10q-10 0 -18 -7.5t-8 -18.5v-10q0 -10 8 -18t18 -8z" />
<glyph unicode="&#x170;" horiz-adv-x="534" d="M328 737l-54 29l66 111l54 -30zM196 741l-53 29l66 110l54 -29zM397 703h88v-518q0 -81 -57.5 -138t-137.5 -57h-45q-81 0 -138.5 57t-57.5 138v518h88v-515q0 -48 33.5 -82t80.5 -34h32q48 0 81 34t33 82v515z" />
<glyph unicode="&#x171;" horiz-adv-x="489" d="M209 72h32q41 0 72.5 32t33.5 72v332h87v-508h-84v58q-19 -34 -54 -49.5t-69 -15.5h-44q-54 0 -93.5 41t-39.5 94v380h89v-349q0 -37 18 -62t52 -25zM317 543l-54 29l66 111l54 -30zM185 547l-53 29l66 110l54 -29z" />
<glyph unicode="&#x172;" horiz-adv-x="534" d="M397 703h88v-518q0 -68 -41.5 -120.5t-105.5 -68.5v-83h-30q-10 -1 -16.5 -8.5t-6.5 -17.5v-7q0 -10 7.5 -18t18.5 -8h27v-55h-40q-31 0 -53.5 23t-22.5 55v12q0 29 16.5 49.5t43.5 25.5v26h-37q-81 0 -138.5 57t-57.5 138v518h88v-515q0 -48 33.5 -82t80.5 -34h32 q48 0 81 34t33 82v515z" />
<glyph unicode="&#x173;" horiz-adv-x="489" d="M434 508v-595h-30q-10 -1 -16.5 -8.5t-6.5 -17.5v-7q0 -10 7.5 -18t18.5 -8h27v-55h-40q-31 0 -53.5 23t-22.5 55v12q0 29 16.5 49.5t43.5 25.5v36h-28v58q-19 -34 -54 -49.5t-69 -15.5h-44q-54 0 -93.5 41t-39.5 94v380h89v-349q0 -37 18 -62t52 -25h32q43 0 74.5 34 t31.5 74v328h87z" />
<glyph unicode="&#x174;" horiz-adv-x="745" d="M262 759l-31 52l143 87l143 -87l-31 -52l-112 68zM156 0l-130 703h86l103 -578l115 578h91l110 -579l108 579h83l-135 -703h-110l-105 532l-110 -532h-106z" />
<glyph unicode="&#x175;" horiz-adv-x="654" d="M215 553l-31 52l143 87l143 -87l-31 -52l-112 69zM239 0h-106l-113 508h84l87 -393l93 393h87l100 -393l86 393h84l-114 -508h-106l-94 360z" />
<glyph unicode="&#x176;" horiz-adv-x="450" d="M181 0v283l-186 420h87l143 -326l144 326h86l-186 -420v-283h-88zM112 746l-31 52l143 87l143 -87l-31 -52l-112 68z" />
<glyph unicode="&#x177;" horiz-adv-x="418" d="M17 -197v76h65q35 0 54.5 16t31.5 52l17 53h-38l-147 508h88l121 -423l121 423h88l-147 -508l-28 -84q-20 -61 -58 -87t-97 -26h-71zM97 553l-31 52l143 87l143 -87l-31 -52l-112 69z" />
<glyph unicode="&#x178;" horiz-adv-x="450" d="M181 0v283l-186 420h87l143 -326l144 326h86l-186 -420v-283h-88zM264 763v82h70v-82h-70zM116 763v82h71v-82h-71z" />
<glyph unicode="&#x179;" horiz-adv-x="419" d="M11 0v68l290 556h-276v79h382v-56l-296 -568h296v-79h-396zM187 734l-32 56l158 95l34 -58z" />
<glyph unicode="&#x17a;" horiz-adv-x="401" d="M173 541l-33 55l158 95l35 -57zM25 429v79h355v-56l-248 -373h250v-79h-361v62l247 367h-243z" />
<glyph unicode="&#x17b;" horiz-adv-x="419" d="M173 764v82h84v-82h-84zM11 0v68l290 556h-276v79h382v-56l-296 -568h296v-79h-396z" />
<glyph unicode="&#x17c;" horiz-adv-x="401" d="M25 429v79h355v-56l-248 -373h250v-79h-361v62l247 367h-243zM159 571v82h84v-82h-84z" />
<glyph unicode="&#x17d;" horiz-adv-x="419" d="M11 0v68l290 556h-276v79h382v-56l-296 -568h296v-79h-396zM215 737l-143 87l30 52l113 -69l112 69l31 -52z" />
<glyph unicode="&#x17e;" horiz-adv-x="401" d="M201 544l-143 87l30 52l113 -68l112 68l31 -52zM25 429v79h355v-56l-248 -373h250v-79h-361v62l247 367h-243z" />
<glyph unicode="&#x18f;" horiz-adv-x="531" d="M130 463h-88v51q0 82 58.5 140.5t141.5 58.5h48q82 0 140.5 -58.5t58.5 -140.5v-325q0 -82 -58.5 -140.5t-140.5 -58.5h-50q-82 0 -140.5 58t-58.5 141v166h360v157q0 50 -34.5 85t-83.5 35h-35q-49 0 -83.5 -35t-34.5 -85v-49zM283 70q49 0 83.5 35t34.5 85v87h-274v-87 q0 -50 34.5 -85t83.5 -35h38z" />
<glyph unicode="&#x192;" horiz-adv-x="327" d="M118 575q0 54 38 91t92 37h68v-84h-45q-27 0 -46 -19.5t-19 -46.5v-169h110v-64h-110v-192q0 -54 -38 -91t-92 -37h-67v85h44q27 0 46 19.5t19 45.5v170h-99v64h99v191z" />
<glyph unicode="&#x1d3;" horiz-adv-x="534" d="M397 703h88v-518q0 -81 -57.5 -138t-137.5 -57h-45q-81 0 -138.5 57t-57.5 138v518h88v-515q0 -48 33.5 -82t80.5 -34h32q48 0 81 34t33 82v515zM267 737l-143 87l30 52l113 -69l112 69l31 -52z" />
<glyph unicode="&#x1d4;" horiz-adv-x="489" d="M209 72h32q43 0 74.5 34t31.5 74v328h87v-508h-84v58q-19 -34 -54 -49.5t-69 -15.5h-44q-54 0 -93.5 41t-39.5 94v380h89v-349q0 -37 18 -62t52 -25zM243 544l-143 87l30 52l113 -68l112 68l31 -52z" />
<glyph unicode="&#x1e2;" horiz-adv-x="671" d="M298 0v194h-153l-72 -194h-85l256 703h393v-79h-255v-233h243v-79h-243v-233h255v-79h-339zM169 270h129v358zM273 771v68h255v-68h-255z" />
<glyph unicode="&#x1e3;" horiz-adv-x="748" d="M632 195h84v-29q0 -74 -47.5 -123.5t-118.5 -49.5h-55q-45 0 -81.5 19.5t-53.5 47.5q-43 -66 -137 -66h-65q-55 0 -94.5 33.5t-39.5 95.5q0 61 36.5 97t100.5 36h164v91q0 37 -22.5 64t-58.5 27h-27q-41 0 -64.5 -27.5t-23.5 -64.5v-23h-83v37q0 64 44 109.5t112 45.5h52 q36 0 67 -17t47 -43q51 60 123 60h59q70 0 118 -49t48 -120v-78h-306v-99q0 -44 25 -74.5t67 -30.5h38q43 0 67.5 31t24.5 76v24zM188 62h33q36 0 70 24t34 75v26h-143q-32 0 -50.5 -16.5t-18.5 -42.5q0 -66 75 -66zM410 341v-7h223v4q0 44 -24 74.5t-66 30.5h-44 q-41 0 -64.5 -29.5t-24.5 -72.5zM240 578v68h255v-68h-255z" />
<glyph unicode="&#x1fc;" horiz-adv-x="671" d="M298 0v194h-153l-72 -194h-85l256 703h393v-79h-255v-233h243v-79h-243v-233h255v-79h-339zM169 270h129v358zM373 734l-32 56l158 95l34 -58z" />
<glyph unicode="&#x1fd;" horiz-adv-x="748" d="M339 541l-33 55l158 95l35 -57zM632 195h84v-29q0 -74 -47.5 -123.5t-118.5 -49.5h-55q-45 0 -81.5 19.5t-53.5 47.5q-43 -66 -137 -66h-65q-55 0 -94.5 33.5t-39.5 95.5q0 61 36.5 97t100.5 36h164v91q0 37 -22.5 64t-58.5 27h-27q-41 0 -64.5 -27.5t-23.5 -64.5v-23 h-83v37q0 64 44 109.5t112 45.5h52q36 0 67 -17t47 -43q51 60 123 60h59q70 0 118 -49t48 -120v-78h-306v-99q0 -44 25 -74.5t67 -30.5h38q43 0 67.5 31t24.5 76v24zM188 62h33q36 0 70 24t34 75v26h-143q-32 0 -50.5 -16.5t-18.5 -42.5q0 -66 75 -66zM410 341v-7h223v4 q0 44 -24 74.5t-66 30.5h-44q-41 0 -64.5 -29.5t-24.5 -72.5z" />
<glyph unicode="&#x1fe;" horiz-adv-x="526" d="M42 514q0 82 58 140.5t141 58.5h43q61 0 112 -35l42 81l68 -36l-55 -102q32 -50 32 -107v-325q0 -82 -58.5 -140.5t-140.5 -58.5h-43q-63 0 -111 34l-43 -80l-66 35l53 102q-32 50 -32 108v325zM130 512v-321q0 -50 34.5 -85t83.5 -35h29q49 0 83.5 35t34.5 85v321 q0 50 -34.5 85t-83.5 35h-29q-49 0 -83.5 -35t-34.5 -85zM235 734l-32 56l158 95l34 -58z" />
<glyph unicode="&#x1ff;" horiz-adv-x="477" d="M205 515h67q32 0 64 -13l41 80l60 -31l-46 -87q48 -50 48 -120v-180q0 -71 -48.5 -121t-118.5 -50h-67q-30 0 -60 11l-45 -85l-57 31l46 90q-51 49 -51 124v180q0 71 48.5 121t118.5 50zM217 69h43q42 0 67 30.5t25 74.5v159q0 44 -25 74.5t-67 30.5h-43q-42 0 -67 -30.5 t-25 -74.5v-159q0 -44 25 -74.5t67 -30.5zM209 541l-33 55l158 95l35 -57z" />
<glyph unicode="&#x218;" horiz-adv-x="502" d="M225 -28l70 -17l-41 -150l-69 17zM33 179v46h86v-45q0 -46 31.5 -78.5t77.5 -32.5h44q49 0 79 33t30 82v19q0 50 -29.5 80.5t-93.5 30.5h-19q-91 0 -145 55t-54 131v33q0 76 55 128t134 52h49q78 0 129.5 -55t51.5 -135v-47h-85v46q0 47 -30 79.5t-76 32.5h-34 q-44 0 -75 -30t-31 -74v-21q0 -50 31 -83t92 -33h21q97 0 147 -51t50 -134v-28q0 -80 -52.5 -135t-133.5 -55h-63q-79 0 -133 55t-54 134z" />
<glyph unicode="&#x219;" horiz-adv-x="452" d="M203 -28l70 -17l-41 -150l-69 17zM31 128v42h86v-28q0 -34 23.5 -55t66.5 -21h41q40 0 63 19t23 49v7q0 35 -25 55t-74 20h-18q-82 0 -129 37.5t-47 101.5v18q0 60 44.5 101t114.5 41h57q68 0 112 -40.5t44 -97.5v-35h-86v26q0 33 -22.5 53.5t-62.5 20.5h-30 q-40 0 -62 -19t-22 -49v-6q0 -73 100 -73h19q79 0 127.5 -37.5t48.5 -100.5v-25q0 -58 -45.5 -98.5t-110.5 -40.5h-79q-68 0 -112.5 39.5t-44.5 95.5z" />
<glyph unicode="&#x21a;" horiz-adv-x="417" d="M184 -28l70 -17l-41 -150l-69 17zM165 0v624h-175v79h437v-79h-175v-624h-87z" />
<glyph unicode="&#x21b;" horiz-adv-x="404" d="M9 432v76h63v87h86v-87h229v-76h-229v-292q0 -31 17.5 -51.5t47.5 -20.5h19q36 0 52.5 21t16.5 53v35h81v-50q0 -55 -38.5 -94.5t-94.5 -39.5h-56q-56 0 -93.5 38.5t-37.5 91.5v309h-63zM204 -28l70 -17l-41 -150l-69 17z" />
<glyph unicode="&#x237;" horiz-adv-x="200" d="M-61 -196v75h49q33 0 51 23t18 60v546h88v-566q0 -58 -38.5 -98t-95.5 -40h-72z" />
<glyph unicode="&#x259;" horiz-adv-x="460" d="M120 313h-84v29q0 74 48 123.5t119 49.5h59q70 0 117.5 -49t47.5 -122v-182q0 -70 -50 -119.5t-121 -49.5h-54q-70 0 -118 49t-48 120v78h308v99q0 43 -25.5 74t-68.5 31h-38q-43 0 -67.5 -31t-24.5 -76v-24zM253 65q43 0 67 29t24 72v8h-225v-8q0 -43 24 -72t67 -29h43z " />
<glyph unicode="&#x2c6;" horiz-adv-x="302" d="M39 553l-31 52l143 87l143 -87l-31 -52l-112 69z" />
<glyph unicode="&#x2c7;" horiz-adv-x="302" d="M151 544l-143 87l30 52l113 -68l112 68l31 -52z" />
<glyph unicode="&#x2d8;" horiz-adv-x="302" d="M34 650v24h60v-24q0 -18 13.5 -32t32.5 -14h21q19 0 32.5 14t13.5 32v24h61v-24q0 -43 -30 -72.5t-72 -29.5h-30q-43 0 -72.5 29.5t-29.5 72.5z" />
<glyph unicode="&#x2d9;" horiz-adv-x="302" d="M109 571v82h84v-82h-84z" />
<glyph unicode="&#x2da;" horiz-adv-x="302" d="M143 538q-31 0 -53.5 22t-22.5 53v15q0 31 22.5 52.5t53.5 21.5h16q31 0 53 -21.5t22 -52.5v-15q0 -31 -22 -53t-53 -22h-16zM146 589h10q10 0 18 8t8 18v10q0 10 -8 18t-18 8h-10q-10 0 -18 -7.5t-8 -18.5v-10q0 -10 8 -18t18 -8z" />
<glyph unicode="&#x2db;" horiz-adv-x="302" d="M70 -111q0 29 16.5 49.5t43.5 25.5v42h56v-93h-30q-10 -1 -16.5 -8.5t-6.5 -17.5v-7q0 -10 7.5 -18t18.5 -8h27v-55h-40q-31 0 -53.5 23t-22.5 55v12z" />
<glyph unicode="&#x2dc;" horiz-adv-x="302" d="M1 608l24 30q27 37 68 37q31 0 56 -17l29 -20q15 -11 27 -11q16 0 26 14l20 26l49 -39l-25 -33q-25 -35 -65 -35q-34 0 -55 15l-30 20q-18 12 -28 12q-16 0 -24 -10l-22 -29z" />
<glyph unicode="&#x2dd;" horiz-adv-x="302" d="M225 543l-54 29l66 111l54 -30zM93 547l-53 29l66 110l54 -29z" />
<glyph unicode="&#x394;" horiz-adv-x="488" d="M6 0v64l187 639h104l185 -639v-64h-476zM243 609l-151 -531h299z" />
<glyph unicode="&#x3a3;" horiz-adv-x="399" d="M14 640v63h373v-79h-272l166 -272l-166 -273h272v-79h-373v64l170 288z" />
<glyph unicode="&#x3a9;" horiz-adv-x="545" d="M47 0v74h50q-30 28 -38.5 66t-8.5 98v276q0 82 58.5 140.5t141.5 58.5h42q83 0 141.5 -58.5t58.5 -140.5v-276q0 -113 -47 -164h49v-74h-171v74q35 12 57.5 46t23.5 78v314q0 50 -34.5 85t-83.5 35h-30q-49 0 -83.5 -35t-34.5 -85v-314q0 -44 23 -78t58 -46v-74h-172z " />
<glyph unicode="&#x3bc;" horiz-adv-x="465" d="M48 -143v651h83v-353q0 -33 17 -55t49 -22h30q40 0 67.5 31t27.5 71v328h82v-370q0 -57 49 -57h17v-81h-41q-57 0 -82 48q-19 -26 -50 -39t-60 -13h-35q-20 0 -43.5 8t-32.5 20v-167h-78z" />
<glyph unicode="&#x3c0;" horiz-adv-x="546" d="M477 624v-624h-88v624h-232v-624h-88v624h-51v79h510v-79h-51z" />
<glyph unicode="&#x1e46;" horiz-adv-x="549" d="M234 -118v82h84v-82h-84zM54 0v703h82l274 -505v505h84v-703h-67l-289 528v-528h-84z" />
<glyph unicode="&#x1e47;" horiz-adv-x="490" d="M280 436h-28q-47 0 -77.5 -33t-32.5 -74v-329h-88v508h87v-57q36 64 123 64h34q64 0 103 -40.5t39 -102.5v-372h-89v351q0 36 -18.5 60.5t-52.5 24.5zM205 -118v82h84v-82h-84z" />
<glyph unicode="&#x1e62;" horiz-adv-x="502" d="M33 179v46h86v-45q0 -46 31.5 -78.5t77.5 -32.5h44q49 0 79 33t30 82v19q0 50 -29.5 80.5t-93.5 30.5h-19q-91 0 -145 55t-54 131v33q0 76 55 128t134 52h49q78 0 129.5 -55t51.5 -135v-47h-85v46q0 47 -30 79.5t-76 32.5h-34q-44 0 -75 -30t-31 -74v-21q0 -50 31 -83 t92 -33h21q97 0 147 -51t50 -134v-28q0 -80 -52.5 -135t-133.5 -55h-63q-79 0 -133 55t-54 134zM207 -118v82h84v-82h-84z" />
<glyph unicode="&#x1e63;" horiz-adv-x="452" d="M31 128v42h86v-28q0 -34 23.5 -55t66.5 -21h41q40 0 63 19t23 49v7q0 35 -25 55t-74 20h-18q-82 0 -129 37.5t-47 101.5v18q0 60 44.5 101t114.5 41h57q68 0 112 -40.5t44 -97.5v-35h-86v26q0 33 -22.5 53.5t-62.5 20.5h-30q-40 0 -62 -19t-22 -49v-6q0 -73 100 -73h19 q79 0 127.5 -37.5t48.5 -100.5v-25q0 -58 -45.5 -98.5t-110.5 -40.5h-79q-68 0 -112.5 39.5t-44.5 95.5zM185 -118v82h84v-82h-84z" />
<glyph unicode="&#x1e80;" horiz-adv-x="745" d="M429 748l-160 93l33 58l159 -95zM156 0l-130 703h86l103 -578l115 578h91l110 -579l108 579h83l-135 -703h-110l-105 532l-110 -532h-106z" />
<glyph unicode="&#x1e81;" horiz-adv-x="654" d="M239 0h-106l-113 508h84l87 -393l93 393h87l100 -393l86 393h84l-114 -508h-106l-94 360zM382 542l-160 93l34 57l159 -95z" />
<glyph unicode="&#x1e82;" horiz-adv-x="745" d="M346 747l-32 56l158 95l34 -58zM156 0l-130 703h86l103 -578l115 578h91l110 -579l108 579h83l-135 -703h-110l-105 532l-110 -532h-106z" />
<glyph unicode="&#x1e83;" horiz-adv-x="654" d="M298 541l-33 55l158 95l35 -57zM239 0h-106l-113 508h84l87 -393l93 393h87l100 -393l86 393h84l-114 -508h-106l-94 360z" />
<glyph unicode="&#x1e84;" horiz-adv-x="745" d="M156 0l-130 703h86l103 -578l115 578h91l110 -579l108 579h83l-135 -703h-110l-105 532l-110 -532h-106zM414 776v82h70v-82h-70zM266 776v82h71v-82h-71z" />
<glyph unicode="&#x1e85;" horiz-adv-x="654" d="M367 571v82h70v-82h-70zM219 571v82h71v-82h-71zM239 0h-106l-113 508h84l87 -393l93 393h87l100 -393l86 393h84l-114 -508h-106l-94 360z" />
<glyph unicode="&#x1ebc;" horiz-adv-x="435" d="M54 0v703h349v-79h-261v-233h249v-79h-249v-233h261v-79h-349zM76 801l24 30q27 37 68 37q30 0 56 -17l29 -20q15 -11 27 -11q16 0 26 14l20 26l49 -39l-25 -33q-25 -35 -65 -35q-34 0 -55 15l-30 20q-18 12 -28 12q-16 0 -24 -10l-22 -29z" />
<glyph unicode="&#x1ebd;" horiz-adv-x="460" d="M343 195h84v-29q0 -74 -47 -123.5t-118 -49.5h-59q-70 0 -117.5 49t-47.5 122v182q0 70 50 119.5t121 49.5h53q70 0 117.5 -49t47.5 -120v-78h-306v-99q0 -43 25.5 -74t68.5 -31h38q42 0 66 31t24 76v24zM121 342v-8h223v8q0 43 -23.5 72t-66.5 29h-42q-43 0 -67 -29 t-24 -72zM83 608l24 30q27 37 68 37q31 0 56 -17l29 -20q15 -11 27 -11q16 0 26 14l20 26l49 -39l-25 -33q-25 -35 -65 -35q-34 0 -55 15l-30 20q-18 12 -28 12q-16 0 -24 -10l-22 -29z" />
<glyph unicode="&#x1ef2;" horiz-adv-x="450" d="M181 0v283l-186 420h87l143 -326l144 326h86l-186 -420v-283h-88zM279 735l-160 93l33 58l159 -95z" />
<glyph unicode="&#x1ef3;" horiz-adv-x="418" d="M17 -197v76h65q35 0 54.5 16t31.5 52l17 53h-38l-147 508h88l121 -423l121 423h88l-147 -508l-28 -84q-20 -61 -58 -87t-97 -26h-71zM264 542l-160 93l34 57l159 -95z" />
<glyph unicode="&#x2009;" horiz-adv-x="0" />
<glyph unicode="&#x2013;" horiz-adv-x="340" d="M16 217v76h307v-76h-307z" />
<glyph unicode="&#x2014;" horiz-adv-x="466" d="M16 217v76h434v-76h-434z" />
<glyph unicode="&#x2018;" horiz-adv-x="146" d="M110 538h-74v232h74v-232z" />
<glyph unicode="&#x2019;" horiz-adv-x="146" d="M110 538h-74v232h74v-232z" />
<glyph unicode="&#x201a;" horiz-adv-x="146" d="M110 -104h-74v232h74v-232z" />
<glyph unicode="&#x201c;" horiz-adv-x="267" d="M110 538h-74v232h74v-232zM231 538h-74v232h74v-232z" />
<glyph unicode="&#x201d;" horiz-adv-x="267" d="M110 538h-74v232h74v-232zM231 538h-74v232h74v-232z" />
<glyph unicode="&#x201e;" horiz-adv-x="267" d="M110 -104h-74v232h74v-232zM231 -104h-74v232h74v-232z" />
<glyph unicode="&#x2020;" horiz-adv-x="392" d="M152 0v445h-152v82h152v176h88v-176h152v-82h-152v-445h-88z" />
<glyph unicode="&#x2021;" horiz-adv-x="438" d="M175 0v177h-152v81h152v187h-152v82h152v176h88v-176h152v-82h-152v-187h152v-81h-152v-177h-88z" />
<glyph unicode="&#x2022;" horiz-adv-x="242" d="M105 150q-37 0 -63.5 26t-26.5 64v31q0 37 26.5 63t63.5 26h32q37 0 63 -26t26 -63v-31q0 -37 -26 -63.5t-63 -26.5h-32z" />
<glyph unicode="&#x2026;" horiz-adv-x="447" d="M331 0v87h81v-87h-81zM183 0v87h81v-87h-81zM36 0v87h80v-87h-80z" />
<glyph unicode="&#x2030;" horiz-adv-x="882" d="M70 0l385 703h83l-385 -703h-83zM587 107q0 -47 -33 -80t-80 -33h-31q-47 0 -80 33t-33 80v109q0 47 33 80t80 33h31q47 0 80 -33t33 -80v-109zM396 211v-100q0 -22 15.5 -38t37.5 -16h19q22 0 37.5 16t15.5 38v100q0 23 -15.5 38.5t-37.5 15.5h-19q-22 0 -37.5 -16 t-15.5 -38zM278 487q0 -47 -32.5 -80t-79.5 -33h-32q-47 0 -79.5 33t-32.5 80v109q0 47 32.5 80t79.5 33h32q47 0 79.5 -33t32.5 -80v-109zM88 591v-100q0 -22 15.5 -38t37.5 -16h18q22 0 37.5 16t15.5 38v100q0 23 -15.5 38.5t-37.5 15.5h-18q-22 0 -37.5 -15.5 t-15.5 -38.5zM877 107q0 -47 -32.5 -80t-79.5 -33h-32q-47 0 -79.5 33t-32.5 80v109q0 47 32.5 80t79.5 33h32q47 0 79.5 -33t32.5 -80v-109zM687 211v-100q0 -22 15.5 -38t37.5 -16h18q22 0 37.5 16t15.5 38v100q0 23 -15.5 38.5t-37.5 15.5h-18q-22 0 -37.5 -15.5 t-15.5 -38.5z" />
<glyph unicode="&#x2039;" horiz-adv-x="198" d="M93 122l-80 129v8l80 129h89l-83 -133l83 -133h-89z" />
<glyph unicode="&#x203a;" horiz-adv-x="198" d="M16 122l83 133l-83 133h89l80 -129v-8l-80 -129h-89z" />
<glyph unicode="&#x2044;" horiz-adv-x="14" d="M-226 0l385 703h83l-385 -703h-83z" />
<glyph unicode="&#x2070;" horiz-adv-x="301" d="M279 493q0 -47 -33 -80t-79 -33h-32q-47 0 -80 33t-33 80v104q0 46 33 79t80 33h32q46 0 79 -33t33 -79v-104zM89 592v-95q0 -22 15.5 -38.5t36.5 -16.5h19q22 0 37.5 16.5t15.5 38.5v95q0 22 -15.5 38.5t-37.5 16.5h-19q-21 0 -36.5 -16.5t-15.5 -38.5z" />
<glyph unicode="&#x2074;" horiz-adv-x="301" d="M288 453h-49v-67h-66v67h-158v48l137 202h87v-193h49v-57zM174 639l-87 -129h87v129z" />
<glyph unicode="&#x2075;" horiz-adv-x="301" d="M28 470v20h65v-16q0 -18 13 -29.5t34 -11.5h21q21 0 34 12.5t13 30.5v14q0 41 -51 41h-125v172h239v-57h-176v-61h80q46 0 73.5 -27t27.5 -66v-19q0 -39 -27.5 -66t-71.5 -27h-49q-45 0 -72.5 26t-27.5 64z" />
<glyph unicode="&#x2076;" horiz-adv-x="301" d="M92 607v-39q26 10 57 10h33q41 0 67.5 -26t26.5 -63v-13q0 -41 -29 -68.5t-72 -27.5h-47q-44 0 -73 29.5t-29 71.5v122q0 44 29.5 75t73.5 31h44q43 0 71 -28.5t28 -68.5v-13h-63v11q0 22 -13.5 34.5t-35.5 12.5h-18q-21 0 -35.5 -14t-14.5 -36zM133 525q-18 0 -41 -7 v-39q0 -21 14 -34.5t35 -13.5h22q21 0 34 11t13 31v11q0 18 -12.5 29.5t-32.5 11.5h-32z" />
<glyph unicode="&#x2077;" horiz-adv-x="301" d="M61 386l133 260h-165v57h243v-52l-136 -265h-75z" />
<glyph unicode="&#x2078;" horiz-adv-x="301" d="M25 613v11q0 35 27 60t70 25h51q44 0 70.5 -24t26.5 -60v-14q0 -46 -42 -65q21 -7 33.5 -26.5t12.5 -41.5v-13q0 -35 -26 -60t-71 -25h-56q-45 0 -72 25.5t-27 59.5v13q0 47 44 68q-19 7 -30 26t-11 41zM158 520h-21q-23 0 -35 -11.5t-12 -26.5v-12q0 -16 11.5 -27.5 t31.5 -11.5h29q21 0 32.5 11.5t11.5 27.5v12q0 16 -12.5 27t-35.5 11zM204 609v12q0 16 -12 27t-32 11h-26q-19 0 -30.5 -11t-11.5 -27v-12q0 -15 11.5 -26.5t34.5 -11.5h19q21 0 34 12t13 26z" />
<glyph unicode="&#x2079;" horiz-adv-x="301" d="M209 483v41q-25 -10 -57 -10h-35q-40 0 -66 25t-26 62v13q0 42 28.5 68.5t72.5 26.5h48q44 0 73 -29t29 -71v-123q0 -44 -30 -75t-73 -31h-44q-43 0 -71.5 28.5t-28.5 68.5v14h63v-11q0 -22 14 -34.5t35 -12.5h19q21 0 35 14t14 36zM169 568q23 0 40 6v37q0 21 -13.5 34 t-34.5 13h-23q-21 0 -34 -10.5t-13 -30.5v-11q0 -18 13 -28t34 -10h31z" />
<glyph unicode="&#x207f;" horiz-adv-x="332" d="M185 646h-21q-23 0 -39 -17.5t-17 -39.5v-203h-68v317h67v-39q20 44 76 44h28q36 0 59 -26t23 -63v-233h-68v212q0 20 -10.5 34t-29.5 14z" />
<glyph unicode="&#x2080;" horiz-adv-x="301" d="M279 107q0 -47 -33 -80t-79 -33h-32q-47 0 -80 33t-33 80v104q0 46 33 79t80 33h32q46 0 79 -33t33 -79v-104zM89 206v-95q0 -22 15.5 -38.5t36.5 -16.5h19q22 0 37.5 16.5t15.5 38.5v95q0 22 -15.5 38.5t-37.5 16.5h-19q-21 0 -36.5 -16.5t-15.5 -38.5z" />
<glyph unicode="&#x2081;" horiz-adv-x="301" d="M36 56h98v194l-105 -23v58l126 32h47v-261h80v-56h-246v56z" />
<glyph unicode="&#x2082;" horiz-adv-x="301" d="M30 0v52l124 99q49 40 49 67v10q0 39 -42 39h-22q-20 0 -33.5 -12t-13.5 -31v-36h-61v37q0 41 29 69.5t72 28.5h44q41 0 69 -27t28 -65v-11q0 -48 -64 -99l-78 -64h149v-57h-250z" />
<glyph unicode="&#x2083;" horiz-adv-x="301" d="M30 209v23q0 39 27 65t71 26h44q43 0 70.5 -25t27.5 -61v-15q0 -46 -44 -62q49 -18 49 -65v-13q0 -37 -27.5 -62.5t-72.5 -25.5h-48q-46 0 -73 25.5t-27 62.5v26h64v-22q0 -17 13 -27.5t36 -10.5h21q20 0 32.5 10.5t12.5 27.5v10q0 17 -14.5 27.5t-37.5 10.5h-52v50h50 q22 0 36.5 10.5t14.5 29.5v10q0 16 -12.5 26t-30.5 10h-20q-21 0 -33.5 -12t-12.5 -32v-17h-64z" />
<glyph unicode="&#x2084;" horiz-adv-x="301" d="M288 67h-49v-67h-66v67h-158v48l137 202h87v-193h49v-57zM174 253l-87 -129h87v129z" />
<glyph unicode="&#x2085;" horiz-adv-x="301" d="M28 84v20h65v-16q0 -18 13 -29.5t34 -11.5h21q21 0 34 12.5t13 30.5v14q0 41 -51 41h-125v172h239v-57h-176v-61h80q46 0 73.5 -27t27.5 -66v-19q0 -39 -27.5 -66t-71.5 -27h-49q-45 0 -72.5 26t-27.5 64z" />
<glyph unicode="&#x2086;" horiz-adv-x="301" d="M92 221v-39q26 10 57 10h33q41 0 67.5 -26t26.5 -63v-13q0 -41 -29 -68.5t-72 -27.5h-47q-44 0 -73 29.5t-29 71.5v122q0 44 29.5 75t73.5 31h44q43 0 71 -28.5t28 -68.5v-13h-63v11q0 22 -13.5 34.5t-35.5 12.5h-18q-21 0 -35.5 -14t-14.5 -36zM133 139q-18 0 -41 -7 v-39q0 -21 14 -34.5t35 -13.5h22q21 0 34 11t13 31v11q0 18 -12.5 29.5t-32.5 11.5h-32z" />
<glyph unicode="&#x2087;" horiz-adv-x="301" d="M61 0l133 260h-165v57h243v-52l-136 -265h-75z" />
<glyph unicode="&#x2088;" horiz-adv-x="301" d="M25 227v11q0 35 27 60t70 25h51q44 0 70.5 -24t26.5 -60v-14q0 -46 -42 -65q21 -7 33.5 -26.5t12.5 -41.5v-13q0 -35 -26 -60t-71 -25h-56q-45 0 -72 25.5t-27 59.5v13q0 47 44 68q-19 7 -30 26t-11 41zM158 134h-21q-23 0 -35 -11.5t-12 -26.5v-12q0 -16 11.5 -27.5 t31.5 -11.5h29q21 0 32.5 11.5t11.5 27.5v12q0 16 -12.5 27t-35.5 11zM204 223v12q0 16 -12 27t-32 11h-26q-19 0 -30.5 -11t-11.5 -27v-12q0 -15 11.5 -26.5t34.5 -11.5h19q21 0 34 12t13 26z" />
<glyph unicode="&#x2089;" horiz-adv-x="301" d="M209 97v41q-25 -10 -57 -10h-35q-40 0 -66 25t-26 62v13q0 42 28.5 68.5t72.5 26.5h48q44 0 73 -29t29 -71v-123q0 -44 -30 -75t-73 -31h-44q-43 0 -71.5 28.5t-28.5 68.5v14h63v-11q0 -22 14 -34.5t35 -12.5h19q21 0 35 14t14 36zM169 182q23 0 40 6v37q0 21 -13.5 34 t-34.5 13h-23q-21 0 -34 -10.5t-13 -30.5v-11q0 -18 13 -28t34 -10h31z" />
<glyph unicode="&#x20ac;" horiz-adv-x="560" d="M435 254h88v-65q0 -83 -58 -141t-140 -58h-44q-82 0 -140.5 58.5t-58.5 140.5v58h-63v64h63v82h-63v64h63v57q0 82 58.5 140.5t140.5 58.5h42q83 0 141.5 -58.5t58.5 -140.5v-65h-88v63q0 50 -34.5 85t-83.5 35h-29q-49 0 -83.5 -35t-34.5 -85v-55h210v-64h-210v-82h210 v-64h-210v-56q0 -50 34.5 -85t83.5 -35h30q49 0 83 35t34 85v63z" />
<glyph unicode="&#x2113;" horiz-adv-x="341" d="M45 138v454q0 51 35.5 86.5t86.5 35.5h39q51 0 86.5 -35.5t35.5 -86.5v-60q0 -51 -14 -87.5t-51 -74.5l-143 -148v-71q0 -32 22.5 -55t53.5 -23h93v-73h-106q-58 0 -98 40t-40 98zM119 318l94 101q24 26 32 50t8 64v52q0 23 -17.5 41t-42.5 18h-15q-24 0 -41.5 -18 t-17.5 -41v-267z" />
<glyph unicode="&#x2116;" horiz-adv-x="859" d="M566 446v148q0 48 34 81.5t81 33.5h44q47 0 81 -33.5t34 -81.5v-148q0 -48 -34 -82t-81 -34h-44q-47 0 -81 34t-34 82zM637 451q0 -23 16 -39.5t38 -16.5h23q23 0 38.5 16.5t15.5 39.5v138q0 23 -15.5 39t-38.5 16h-23q-22 0 -38 -16t-16 -39v-138zM561 213v68h284v-68 h-284zM54 0v703h82l274 -505v505h84v-703h-67l-289 528v-528h-84z" />
<glyph unicode="&#x2117;" horiz-adv-x="690" d="M658 266q0 -112 -80 -194t-191 -82h-84q-112 0 -191.5 79.5t-79.5 191.5v183q0 111 79.5 190.5t191.5 79.5h84q112 0 191.5 -79.5t79.5 -190.5v-178zM591 443q0 86 -61 148t-146 62h-77q-86 0 -147 -62t-61 -148v-181q0 -87 61 -149t147 -62h77q85 0 146 64.5t61 150.5 v177zM230 557h154q49 0 84 -35t35 -85v-28q0 -49 -34.5 -84t-84.5 -35h-86v-143h-68v410zM433 439q0 23 -15.5 39t-38.5 16h-81v-141h81q23 0 38.5 15.5t15.5 38.5v32z" />
<glyph unicode="&#x2120;" horiz-adv-x="686" d="M329 335v368h73l92 -178l91 178h70v-368h-65v254l-87 -170h-22l-87 170v-254h-65zM17 431v26h61v-22q0 -21 14 -35.5t35 -14.5h32q21 0 34.5 14t13.5 35v9q0 47 -58 47h-14q-54 0 -85 29.5t-31 75.5v15q0 42 30.5 70.5t73.5 28.5h42q43 0 71.5 -29.5t28.5 -72.5v-25h-61 v21q0 20 -14 35t-34 15h-26q-20 0 -34 -13t-14 -31v-9q0 -20 14 -35t41 -15h18q57 0 87 -28.5t30 -76.5v-10q0 -45 -30 -75t-75 -30h-49q-43 0 -72 29t-29 72z" />
<glyph unicode="&#x2122;" horiz-adv-x="668" d="M311 335v368h73l92 -178l91 178h70v-368h-65v254l-87 -170h-22l-87 170v-254h-65zM100 335v305h-100v63h270v-63h-100v-305h-70z" />
<glyph unicode="&#x212e;" horiz-adv-x="514" d="M235 58q-87 0 -148.5 61.5t-61.5 148.5v168q0 87 61.5 148.5t148.5 61.5h44q87 0 149 -61.5t62 -148.5v-66h-374v-204q46 -57 120 -57h43q64 0 109.5 46t45.5 110v31h56v-28q0 -87 -62 -148.5t-149 -61.5h-44zM279 595h-43q-74 0 -120 -58v-115h283v115q-48 58 -120 58z " />
<glyph unicode="&#x2153;" horiz-adv-x="619" d="M75 0l385 703h83l-385 -703h-83zM347 209v23q0 39 27 65t71 26h44q43 0 70.5 -25t27.5 -61v-15q0 -46 -44 -62q49 -18 49 -65v-13q0 -37 -27.5 -62.5t-72.5 -25.5h-48q-46 0 -73 25.5t-27 62.5v26h64v-22q0 -17 13 -27.5t36 -10.5h21q20 0 32.5 10.5t12.5 27.5v10 q0 17 -14.5 27.5t-37.5 10.5h-52v50h50q22 0 36.5 10.5t14.5 29.5v10q0 16 -12.5 26t-30.5 10h-20q-21 0 -33.5 -12t-12.5 -32v-17h-64zM36 442h98v194l-105 -23v58l126 32h47v-261h80v-56h-246v56z" />
<glyph unicode="&#x2154;" horiz-adv-x="619" d="M347 209v23q0 39 27 65t71 26h44q43 0 70.5 -25t27.5 -61v-15q0 -46 -44 -62q49 -18 49 -65v-13q0 -37 -27.5 -62.5t-72.5 -25.5h-48q-46 0 -73 25.5t-27 62.5v26h64v-22q0 -17 13 -27.5t36 -10.5h21q20 0 32.5 10.5t12.5 27.5v10q0 17 -14.5 27.5t-37.5 10.5h-52v50h50 q22 0 36.5 10.5t14.5 29.5v10q0 16 -12.5 26t-30.5 10h-20q-21 0 -33.5 -12t-12.5 -32v-17h-64zM30 386v52l124 99q49 40 49 67v10q0 39 -42 39h-22q-20 0 -33.5 -12t-13.5 -31v-36h-61v37q0 41 29 69.5t72 28.5h44q41 0 69 -27t28 -65v-11q0 -48 -64 -99l-78 -64h149v-57 h-250zM75 0l385 703h83l-385 -703h-83z" />
<glyph unicode="&#x215b;" horiz-adv-x="619" d="M342 227v11q0 35 27 60t70 25h51q44 0 70.5 -24t26.5 -60v-14q0 -46 -42 -65q21 -7 33.5 -26.5t12.5 -41.5v-13q0 -35 -26 -60t-71 -25h-56q-45 0 -72 25.5t-27 59.5v13q0 47 44 68q-19 7 -30 26t-11 41zM75 0l385 703h83l-385 -703h-83zM36 442h98v194l-105 -23v58 l126 32h47v-261h80v-56h-246v56zM475 134h-21q-23 0 -35 -11.5t-12 -26.5v-12q0 -16 11.5 -27.5t31.5 -11.5h29q21 0 32.5 11.5t11.5 27.5v12q0 16 -12.5 27t-35.5 11zM521 223v12q0 16 -12 27t-32 11h-26q-19 0 -30.5 -11t-11.5 -27v-12q0 -15 11.5 -26.5t34.5 -11.5h19 q21 0 34 12t13 26z" />
<glyph unicode="&#x2190;" horiz-adv-x="391" d="M-2 324l195 188l47 -47l-105 -103h240v-76h-240l105 -103l-47 -47z" />
<glyph unicode="&#x2191;" horiz-adv-x="404" d="M208 515l188 -195l-47 -47l-102 104v-242h-78v242l-102 -104l-47 47z" />
<glyph unicode="&#x2192;" horiz-adv-x="391" d="M393 324l-195 -188l-47 47l105 103h-240v76h240l-105 103l47 47z" />
<glyph unicode="&#x2193;" horiz-adv-x="404" d="M208 127l-188 195l47 47l102 -104v242h78v-242l102 104l47 -47z" />
<glyph unicode="&#x2196;" horiz-adv-x="376" d="M54 464h272v-68h-149l175 -176l-54 -54l-176 176v-149h-68v271z" />
<glyph unicode="&#x2197;" horiz-adv-x="376" d="M50 464h271v-271h-67v149l-176 -176l-54 54l175 176h-149v68z" />
<glyph unicode="&#x2198;" horiz-adv-x="376" d="M321 450v-271h-271v67h150l-176 177l54 54l176 -176v149h67z" />
<glyph unicode="&#x2199;" horiz-adv-x="376" d="M54 179v271h68v-149l176 176l54 -54l-176 -177h150v-67h-272z" />
<glyph unicode="&#x2202;" horiz-adv-x="497" d="M249 413q24 0 62 -8.5t59 -18.5v92q0 60 -38.5 102t-96.5 42h-114v81h130q88 0 147 -62t59 -151v-306q0 -81 -55 -137.5t-135 -56.5h-55q-80 0 -135 56.5t-55 137.5v42q0 79 53.5 133t132.5 54h41zM370 186v122q-61 26 -114 26h-35q-48 0 -80 -34t-32 -82v-32 q0 -49 32.5 -83.5t79.5 -34.5h36q48 0 80.5 35t32.5 83z" />
<glyph unicode="&#x220f;" horiz-adv-x="539" d="M398 0v624h-256v-624h-88v703h430v-703h-86z" />
<glyph unicode="&#x2211;" horiz-adv-x="399" d="M14 640v63h373v-79h-272l166 -272l-166 -273h272v-79h-373v64l170 288z" />
<glyph unicode="&#x2212;" horiz-adv-x="350" d="M15 315v75h320v-75h-320z" />
<glyph unicode="&#x221a;" horiz-adv-x="425" d="M134 390l68 -283l138 596h81l-163 -703h-109l-78 312h-60v78h123z" />
<glyph unicode="&#x221e;" horiz-adv-x="500" d="M153 471q51 0 87 -51l6 -8q57 59 104 59h24q43 0 74 -30t31 -74v-29q0 -44 -31 -74.5t-74 -30.5h-21q-59 0 -99 54l-2 2q-56 -56 -102 -56h-24q-43 0 -73.5 30.5t-30.5 73.5v32q0 43 30.5 72.5t73.5 29.5h27zM351 402q-23 0 -65 -42l16 -20q11 -15 27 -26t28 -11h14 q16 0 27.5 12t11.5 28v18q0 16 -11.5 28.5t-27.5 12.5h-20zM148 303q25 0 63 38l-15 20q-30 41 -51 41h-15q-17 0 -28.5 -12t-11.5 -29v-18q0 -16 11.5 -28t27.5 -12h19z" />
<glyph unicode="&#x222b;" horiz-adv-x="256" d="M88 592q0 47 33 79.5t80 32.5h57v-77h-35q-22 0 -37.5 -16t-15.5 -37v-463q0 -46 -33 -78.5t-80 -32.5h-57v76h35q22 0 37.5 16t15.5 38v462z" />
<glyph unicode="&#x2248;" horiz-adv-x="350" d="M335 470v-68q-45 -22 -85 -22q-28 0 -75 15t-77 15q-39 0 -83 -19v69q45 23 87 23q27 0 71.5 -15t75.5 -15q43 0 86 17zM335 312v-70q-45 -22 -85 -22q-28 0 -75 15t-77 15q-41 0 -83 -18v68q43 22 87 22q27 0 71.5 -15t75.5 -15q43 0 86 20z" />
<glyph unicode="&#x2260;" horiz-adv-x="350" d="M15 396v65h166l27 60h80l-27 -60h74v-65h-102l-38 -87h140v-65h-169l-26 -60h-81l26 60h-70v65h99l38 87h-137z" />
<glyph unicode="&#x2264;" horiz-adv-x="350" d="M25 367v67l300 134v-79l-210 -89l210 -89v-78zM15 148v69h320v-69h-320z" />
<glyph unicode="&#x2265;" horiz-adv-x="350" d="M325 367l-300 -134v78l209 89l-209 89v79l300 -134v-67zM15 148v69h320v-69h-320z" />
<glyph unicode="&#x2460;" horiz-adv-x="690" d="M658 265q0 -112 -80 -193.5t-191 -81.5h-84q-112 0 -191.5 79.5t-79.5 190.5v184q0 111 79.5 190.5t191.5 79.5h84q112 0 191.5 -79.5t79.5 -190.5v-179zM591 443q0 86 -61 148t-146 62h-77q-86 0 -147 -62t-61 -148v-182q0 -86 61 -148t147 -62h77q85 0 146 64.5 t61 150.5v177zM335 147v344l-121 -23v55l148 35h43v-411h-70z" />
<glyph unicode="&#x2461;" horiz-adv-x="690" d="M658 265q0 -112 -80 -193.5t-191 -81.5h-84q-112 0 -191.5 79.5t-79.5 190.5v184q0 111 79.5 190.5t191.5 79.5h84q112 0 191.5 -79.5t79.5 -190.5v-179zM591 443q0 86 -61 148t-146 62h-77q-86 0 -147 -62t-61 -148v-182q0 -86 61 -148t147 -62h77q85 0 146 64.5 t61 150.5v177zM210 147v48l148 163q2 2 7.5 8.5t8 9t7 8t7 8.5t6 8t5.5 8.5t4.5 8t3.5 8.5t2 8.5t1 8.5v10q0 23 -17 38.5t-42 15.5h-13q-25 0 -42.5 -16.5t-17.5 -40.5v-39h-66v41q0 47 34.5 79.5t85.5 32.5h30q50 0 85 -31.5t35 -77.5v-13q0 -11 -1.5 -21t-7 -20.5t-9 -17 t-13.5 -18t-13 -15t-17 -17t-16 -16.5l-99 -108h180v-61h-276z" />
<glyph unicode="&#x2462;" horiz-adv-x="690" d="M658 265q0 -112 -80 -193.5t-191 -81.5h-84q-112 0 -191.5 79.5t-79.5 190.5v184q0 111 79.5 190.5t191.5 79.5h84q112 0 191.5 -79.5t79.5 -190.5v-179zM591 443q0 86 -61 148t-146 62h-77q-86 0 -147 -62t-61 -148v-182q0 -86 61 -148t147 -62h77q85 0 146 64.5 t61 150.5v177zM206 435v20q0 45 34 76.5t84 31.5h37q50 0 85.5 -31.5t35.5 -76.5v-15q0 -26 -18 -52t-48 -34q36 -9 54.5 -34.5t18.5 -53.5v-16q0 -45 -35 -77t-85 -32h-48q-50 0 -84.5 31.5t-34.5 77.5v19h70v-18q0 -23 17.5 -39.5t42.5 -16.5h22q25 0 42.5 16.5t17.5 39.5 v16q0 26 -22 42.5t-56 16.5h-58v52h55q31 0 54 18.5t23 44.5v13q0 23 -17.5 39t-42.5 16h-16q-25 0 -41.5 -16t-16.5 -39v-19h-70z" />
<glyph unicode="&#x2463;" horiz-adv-x="690" d="M658 265q0 -112 -80 -193.5t-191 -81.5h-84q-112 0 -191.5 79.5t-79.5 190.5v184q0 111 79.5 190.5t191.5 79.5h84q112 0 191.5 -79.5t79.5 -190.5v-179zM591 443q0 86 -61 148t-146 62h-77q-86 0 -147 -62t-61 -148v-182q0 -86 61 -148t147 -62h77q85 0 146 64.5 t61 150.5v177zM359 558h78v-272h48v-56h-48v-83h-68v83h-187v49zM257 285h115v182z" />
<glyph unicode="&#x2464;" horiz-adv-x="690" d="M658 265q0 -112 -80 -193.5t-191 -81.5h-84q-112 0 -191.5 79.5t-79.5 190.5v184q0 111 79.5 190.5t191.5 79.5h84q112 0 191.5 -79.5t79.5 -190.5v-179zM591 443q0 86 -61 148t-146 62h-77q-86 0 -147 -62t-61 -148v-182q0 -86 61 -148t147 -62h77q85 0 146 64.5 t61 150.5v177zM208 254v22h68v-21q0 -24 17.5 -41t43.5 -17h20q26 0 43.5 17.5t17.5 41.5v22q0 26 -19 44t-49 18h-135v218h266v-59h-199v-103h83q53 0 88.5 -33t35.5 -81v-28q0 -47 -35.5 -80t-86.5 -33h-38q-51 0 -86 32.5t-35 80.5z" />
<glyph unicode="&#x2465;" horiz-adv-x="690" d="M658 265q0 -112 -80 -193.5t-191 -81.5h-84q-112 0 -191.5 79.5t-79.5 190.5v184q0 111 79.5 190.5t191.5 79.5h84q112 0 191.5 -79.5t79.5 -190.5v-179zM591 443q0 86 -61 148t-146 62h-77q-86 0 -147 -62t-61 -148v-182q0 -86 61 -148t147 -62h77q85 0 146 64.5 t61 150.5v177zM273 441v-65q32 15 71 15h26q50 0 85.5 -31t35.5 -77v-27q0 -47 -36.5 -81t-88.5 -34h-38q-52 0 -88 33.5t-36 80.5v190q0 49 36.5 83.5t90.5 34.5h31q52 0 88 -33.5t36 -81.5v-21h-69v18q0 24 -18 42t-45 18h-14q-29 0 -48 -18.5t-19 -45.5zM338 336 q-21 0 -65 -11v-68q0 -25 18.5 -42.5t44.5 -17.5h21q27 0 45 17.5t18 42.5v19q0 24 -18 42t-45 18h-19z" />
<glyph unicode="&#x2466;" horiz-adv-x="690" d="M658 265q0 -112 -80 -193.5t-191 -81.5h-84q-112 0 -191.5 79.5t-79.5 190.5v184q0 111 79.5 190.5t191.5 79.5h84q112 0 191.5 -79.5t79.5 -190.5v-179zM591 443q0 86 -61 148t-146 62h-77q-86 0 -147 -62t-61 -148v-182q0 -86 61 -148t147 -62h77q85 0 146 64.5 t61 150.5v177zM251 147l153 349h-192v62h274v-46l-160 -365h-75z" />
<glyph unicode="&#x2467;" horiz-adv-x="690" d="M658 265q0 -112 -80 -193.5t-191 -81.5h-84q-112 0 -191.5 79.5t-79.5 190.5v184q0 111 79.5 190.5t191.5 79.5h84q112 0 191.5 -79.5t79.5 -190.5v-179zM591 443q0 86 -61 148t-146 62h-77q-86 0 -147 -62t-61 -148v-182q0 -86 61 -148t147 -62h77q85 0 146 64.5 t61 150.5v177zM202 442v14q0 46 35.5 76.5t86.5 30.5h41q52 0 86.5 -30.5t34.5 -75.5v-16q0 -28 -16.5 -52.5t-45.5 -34.5q31 -9 49.5 -35.5t18.5 -55.5v-15q0 -45 -33.5 -76t-85.5 -31h-53q-52 0 -87 30.5t-35 76.5v15q0 30 18.5 57t49.5 33q-31 10 -47.5 35.5t-16.5 53.5z M352 325h-17q-33 0 -50 -17.5t-17 -39.5v-14q0 -24 18.5 -40.5t44.5 -16.5h30q26 0 42.5 16.5t16.5 40.5v14q0 24 -17 40.5t-51 16.5zM417 439v12q0 23 -17.5 39t-44.5 16h-23q-25 0 -42.5 -15.5t-17.5 -39.5v-12q0 -24 16 -41t49 -17h13q33 0 50 18t17 40z" />
<glyph unicode="&#x2468;" horiz-adv-x="690" d="M658 265q0 -112 -80 -193.5t-191 -81.5h-84q-112 0 -191.5 79.5t-79.5 190.5v184q0 111 79.5 190.5t191.5 79.5h84q112 0 191.5 -79.5t79.5 -190.5v-179zM591 443q0 86 -61 148t-146 62h-77q-86 0 -147 -62t-61 -148v-182q0 -86 61 -148t147 -62h77q85 0 146 64.5 t61 150.5v177zM417 263v66q-34 -14 -71 -14h-25q-51 0 -86 31.5t-35 77.5v24q0 48 36.5 81.5t88.5 33.5h37q53 0 89 -33t36 -81v-189q0 -50 -36.5 -84.5t-90.5 -34.5h-31q-53 0 -88.5 33.5t-35.5 81.5v21h68v-18q0 -24 18.5 -41.5t45.5 -17.5h14q29 0 47.5 18t18.5 45z M353 371q32 0 64 10v66q0 25 -18 42.5t-45 17.5h-21q-27 0 -45 -17.5t-18 -42.5v-17q0 -24 18 -41.5t45 -17.5h20z" />
<glyph unicode="&#x2469;" horiz-adv-x="690" d="M658 265q0 -112 -80 -193.5t-191 -81.5h-84q-112 0 -191.5 79.5t-79.5 190.5v184q0 111 79.5 190.5t191.5 79.5h84q112 0 191.5 -79.5t79.5 -190.5v-179zM591 443q0 86 -61 148t-146 62h-77q-86 0 -147 -62t-61 -148v-182q0 -86 61 -148t147 -62h77q85 0 146 64.5 t61 150.5v177zM544 436v-172q0 -42 -31 -71t-76 -29h-22q-44 0 -75.5 29t-31.5 71v172q0 41 31.5 70t75.5 29h22q45 0 76 -29t31 -70zM420 215h12q22 0 37.5 15t15.5 37v165q0 22 -15.5 37t-37.5 15h-12q-22 0 -37.5 -15t-15.5 -37v-165q0 -22 15.5 -37t37.5 -15zM206 170 v302l-79 -15v48l105 25h34v-360h-60z" />
<glyph unicode="&#x25ca;" horiz-adv-x="448" d="M277 0h-106l-173 352l173 351h106l173 -351zM359 352l-136 271l-133 -271l134 -273z" />
<glyph unicode="&#x2776;" horiz-adv-x="690" d="M658 265q0 -112 -80 -193.5t-191 -81.5h-84q-112 0 -191.5 79.5t-79.5 190.5v184q0 111 79.5 190.5t191.5 79.5h84q112 0 191.5 -79.5t79.5 -190.5v-179zM335 491v-344h70v411h-43l-148 -35v-55z" />
<glyph unicode="&#x2777;" horiz-adv-x="690" d="M658 265q0 -112 -80 -193.5t-191 -81.5h-84q-112 0 -191.5 79.5t-79.5 190.5v184q0 111 79.5 190.5t191.5 79.5h84q112 0 191.5 -79.5t79.5 -190.5v-179zM210 195v-48h276v61h-180l99 108q2 3 16 16.5t17 17t13 15t13.5 18t9 17t7 20.5t1.5 21v13q0 46 -35 77.5t-85 31.5 h-30q-51 0 -85.5 -32.5t-34.5 -79.5v-41h66v39q0 24 17.5 40.5t42.5 16.5h13q25 0 42 -15.5t17 -38.5v-10q0 -5 -1 -9.5t-3 -9.5t-3.5 -9t-5.5 -9.5t-6 -8.5t-8 -10t-8 -9t-8.5 -9.5t-8.5 -9.5z" />
<glyph unicode="&#x2778;" horiz-adv-x="690" d="M658 265q0 -112 -80 -193.5t-191 -81.5h-84q-112 0 -191.5 79.5t-79.5 190.5v184q0 111 79.5 190.5t191.5 79.5h84q112 0 191.5 -79.5t79.5 -190.5v-179zM206 455v-20h70v19q0 23 16.5 39t41.5 16h16q25 0 42.5 -16t17.5 -39v-13q0 -26 -23 -44.5t-54 -18.5h-55v-52h58 q34 0 56 -16.5t22 -42.5v-16q0 -23 -17.5 -39.5t-42.5 -16.5h-22q-25 0 -42.5 16.5t-17.5 39.5v18h-70v-19q0 -46 34.5 -77.5t84.5 -31.5h48q50 0 85 32t35 77v16q0 28 -18.5 53.5t-54.5 34.5q30 8 48 34t18 52v15q0 45 -35.5 76.5t-85.5 31.5h-37q-50 0 -84 -31.5 t-34 -76.5z" />
<glyph unicode="&#x2779;" horiz-adv-x="690" d="M658 265q0 -112 -80 -193.5t-191 -81.5h-84q-112 0 -191.5 79.5t-79.5 190.5v184q0 111 79.5 190.5t191.5 79.5h84q112 0 191.5 -79.5t79.5 -190.5v-179zM442 558h-79l-177 -279v-49h187v-83h69v83h47v56h-47v272zM376 285h-115l115 182v-182z" />
<glyph unicode="&#x277a;" horiz-adv-x="690" d="M658 265q0 -112 -80 -193.5t-191 -81.5h-84q-112 0 -191.5 79.5t-79.5 190.5v184q0 111 79.5 190.5t191.5 79.5h84q112 0 191.5 -79.5t79.5 -190.5v-179zM208 276v-22q0 -48 35 -80.5t86 -32.5h38q51 0 86.5 33t35.5 80v28q0 48 -35.5 81t-88.5 33h-83v103h199v59h-266 v-218h135q30 0 49 -18t19 -44v-22q0 -24 -17.5 -41.5t-43.5 -17.5h-20q-26 0 -43.5 17t-17.5 41v21h-68z" />
<glyph unicode="&#x277b;" horiz-adv-x="690" d="M658 265q0 -112 -80 -193.5t-191 -81.5h-84q-112 0 -191.5 79.5t-79.5 190.5v184q0 111 79.5 190.5t191.5 79.5h84q112 0 191.5 -79.5t79.5 -190.5v-179zM273 377v64q0 27 19 45.5t48 18.5h14q27 0 45 -18t18 -42v-18h69v21q0 48 -36 81.5t-88 33.5h-31 q-54 0 -90.5 -34.5t-36.5 -83.5v-190q0 -47 36 -80.5t88 -33.5h38q52 0 88.5 34t36.5 81v27q0 46 -35.5 77t-85.5 31h-26q-37 0 -71 -14zM338 336h19q27 0 45 -18t18 -42v-19q0 -25 -18 -42.5t-45 -17.5h-21q-26 0 -44.5 17.5t-18.5 42.5v68q44 11 65 11z" />
<glyph unicode="&#x277c;" horiz-adv-x="690" d="M658 265q0 -112 -80 -193.5t-191 -81.5h-84q-112 0 -191.5 79.5t-79.5 190.5v184q0 111 79.5 190.5t191.5 79.5h84q112 0 191.5 -79.5t79.5 -190.5v-179zM404 496l-153 -349h75l160 365v46h-274v-62h192z" />
<glyph unicode="&#x277d;" horiz-adv-x="690" d="M658 265q0 -112 -80 -193.5t-191 -81.5h-84q-112 0 -191.5 79.5t-79.5 190.5v184q0 111 79.5 190.5t191.5 79.5h84q112 0 191.5 -79.5t79.5 -190.5v-179zM202 442q0 -28 16.5 -53.5t47.5 -35.5q-31 -6 -49.5 -33t-18.5 -57v-15q0 -46 35 -76.5t87 -30.5h53q52 0 85.5 31 t33.5 76v15q0 29 -18.5 55.5t-49.5 35.5q29 10 45.5 34.5t16.5 52.5v16q0 45 -34.5 75.5t-86.5 30.5h-41q-51 0 -86.5 -30.5t-35.5 -76.5v-14zM335 325h17q34 0 51 -16.5t17 -40.5v-14q0 -24 -16.5 -40.5t-42.5 -16.5h-30q-26 0 -44.5 16.5t-18.5 40.5v14q0 22 17 39.5 t50 17.5zM417 439q0 -22 -17 -40t-50 -18h-13q-33 0 -49 17t-16 41v12q0 24 17.5 39.5t42.5 15.5h23q27 0 44.5 -16t17.5 -39v-12z" />
<glyph unicode="&#x277e;" horiz-adv-x="690" d="M658 265q0 -112 -80 -193.5t-191 -81.5h-84q-112 0 -191.5 79.5t-79.5 190.5v184q0 111 79.5 190.5t191.5 79.5h84q112 0 191.5 -79.5t79.5 -190.5v-179zM417 329v-66q0 -27 -18.5 -45t-47.5 -18h-14q-27 0 -45.5 17.5t-18.5 41.5v18h-68v-21q0 -48 35.5 -81.5 t88.5 -33.5h31q54 0 90.5 34.5t36.5 84.5v189q0 48 -36 81t-89 33h-37q-52 0 -88.5 -33.5t-36.5 -81.5v-24q0 -46 35 -77.5t86 -31.5h25q37 0 71 14zM353 371h-20q-27 0 -45 17.5t-18 41.5v17q0 25 18 42.5t45 17.5h21q27 0 45 -17.5t18 -42.5v-66q-32 -10 -64 -10z" />
<glyph unicode="&#x277f;" horiz-adv-x="690" d="M658 265q0 -112 -80 -193.5t-191 -81.5h-84q-112 0 -191.5 79.5t-79.5 190.5v184q0 111 79.5 190.5t191.5 79.5h84q112 0 191.5 -79.5t79.5 -190.5v-179zM196 476v-316h66v380h-38l-111 -27v-53zM562 259v181q0 44 -33 75t-81 31h-23q-47 0 -81 -31t-34 -75v-181 q0 -43 34 -74t81 -31h23q48 0 81 30.5t33 74.5zM376 436q0 22 16 37.5t38 15.5h12q23 0 38.5 -15.5t15.5 -37.5v-173q0 -22 -15.5 -37.5t-38.5 -15.5h-12q-22 0 -38 15.5t-16 37.5v173z" />
<glyph unicode="&#xe000;" horiz-adv-x="510" d="M0 510h510v-510h-510v510z" />
<glyph unicode="&#xfb01;" horiz-adv-x="445" d="M9 432v76h67v49q0 61 40.5 103.5t101.5 42.5h172v-75h-158q-70 0 -70 -82v-38h94v-76h-94v-432h-86v432h-67zM303 0v508h87v-508h-87z" />
<glyph unicode="&#xfb02;" horiz-adv-x="445" d="M9 432v76h67v49q0 61 40.5 103.5t101.5 42.5h172v-703h-87v632h-71q-70 0 -70 -86v-38h94v-76h-94v-432h-86v432h-67z" />
<glyph horiz-adv-x="194" />
<glyph horiz-adv-x="450" d="M181 0v283l-186 420h87l143 -326l144 326h86l-186 -420v-283h-88zM96 771v68h255v-68h-255z" />
<glyph horiz-adv-x="473" d="M54 0v703h88v-703h-88zM189 0v79h35q52 0 81.5 35.5t29.5 85.5v503h88v-520q0 -78 -50.5 -130.5t-130.5 -52.5h-53zM71 734l-32 56l158 95l34 -58zM351 734l-32 56l158 95l34 -58z" />
<glyph horiz-adv-x="418" d="M17 -197v76h65q35 0 54.5 16t31.5 52l17 53h-38l-147 508h88l121 -423l121 423h88l-147 -508l-28 -84q-20 -61 -58 -87t-97 -26h-71zM81 578v68h255v-68h-255z" />
<glyph horiz-adv-x="396" d="M135 -196v75h49q33 0 51 23t18 60v546h88v-566q0 -58 -38.5 -98t-95.5 -40h-72zM71 541l-33 55l158 95l35 -57zM269 541l-33 55l158 95l35 -57zM54 0v508h88v-508h-88z" />
<glyph horiz-adv-x="317" d="M310 442v-56h-33q-47 0 -62 31q-27 -34 -76 -34h-35q-33 0 -57.5 21t-24.5 61t23.5 62.5t59.5 22.5h104v48q0 20 -12.5 35.5t-32.5 15.5h-15q-23 0 -36 -15.5t-13 -36.5v-14h-63v25q0 41 28.5 70.5t72.5 29.5h39q43 0 70.5 -28t27.5 -69v-138q0 -31 27 -31h8zM131 432h21 q20 0 38 12.5t19 40.5v18h-77q-41 0 -41 -35q0 -36 40 -36z" />
<glyph horiz-adv-x="329" d="M40 386v439h66v-154q28 37 68 37h32q39 0 65 -27t26 -66v-126q0 -45 -29.5 -76.5t-74.5 -31.5h-29q-39 0 -60 24v-19h-64zM164 649q-22 0 -38 -17t-18 -40v-112q0 -18 14 -29t34 -11h24q24 0 37 17.5t13 42.5v97q0 21 -12 36.5t-32 15.5h-22z" />
<glyph horiz-adv-x="316" d="M221 519h65v-28q0 -46 -30 -78t-75 -32h-42q-45 0 -76.5 32t-31.5 78v106q0 46 31.5 78.5t76.5 32.5h42q45 0 75 -32t30 -79v-28h-65v22q0 24 -13 41t-36 17h-24q-23 0 -36.5 -17t-13.5 -41v-93q0 -24 14 -41t37 -17h23q23 0 36 17t13 41v21z" />
<glyph horiz-adv-x="328" d="M287 825v-439h-65v32q-29 -37 -69 -37h-31q-39 0 -65 27t-26 66v123q0 47 30.5 79t75.5 32h29q36 0 55 -21v138h66zM141 440h22q22 0 38.5 17t18.5 40v115q-1 17 -15 27t-33 10h-24q-24 0 -37 -17.5t-13 -42.5v-97q0 -22 11 -37t32 -15z" />
<glyph horiz-adv-x="313" d="M221 509h63v-16q0 -48 -30 -80t-74 -32h-41q-45 0 -76.5 31.5t-31.5 78.5v108q0 45 31 77t77 32h38q46 0 76.5 -31.5t30.5 -77.5v-54h-188v-51q0 -24 14 -41t38 -17h21q23 0 37.5 17.5t14.5 42.5v13zM96 598v-7h126v7q0 24 -14 41t-37 17h-24q-23 0 -37 -17t-14 -41z" />
<glyph horiz-adv-x="313" d="M221 509h63v-16q0 -48 -30 -80t-74 -32h-41q-45 0 -76.5 31.5t-31.5 78.5v108q0 45 31 77t77 32h38q46 0 76.5 -31.5t30.5 -77.5v-54h-188v-51q0 -24 14 -41t38 -17h21q23 0 37.5 17.5t14.5 42.5v13zM96 598v-7h126v7q0 24 -14 41t-37 17h-24q-23 0 -37 -17t-14 -41z M192 730l-102 57l26 44l100 -60z" />
<glyph horiz-adv-x="177" d="M12 645v58h40v27q0 40 26 67.5t67 27.5h56v-55h-40q-43 0 -43 -47v-20h62v-58h-62v-259h-66v259h-40z" />
<glyph horiz-adv-x="316" d="M270 647h-1q6 -17 6 -33v-27q0 -40 -26.5 -66.5t-69.5 -26.5h-52q-13 0 -25 3v-19v-4q0 -28 32 -28h82q36 0 61.5 -24t25.5 -57v-16q0 -42 -27.5 -67t-82.5 -25h-79q-46 0 -70 24.5t-24 53.5v21q0 49 42 62q-16 16 -16 41v13q0 32 9 51q-24 26 -24 63v28q0 40 27.5 67 t70.5 27h53q27 0 50 -15q16 9 36 9h40v-55h-38zM119 390q-37 -3 -37 -37v-6q0 -15 10.5 -26t31.5 -11h63q52 0 52 40v5q0 14 -11.5 24.5t-27.5 10.5h-81zM142 657q-22 0 -34 -13.5t-12 -35.5v-15q0 -22 12.5 -35.5t33.5 -13.5h23q21 0 33 14t12 35v15q0 22 -12 35.5 t-33 13.5h-23z" />
<glyph horiz-adv-x="332" d="M185 646h-21q-22 0 -38 -16.5t-18 -38.5v-205h-68v439h68v-158q21 41 75 41h29q35 0 58 -26t23 -63v-233h-68v212q0 20 -10.5 34t-29.5 14z" />
<glyph horiz-adv-x="149" d="M40 385v318h68v-318h-68zM40 749v61h68v-61h-68z" />
<glyph horiz-adv-x="151" d="M-28 271v55h29q20 0 30.5 13t10.5 34v330h68v-342q0 -38 -25 -64t-64 -26h-49zM42 749v61h68v-61h-68z" />
<glyph horiz-adv-x="299" d="M40 385v440h68v-252h43l61 130h73l-74 -158l84 -160h-74l-69 130h-44v-130h-68z" />
<glyph horiz-adv-x="149" d="M40 386v439h68v-439h-68z" />
<glyph horiz-adv-x="496" d="M350 646h-13q-23 0 -39.5 -18.5t-16.5 -41.5v-200h-65v212q0 20 -10.5 34t-29.5 14h-14q-22 0 -38 -17.5t-17 -39.5v-203h-67v317h66v-36q25 41 73 41h25q48 0 68 -45q28 45 80 45h21q38 0 61 -26t23 -65v-231h-67v212q0 20 -10.5 34t-29.5 14z" />
<glyph horiz-adv-x="323" d="M139 708h44q46 0 77 -32t31 -79v-106q0 -46 -31 -78t-77 -32h-44q-45 0 -76.5 32t-31.5 78v106q0 46 31.5 78.5t76.5 32.5zM149 440h24q23 0 37.5 17t14.5 41v93q0 24 -14.5 41t-37.5 17h-24q-23 0 -37 -17t-14 -41v-93q0 -24 14 -41t37 -17z" />
<glyph horiz-adv-x="329" d="M40 272v431h65v-34q27 39 69 39h32q39 0 65 -27t26 -66v-124q0 -46 -30.5 -78t-75.5 -32h-29q-39 0 -56 20v-129h-66zM164 649q-22 0 -38 -17t-18 -40v-112q0 -18 14 -29t34 -11h24q24 0 37 17.5t13 42.5v97q0 21 -12 36.5t-32 15.5h-22z" />
<glyph horiz-adv-x="329" d="M287 703v-431h-66v145q-29 -36 -67 -36h-32q-39 0 -65 27t-26 66v127q0 45 29.5 76t73.5 31h31q38 0 58 -25v20h64zM142 440h21q23 0 39 17t18 40v115q-1 17 -15 27t-33 10h-23q-24 0 -37.5 -17.5t-13.5 -42.5v-97q0 -22 11.5 -37t32.5 -15z" />
<glyph horiz-adv-x="217" d="M40 385v318h65v-40q23 40 77 40h24v-63h-25q-34 0 -53.5 -22t-19.5 -54v-179h-68z" />
<glyph horiz-adv-x="307" d="M26 468v27h67v-17q0 -44 49 -44h23q48 0 48 39v4q0 40 -56 40h-11q-114 0 -114 86v12q0 40 28.5 66.5t75.5 26.5h38q45 0 73 -26t28 -63v-21h-66v15q0 19 -12 31t-35 12h-17q-23 0 -35 -11t-12 -28v-3q0 -42 57 -42h12q54 0 84 -21t30 -62v-17q0 -39 -29 -65t-72 -26h-52 q-45 0 -73.5 25.5t-28.5 61.5z" />
<glyph horiz-adv-x="278" d="M12 645v58h36v64h65v-64h145v-58h-145v-163q0 -42 38 -42h11q43 0 43 43v21h59v-33q0 -39 -25.5 -65t-66.5 -26h-35q-42 0 -65.5 26t-23.5 62v177h-36z" />
<glyph horiz-adv-x="331" d="M145 443h22q22 0 38.5 18.5t16.5 40.5v201h68v-317h-65v40q-11 -22 -34 -33.5t-43 -11.5h-25q-36 0 -60.5 26t-24.5 63v233h68v-212q0 -20 10 -34t29 -14z" />
<glyph horiz-adv-x="288" d="M193 386h-98l-87 317h67l69 -248l68 248h67z" />
<glyph horiz-adv-x="436" d="M167 386h-80l-67 317h62l50 -239l56 239h60l59 -239l50 239h62l-68 -317h-79l-54 211z" />
<glyph horiz-adv-x="279" d="M77 703l63 -103l61 103h71l-94 -157l94 -160h-71l-61 105l-63 -105h-71l94 160l-94 157h71z" />
<glyph horiz-adv-x="288" d="M26 271v55h46q21 0 31 9t18 31l5 20h-30l-88 317h67l69 -250l68 250h67l-87 -317h-1l-12 -40q-23 -75 -104 -75h-49z" />
<glyph horiz-adv-x="276" d="M24 643v60h229v-43l-147 -213h148v-61h-232v47l146 210h-144z" />
<glyph horiz-adv-x="317" d="M310 56v-56h-33q-47 0 -62 31q-27 -34 -76 -34h-35q-33 0 -57.5 21t-24.5 61t23.5 62.5t59.5 22.5h104v48q0 20 -12.5 35.5t-32.5 15.5h-15q-23 0 -36 -15.5t-13 -36.5v-14h-63v25q0 41 28.5 70.5t72.5 29.5h39q43 0 70.5 -28t27.5 -69v-138q0 -31 27 -31h8zM131 46h21 q20 0 38 12.5t19 40.5v18h-77q-41 0 -41 -35q0 -36 40 -36z" />
<glyph horiz-adv-x="329" d="M40 0v439h66v-154q28 37 68 37h32q39 0 65 -27t26 -66v-126q0 -45 -29.5 -76.5t-74.5 -31.5h-29q-39 0 -60 24v-19h-64zM164 263q-22 0 -38 -17t-18 -40v-112q0 -18 14 -29t34 -11h24q24 0 37 17.5t13 42.5v97q0 21 -12 36.5t-32 15.5h-22z" />
<glyph horiz-adv-x="316" d="M221 133h65v-28q0 -46 -30 -78t-75 -32h-42q-45 0 -76.5 32t-31.5 78v106q0 46 31.5 78.5t76.5 32.5h42q45 0 75 -32t30 -79v-28h-65v22q0 24 -13 41t-36 17h-24q-23 0 -36.5 -17t-13.5 -41v-93q0 -24 14 -41t37 -17h23q23 0 36 17t13 41v21z" />
<glyph horiz-adv-x="328" d="M287 439v-439h-65v32q-29 -37 -69 -37h-31q-39 0 -65 27t-26 66v123q0 47 30.5 79t75.5 32h29q36 0 55 -21v138h66zM141 54h22q22 0 38.5 17t18.5 40v115q-1 17 -15 27t-33 10h-24q-24 0 -37 -17.5t-13 -42.5v-97q0 -22 11 -37t32 -15z" />
<glyph horiz-adv-x="313" d="M221 123h63v-16q0 -48 -30 -80t-74 -32h-41q-45 0 -76.5 31.5t-31.5 78.5v108q0 45 31 77t77 32h38q46 0 76.5 -31.5t30.5 -77.5v-54h-188v-51q0 -24 14 -41t38 -17h21q23 0 37.5 17.5t14.5 42.5v13zM96 212v-7h126v7q0 24 -14 41t-37 17h-24q-23 0 -37 -17t-14 -41z" />
<glyph horiz-adv-x="177" d="M12 259v58h40v27q0 40 26 67.5t67 27.5h56v-55h-40q-43 0 -43 -47v-20h62v-58h-62v-259h-66v259h-40z" />
<glyph horiz-adv-x="316" d="M270 261h-1q6 -17 6 -33v-27q0 -40 -26.5 -66.5t-69.5 -26.5h-52q-13 0 -25 3v-19v-4q0 -28 32 -28h82q36 0 61.5 -24t25.5 -57v-16q0 -42 -27.5 -67t-82.5 -25h-79q-46 0 -70 24.5t-24 53.5v21q0 49 42 62q-16 16 -16 41v13q0 32 9 51q-24 26 -24 63v28q0 40 27.5 67 t70.5 27h53q27 0 50 -15q16 9 36 9h40v-55h-38zM119 4q-37 -3 -37 -37v-6q0 -15 10.5 -26t31.5 -11h63q52 0 52 40v5q0 14 -11.5 24.5t-27.5 10.5h-81zM142 271q-22 0 -34 -13.5t-12 -35.5v-15q0 -22 12.5 -35.5t33.5 -13.5h23q21 0 33 14t12 35v15q0 22 -12 35.5t-33 13.5 h-23z" />
<glyph horiz-adv-x="332" d="M185 260h-21q-22 0 -38 -16.5t-18 -38.5v-205h-68v439h68v-158q21 41 75 41h29q35 0 58 -26t23 -63v-233h-68v212q0 20 -10.5 34t-29.5 14z" />
<glyph horiz-adv-x="149" d="M40 -1v318h68v-318h-68zM40 363v61h68v-61h-68z" />
<glyph horiz-adv-x="151" d="M-28 -115v55h29q20 0 30.5 13t10.5 34v330h68v-342q0 -38 -25 -64t-64 -26h-49zM42 363v61h68v-61h-68z" />
<glyph horiz-adv-x="299" d="M40 -1v440h68v-252h43l61 130h73l-74 -158l84 -160h-74l-69 130h-44v-130h-68z" />
<glyph horiz-adv-x="149" d="M40 0v439h68v-439h-68z" />
<glyph horiz-adv-x="496" d="M350 260h-13q-23 0 -39.5 -18.5t-16.5 -41.5v-200h-65v212q0 20 -10.5 34t-29.5 14h-14q-22 0 -38 -17.5t-17 -39.5v-203h-67v317h66v-36q25 41 73 41h25q48 0 68 -45q28 45 80 45h21q38 0 61 -26t23 -65v-231h-67v212q0 20 -10.5 34t-29.5 14z" />
<glyph horiz-adv-x="332" d="M185 260h-21q-23 0 -39 -17.5t-17 -39.5v-203h-68v317h67v-39q20 44 76 44h28q36 0 59 -26t23 -63v-233h-68v212q0 20 -10.5 34t-29.5 14z" />
<glyph horiz-adv-x="323" d="M139 322h44q46 0 77 -32t31 -79v-106q0 -46 -31 -78t-77 -32h-44q-45 0 -76.5 32t-31.5 78v106q0 46 31.5 78.5t76.5 32.5zM149 54h24q23 0 37.5 17t14.5 41v93q0 24 -14.5 41t-37.5 17h-24q-23 0 -37 -17t-14 -41v-93q0 -24 14 -41t37 -17z" />
<glyph horiz-adv-x="329" d="M40 -114v431h65v-34q27 39 69 39h32q39 0 65 -27t26 -66v-124q0 -46 -30.5 -78t-75.5 -32h-29q-39 0 -56 20v-129h-66zM164 263q-22 0 -38 -17t-18 -40v-112q0 -18 14 -29t34 -11h24q24 0 37 17.5t13 42.5v97q0 21 -12 36.5t-32 15.5h-22z" />
<glyph horiz-adv-x="329" d="M287 317v-431h-66v145q-29 -36 -67 -36h-32q-39 0 -65 27t-26 66v127q0 45 29.5 76t73.5 31h31q37 0 58 -24v19h64zM142 54h21q23 0 39 17t18 40v115q-1 17 -15 27t-33 10h-23q-24 0 -37.5 -17.5t-13.5 -42.5v-97q0 -22 11.5 -37t32.5 -15z" />
<glyph horiz-adv-x="217" d="M40 -1v318h65v-40q23 40 77 40h24v-63h-25q-34 0 -53.5 -22t-19.5 -54v-179h-68z" />
<glyph horiz-adv-x="307" d="M26 82v27h67v-17q0 -44 49 -44h23q48 0 48 39v4q0 40 -56 40h-11q-114 0 -114 86v12q0 40 28.5 66.5t75.5 26.5h38q45 0 73 -26t28 -63v-21h-66v15q0 19 -12 31t-35 12h-17q-23 0 -35 -11t-12 -28v-3q0 -42 57 -42h12q54 0 84 -21t30 -62v-17q0 -39 -29 -65t-72 -26h-52 q-45 0 -73.5 25.5t-28.5 61.5z" />
<glyph horiz-adv-x="278" d="M12 259v58h36v64h65v-64h145v-58h-145v-163q0 -42 38 -42h11q43 0 43 43v21h59v-33q0 -39 -25.5 -65t-66.5 -26h-35q-42 0 -65.5 26t-23.5 62v177h-36z" />
<glyph horiz-adv-x="331" d="M145 57h22q22 0 38.5 18.5t16.5 40.5v201h68v-317h-65v40q-11 -22 -34 -33.5t-43 -11.5h-25q-36 0 -60.5 26t-24.5 63v233h68v-212q0 -20 10 -34t29 -14z" />
<glyph horiz-adv-x="288" d="M193 0h-98l-87 317h67l69 -248l68 248h67z" />
<glyph horiz-adv-x="436" d="M167 0h-80l-67 317h62l50 -239l56 239h60l59 -239l50 239h62l-68 -317h-79l-54 211z" />
<glyph horiz-adv-x="279" d="M77 317l63 -103l61 103h71l-94 -157l94 -160h-71l-61 105l-63 -105h-71l94 160l-94 157h71z" />
<glyph horiz-adv-x="288" d="M26 -115v55h46q21 0 31 9t18 31l5 20h-30l-88 317h67l69 -250l68 250h67l-87 -317h-1l-12 -40q-23 -75 -104 -75h-49z" />
<glyph horiz-adv-x="276" d="M24 257v60h229v-43l-147 -213h148v-61h-232v47l146 210h-144z" />
<glyph horiz-adv-x="248" d="M9 432v76h67v49q0 61 40.5 103.5t101.5 42.5h124v-75h-110q-70 0 -70 -82v-38h99v-76h-99v-432h-86v432h-67z" />
<glyph horiz-adv-x="240" d="M9 432v76h67v49q0 61 40.5 103.5t101.5 42.5h68v-75h-54q-70 0 -70 -82v-38h158v-76h-158v-432h-86v432h-67z" />
<glyph horiz-adv-x="247" d="M9 432v76h67v49q0 61 40.5 103.5t101.5 42.5h131v-71h-117q-70 0 -70 -86v-38h94v-76h-94v-432h-86v432h-67z" />
<glyph d="M54 0v508h88v-508h-88zM54 628v75h88v-75h-88z" />
<glyph horiz-adv-x="200" d="M57 -196v704h88v-636q0 -35 -19 -51.5t-49 -16.5h-20zM57 569v84h88v-84h-88z" />
<glyph horiz-adv-x="200" d="M57 628v75h88v-75h-88zM-61 -196v75h49q33 0 51 23t18 60v546h88v-566q0 -58 -38.5 -98t-95.5 -40h-72z" />
<glyph horiz-adv-x="365" d="M54 0v703h88v-624h233v-79h-321z" />
<glyph horiz-adv-x="377" d="M145 0v624h-155v79h397v-79h-155v-624h-87z" />
<glyph horiz-adv-x="528" d="M40 514q0 82 58.5 140.5t140.5 58.5h50q83 0 141 -58.5t58 -140.5v-325q0 -83 -58 -141t-141 -58h-50q-82 0 -140.5 58.5t-58.5 140.5v325zM128 512v-321q0 -28 13 -56l196 483q-26 14 -55 14h-36q-49 0 -83.5 -35t-34.5 -85zM401 512q0 31 -13 54l-195 -482 q23 -13 53 -13h36q49 0 84 35t35 85v321z" />
<glyph horiz-adv-x="488" d="M451 170q0 -74 -50 -125.5t-123 -51.5h-68q-73 0 -123 51.5t-50 125.5v168q0 73 50 125t123 52h68q73 0 123 -52t50 -125v-168zM124 182q0 -28 9 -51l178 297q-22 10 -44 10h-46q-46 0 -71.5 -33t-25.5 -80v-143zM364 325q0 26 -9 50l-177 -296q17 -10 43 -10h46 q46 0 71.5 33t25.5 80v143z" />
<glyph horiz-adv-x="488" d="M451 170q0 -74 -50 -125.5t-123 -51.5h-68q-73 0 -123 51.5t-50 125.5v168q0 73 50 125t123 52h68q73 0 123 -52t50 -125v-168zM364 325q0 47 -25.5 80t-71.5 33h-46q-46 0 -71.5 -33t-25.5 -80v-143q0 -47 25.5 -80t71.5 -33h46q46 0 71.5 33t25.5 80v143z" />
<glyph horiz-adv-x="300" d="M158 0v419l-156 -33v74l189 48h55v-508h-88z" />
<glyph horiz-adv-x="457" d="M26 0v68l224 167q79 59 79 112v12q0 36 -24 60.5t-67 24.5h-31q-42 0 -66 -31t-24 -75v-48h-81v57q0 71 46.5 119.5t117.5 48.5h52q75 0 119 -43t44 -109v-14q0 -85 -92 -154l-159 -119h274v-76h-412z" />
<glyph horiz-adv-x="494" d="M35 299v33q0 77 51.5 130t127.5 53h51q76 0 129.5 -53.5t53.5 -129.5v-23q0 -46 -27.5 -90.5t-71.5 -61.5q52 -18 81.5 -61.5t29.5 -92.5v-27q0 -76 -53.5 -130t-129.5 -54h-67q-77 0 -130 53.5t-53 130.5v31h86v-30q0 -44 32 -76.5t76 -32.5h39q44 0 75.5 32.5 t31.5 76.5v28q0 49 -38.5 80.5t-98.5 31.5h-92v74h88q53 0 93 34.5t40 85.5v20q0 44 -31 76t-75 32h-28q-44 0 -74 -31.5t-30 -76.5v-32h-86z" />
<glyph horiz-adv-x="473" d="M291 508h96v-458h84v-77h-84v-169h-85v169h-300v66zM97 49h205v323z" />
<glyph horiz-adv-x="502" d="M47 -15v39h85v-37q0 -47 31 -80t77 -33h36q46 0 77 33.5t31 81.5v35q0 51 -32.5 86t-85.5 35h-207v363h401v-81h-317v-203h139q82 0 136 -56.5t54 -137.5v-44q0 -80 -53.5 -135.5t-132.5 -55.5h-55q-78 0 -131 55.5t-53 134.5z" />
<glyph horiz-adv-x="508" d="M127 507v-119q20 10 58 18t63 8h41q79 0 132.5 -53.5t53.5 -132.5v-44q0 -81 -55 -137.5t-136 -56.5h-54q-80 0 -135 56.5t-55 137.5v327q0 85 55.5 143.5t138.5 58.5h45q80 0 134 -56.5t54 -137.5v-35h-85v30q0 49 -32.5 83.5t-79.5 34.5h-26q-50 0 -83.5 -36.5 t-33.5 -88.5zM241 337q-57 0 -114 -22v-129q0 -49 32.5 -83.5t79.5 -34.5h36q48 0 80.5 35t32.5 83v34q0 48 -32.5 82.5t-80.5 34.5h-34z" />
<glyph horiz-adv-x="414" d="M74 -195l238 620h-304v83h405v-62l-246 -641h-93z" />
<glyph horiz-adv-x="513" d="M40 510v22q0 78 54 129.5t132 51.5h60q79 0 131.5 -51.5t52.5 -128.5v-24q0 -48 -24.5 -91t-65.5 -63q46 -17 72.5 -62t26.5 -97v-25q0 -76 -50.5 -128.5t-129.5 -52.5h-80q-78 0 -131.5 52.5t-53.5 129.5v25q0 51 26.5 97t71.5 61q-45 19 -68.5 62.5t-23.5 92.5z M269 316h-28q-60 0 -90.5 -35.5t-30.5 -77.5v-23q0 -47 33 -79.5t80 -32.5h52q47 0 76.5 32.5t29.5 78.5v23q0 48 -31 81t-91 33zM384 506v20q0 46 -31.5 77.5t-77.5 31.5h-40q-45 0 -76.5 -31t-31.5 -78v-20q0 -46 29 -79.5t88 -33.5h21q59 0 89 34.5t30 78.5z" />
<glyph horiz-adv-x="509" d="M381 -2v124q-21 -10 -58.5 -18t-62.5 -8h-41q-78 0 -131.5 53.5t-53.5 132.5v39q0 81 55 137.5t135 56.5h54q81 0 135.5 -56.5t54.5 -137.5v-327q0 -85 -55.5 -143.5t-138.5 -58.5h-45q-80 0 -134 56.5t-54 137.5v36h85v-31q0 -49 32.5 -83.5t79.5 -34.5h26 q50 0 83.5 36.5t33.5 88.5zM267 173q53 0 114 21v126q0 48 -32 82.5t-80 34.5h-36q-48 0 -80 -34.5t-32 -82.5v-30q0 -48 32 -82.5t80 -34.5h34z" />
<glyph horiz-adv-x="507" d="M29 514q0 82 58.5 140.5t140.5 58.5h50q82 0 140.5 -58.5t58.5 -140.5v-325q0 -83 -58.5 -141t-140.5 -58h-50q-82 0 -140.5 58.5t-58.5 140.5v325zM117 512v-321q0 -28 13 -56l196 483q-26 14 -55 14h-36q-49 0 -83.5 -35t-34.5 -85zM390 512q0 31 -13 54l-195 -482 q23 -13 53 -13h36q49 0 84 35t35 85v321z" />
<glyph horiz-adv-x="507" d="M29 514q0 82 58.5 140.5t140.5 58.5h50q82 0 140.5 -58.5t58.5 -140.5v-325q0 -83 -58.5 -141t-140.5 -58h-50q-82 0 -140.5 58.5t-58.5 140.5v325zM117 512v-321q0 -50 34.5 -85t83.5 -35h36q49 0 84 35t35 85v321q0 50 -35 85t-84 35h-36q-49 0 -83.5 -35t-34.5 -85z " />
<glyph horiz-adv-x="507" d="M53 80h176v532l-163 -36v77l196 50h55v-623h172v-80h-436v80z" />
<glyph horiz-adv-x="507" d="M47 0v68l236 288q58 70 72 98q14 29 14 56v18q0 44 -30.5 75t-74.5 31h-23q-45 0 -76 -33t-31 -79v-69h-82v70q0 80 52.5 135t130.5 55h41q76 0 129.5 -53t53.5 -129v-21q0 -19 -2.5 -35.5t-11 -34.5t-12.5 -28t-20 -30.5t-20 -26t-25.5 -30t-24.5 -28.5l-177 -212h299 v-85h-418z" />
<glyph horiz-adv-x="507" d="M45 497v33q0 77 51.5 130t127.5 53h51q76 0 129.5 -53.5t53.5 -129.5v-23q0 -46 -27.5 -90.5t-71.5 -61.5q52 -18 81.5 -61.5t29.5 -92.5v-27q0 -76 -53.5 -130t-129.5 -54h-67q-77 0 -130 53.5t-53 130.5v31h86v-30q0 -44 32 -76.5t76 -32.5h39q44 0 75.5 32.5 t31.5 76.5v28q0 49 -38.5 80.5t-98.5 31.5h-92v74h88q53 0 93 34.5t40 85.5v20q0 44 -31 76t-75 32h-28q-44 0 -74 -31.5t-30 -76.5v-32h-86z" />
<glyph horiz-adv-x="507" d="M306 703h96v-475h80v-77h-80v-151h-85v151h-298v66zM114 227h203v340z" />
<glyph horiz-adv-x="507" d="M47 180v39h85v-37q0 -47 31 -80t77 -33h36q46 0 77 33.5t31 81.5v35q0 51 -32.5 86t-85.5 35h-207v363h401v-81h-317v-203h139q82 0 136 -56.5t54 -137.5v-44q0 -80 -53.5 -135.5t-132.5 -55.5h-55q-78 0 -131 55.5t-53 134.5z" />
<glyph horiz-adv-x="507" d="M127 507v-119q20 10 58 18t63 8h41q79 0 132.5 -53.5t53.5 -132.5v-44q0 -81 -55 -137.5t-136 -56.5h-54q-80 0 -135 56.5t-55 137.5v327q0 85 55.5 143.5t138.5 58.5h45q80 0 134 -56.5t54 -137.5v-35h-85v30q0 49 -32.5 83.5t-79.5 34.5h-26q-50 0 -83.5 -36.5 t-33.5 -88.5zM241 337q-57 0 -114 -22v-129q0 -49 32.5 -83.5t79.5 -34.5h36q48 0 80.5 35t32.5 83v34q0 48 -32.5 82.5t-80.5 34.5h-34z" />
<glyph horiz-adv-x="507" d="M112 0l258 620h-326v83h428v-62l-266 -641h-94z" />
<glyph horiz-adv-x="507" d="M37 510v22q0 78 54 129.5t132 51.5h60q79 0 131.5 -51.5t52.5 -128.5v-24q0 -48 -24.5 -91t-65.5 -63q46 -17 72.5 -62t26.5 -97v-25q0 -76 -50.5 -128.5t-129.5 -52.5h-80q-78 0 -131.5 52.5t-53.5 129.5v25q0 51 26.5 97t71.5 61q-45 19 -68.5 62.5t-23.5 92.5z M266 316h-28q-60 0 -90.5 -35.5t-30.5 -77.5v-23q0 -47 33 -79.5t80 -32.5h52q47 0 76.5 32.5t29.5 78.5v23q0 48 -31 81t-91 33zM381 506v20q0 46 -31.5 77.5t-77.5 31.5h-40q-45 0 -76.5 -31t-31.5 -78v-20q0 -46 29 -79.5t88 -33.5h21q59 0 89 34.5t30 78.5z" />
<glyph horiz-adv-x="507" d="M381 196v124q-21 -10 -58.5 -18t-62.5 -8h-41q-78 0 -131.5 53.5t-53.5 132.5v39q0 81 55 137.5t135 56.5h54q81 0 135.5 -56.5t54.5 -137.5v-327q0 -85 -55.5 -143.5t-138.5 -58.5h-45q-80 0 -134 56.5t-54 137.5v36h85v-31q0 -49 32.5 -83.5t79.5 -34.5h26 q50 0 83.5 36.5t33.5 88.5zM267 371q53 0 114 21v126q0 48 -32 82.5t-80 34.5h-36q-48 0 -80 -34.5t-32 -82.5v-30q0 -48 32 -82.5t80 -34.5h34z" />
<glyph horiz-adv-x="507" d="M461 170q0 -74 -50 -125.5t-123 -51.5h-68q-73 0 -123 51.5t-50 125.5v168q0 73 50 125t123 52h68q73 0 123 -52t50 -125v-168zM134 182q0 -28 9 -51l178 297q-22 10 -44 10h-46q-46 0 -71.5 -33t-25.5 -80v-143zM374 325q0 26 -9 50l-177 -296q17 -10 43 -10h46 q46 0 71.5 33t25.5 80v143z" />
<glyph horiz-adv-x="507" d="M461 170q0 -74 -50 -125.5t-123 -51.5h-68q-73 0 -123 51.5t-50 125.5v168q0 73 50 125t123 52h68q73 0 123 -52t50 -125v-168zM374 325q0 47 -25.5 80t-71.5 33h-46q-46 0 -71.5 -33t-25.5 -80v-143q0 -47 25.5 -80t71.5 -33h46q46 0 71.5 33t25.5 80v143z" />
<glyph horiz-adv-x="507" d="M53 77h176v342l-156 -33v74l189 48h55v-431h172v-77h-436v77z" />
<glyph horiz-adv-x="507" d="M48 0v68l229 167q81 61 81 112v12q0 36 -24 60.5t-67 24.5h-38q-42 0 -66 -31t-24 -75v-48h-81v57q0 71 46.5 119.5t117.5 48.5h59q75 0 119 -43t44 -109v-14q0 -86 -94 -154l-164 -119h281v-76h-419z" />
<glyph horiz-adv-x="507" d="M45 299v33q0 77 51.5 130t127.5 53h51q76 0 129.5 -53.5t53.5 -129.5v-23q0 -46 -27.5 -90.5t-71.5 -61.5q52 -18 81.5 -61.5t29.5 -92.5v-27q0 -76 -53.5 -130t-129.5 -54h-67q-77 0 -130 53.5t-53 130.5v31h86v-30q0 -44 32 -76.5t76 -32.5h39q44 0 75.5 32.5 t31.5 76.5v28q0 49 -38.5 80.5t-98.5 31.5h-92v74h88q53 0 93 34.5t40 85.5v20q0 44 -31 76t-75 32h-28q-44 0 -74 -31.5t-30 -76.5v-32h-86z" />
<glyph horiz-adv-x="507" d="M306 508h96v-458h80v-77h-80v-169h-85v169h-298v66zM114 49h203v323z" />
<glyph horiz-adv-x="507" d="M50 -15v39h85v-37q0 -47 31 -80t77 -33h36q46 0 77 33.5t31 81.5v35q0 51 -32.5 86t-85.5 35h-207v363h401v-81h-317v-203h139q82 0 136 -56.5t54 -137.5v-44q0 -80 -53.5 -135.5t-132.5 -55.5h-55q-78 0 -131 55.5t-53 134.5z" />
<glyph horiz-adv-x="507" d="M125 507v-119q20 10 58 18t63 8h41q79 0 132.5 -53.5t53.5 -132.5v-44q0 -81 -55 -137.5t-136 -56.5h-54q-80 0 -135 56.5t-55 137.5v327q0 85 55.5 143.5t138.5 58.5h45q80 0 134 -56.5t54 -137.5v-35h-85v30q0 49 -32.5 83.5t-79.5 34.5h-26q-50 0 -83.5 -36.5 t-33.5 -88.5zM239 337q-57 0 -114 -22v-129q0 -49 32.5 -83.5t79.5 -34.5h36q48 0 80.5 35t32.5 83v34q0 48 -32.5 82.5t-80.5 34.5h-34z" />
<glyph horiz-adv-x="507" d="M112 -195l258 620h-326v83h428v-62l-266 -641h-94z" />
<glyph horiz-adv-x="507" d="M37 510v22q0 78 54 129.5t132 51.5h60q79 0 131.5 -51.5t52.5 -128.5v-24q0 -48 -24.5 -91t-65.5 -63q46 -17 72.5 -62t26.5 -97v-25q0 -76 -50.5 -128.5t-129.5 -52.5h-80q-78 0 -131.5 52.5t-53.5 129.5v25q0 51 26.5 97t71.5 61q-45 19 -68.5 62.5t-23.5 92.5z M266 316h-28q-60 0 -90.5 -35.5t-30.5 -77.5v-23q0 -47 33 -79.5t80 -32.5h52q47 0 76.5 32.5t29.5 78.5v23q0 48 -31 81t-91 33zM381 506v20q0 46 -31.5 77.5t-77.5 31.5h-40q-45 0 -76.5 -31t-31.5 -78v-20q0 -46 29 -79.5t88 -33.5h21q59 0 89 34.5t30 78.5z" />
<glyph horiz-adv-x="507" d="M381 -2v124q-21 -10 -58.5 -18t-62.5 -8h-41q-78 0 -131.5 53.5t-53.5 132.5v39q0 81 55 137.5t135 56.5h54q81 0 135.5 -56.5t54.5 -137.5v-327q0 -85 -55.5 -143.5t-138.5 -58.5h-45q-80 0 -134 56.5t-54 137.5v36h85v-31q0 -49 32.5 -83.5t79.5 -34.5h26 q50 0 83.5 36.5t33.5 88.5zM267 173q53 0 114 21v126q0 48 -32 82.5t-80 34.5h-36q-48 0 -80 -34.5t-32 -82.5v-30q0 -48 32 -82.5t80 -34.5h34z" />
<glyph horiz-adv-x="581" d="M591 275l-103 -111l-15 -15l115 -107l-52 -61l-117 110q-48 -49 -93 -75t-99 -26h-35q-76 0 -129.5 48.5t-53.5 123.5v21q0 55 34.5 97t82.5 63l20 9q-77 83 -77 163v25q0 71 50 122t121 51h40q70 0 120 -48t50 -119v-29q0 -45 -33 -89t-84 -72l-52 -28l137 -127l16 18 l99 109zM151 516q0 -33 16.5 -63t59.5 -73l56 29q35 18 59.5 46.5t24.5 61.5v28q0 38 -27.5 64t-66.5 26h-28q-39 0 -66.5 -28.5t-27.5 -67.5v-23zM218 282l-15 13l-32 -14q-79 -36 -79 -102v-13q0 -42 32 -70t78 -28h26q59 0 136 75z" />
<glyph horiz-adv-x="350" d="M15 219v74h121v122h76v-122h123v-74h-123v-123h-76v123h-121z" />
<glyph horiz-adv-x="350" d="M15 219v74h320v-74h-320z" />
<glyph horiz-adv-x="358" d="M75 101l-52 52l103 103l-102 102l52 53l102 -103l104 103l52 -52l-103 -103l103 -103l-52 -53l-104 103z" />
<glyph horiz-adv-x="350" d="M15 274v74h121v122h76v-122h123v-74h-123v-123h-76v123h-121zM15 48v72h320v-72h-320z" />
<glyph horiz-adv-x="350" d="M25 221v67l300 134v-79l-209 -89l209 -89v-78z" />
<glyph horiz-adv-x="350" d="M15 302v72h320v-72h-320zM15 137v72h320v-72h-320z" />
<glyph horiz-adv-x="350" d="M325 221l-300 -134v78l208 89l-208 89v79l300 -134v-67z" />
<glyph horiz-adv-x="350" d="M335 374v-69q-45 -22 -85 -22q-28 0 -75 15.5t-77 15.5q-36 0 -83 -20v70q45 22 87 22q27 0 71.5 -15t75.5 -15q44 0 86 18zM335 215v-70q-45 -22 -85 -22q-28 0 -75 15t-77 15q-41 0 -83 -18v68q45 23 87 23q27 0 71.5 -15.5t75.5 -15.5q43 0 86 20z" />
<glyph horiz-adv-x="350" d="M15 299v65h166l27 60h80l-27 -60h74v-65h-102l-38 -87h140v-65h-169l-26 -60h-81l26 60h-70v65h99l38 87h-137z" />
<glyph horiz-adv-x="350" d="M25 270v67l300 134v-79l-209 -89l209 -88v-79zM15 51v69h320v-69h-320z" />
<glyph horiz-adv-x="350" d="M325 270l-300 -134v79l209 88l-209 89v79l300 -134v-67zM15 51v69h320v-69h-320z" />
<glyph horiz-adv-x="350" d="M133 353v74h82v-74h-82zM15 219v74h320v-74h-320zM133 85v74h82v-74h-82z" />
<glyph horiz-adv-x="500" d="M153 374q51 0 87 -51l6 -8q57 59 104 59h24q43 0 74 -30t31 -73v-30q0 -44 -31 -74.5t-74 -30.5h-21q-59 0 -99 54l-2 2q-54 -56 -102 -56h-24q-43 0 -73.5 30.5t-30.5 73.5v32q0 43 30.5 72.5t73.5 29.5h27zM351 305q-24 0 -65 -42l16 -19q27 -38 55 -38h14 q16 0 27.5 12t11.5 28v18q0 16 -11.5 28.5t-27.5 12.5h-20zM148 206q25 0 63 38l-15 20q-29 41 -51 41h-15q-17 0 -28.5 -12t-11.5 -29v-18q0 -16 11.5 -28t27.5 -12h19z" />
<glyph horiz-adv-x="350" d="M15 219v74h320v-197h-77v123h-243z" />
<glyph horiz-adv-x="683" d="M174 147l127 410h89l108 -346q35 3 59.5 32.5t24.5 77.5v123q0 85 -60.5 147t-145.5 62h-69q-86 0 -147 -62t-61 -148v-181q0 -86 61 -148t147 -62h89q104 0 165 74l44 56l51 -41l-43 -56q-85 -95 -214 -95h-96q-112 0 -191.5 79.5t-79.5 191.5v183q0 112 79.5 191.5 t191.5 79.5h76q111 0 190 -78.5t79 -189.5v-135q0 -60 -44.5 -112.5t-119.5 -52.5h-43l-32 105h-132l-31 -105h-72zM344 487l-56 -175h109z" />
<glyph horiz-adv-x="466" d="M16 314v76h434v-76h-434z" />
<glyph horiz-adv-x="340" d="M16 314v76h307v-76h-307z" />
<glyph horiz-adv-x="225" d="M16 314v76h193v-76h-193z" />
<glyph horiz-adv-x="335" d="M229 219l-80 129v8l80 129h89l-83 -133l83 -133h-89zM93 219l-80 129v8l80 129h89l-83 -133l83 -133h-89z" />
<glyph horiz-adv-x="198" d="M93 219l-80 129v8l80 129h89l-83 -133l83 -133h-89z" />
<glyph horiz-adv-x="198" d="M16 219l83 133l-83 133h89l80 -129v-8l-80 -129h-89z" />
<glyph horiz-adv-x="335" d="M106 485l80 -129v-8l-80 -129h-89l83 133l-83 133h89zM242 485l80 -129v-8l-80 -129h-89l83 133l-83 133h89z" />
<glyph horiz-adv-x="159" d="M36 302v100h87v-100h-87z" />
<glyph horiz-adv-x="301" d="M249 511v-41q0 -58 -51 -115l-49 -54q-47 -52 -47 -104v-17q0 -42 30 -71.5t71 -29.5h75v-79h-96q-70 0 -119 49t-49 118v22q0 77 59 145l52 58q37 42 37 87v32h87zM249 703v-101h-87v101h87z" />
<glyph d="M142 511v-511h-88v511h88zM142 703v-101h-88v101h88z" />
<glyph horiz-adv-x="370" d="M236 699l-27 -171l-70 8l25 172z" />
<glyph horiz-adv-x="302" d="M127 -28l70 -17l-41 -150l-69 17z" />
<glyph horiz-adv-x="302" d="M101 734l-32 56l158 95l34 -58z" />
<glyph horiz-adv-x="302" d="M206 735l-160 93l33 58l159 -95z" />
<glyph horiz-adv-x="302" d="M151 737l-143 87l30 52l113 -69l112 69l31 -52z" />
<glyph horiz-adv-x="302" d="M39 746l-31 52l143 87l143 -87l-31 -52l-112 68z" />
<glyph horiz-adv-x="302" d="M191 763v82h70v-82h-70zM43 763v82h71v-82h-71z" />
<glyph horiz-adv-x="302" d="M212 737l-54 29l66 111l54 -30zM80 741l-53 29l66 110l54 -29z" />
<glyph horiz-adv-x="302" d="M34 843v24h60v-24q0 -19 13.5 -32.5t32.5 -13.5h21q19 0 32.5 13.5t13.5 32.5v24h61v-24q0 -43 -30 -72.5t-72 -29.5h-30q-43 0 -72.5 29.5t-29.5 72.5z" />
<glyph horiz-adv-x="302" d="M23 771v68h255v-68h-255z" />
<glyph horiz-adv-x="302" d="M1 801l24 30q27 37 68 37q31 0 56 -17l29 -20q15 -11 27 -11q16 0 26 14l20 26l49 -39l-25 -33q-25 -35 -65 -35q-34 0 -55 15l-30 20q-18 12 -28 12q-16 0 -24 -10l-22 -29z" />
<glyph horiz-adv-x="302" d="M143 731q-31 0 -53.5 22t-22.5 53v15q0 31 22.5 52.5t53.5 21.5h16q31 0 53 -21.5t22 -52.5v-15q0 -31 -22 -53t-53 -22h-16zM146 782h10q10 0 18 8t8 18v10q0 10 -8 18t-18 8h-10q-10 0 -18 -8t-8 -18v-10q0 -10 8 -18t18 -8z" />
<glyph horiz-adv-x="302" d="M109 764v82h84v-82h-84z" />
<glyph horiz-adv-x="562" d="M54 0v703h454v-703h-454zM112 650v-597h338v597h-338zM227 261v17q0 39 31 70l28 32q27 30 27 58v13q0 21 -15.5 38t-39.5 17h-48v54h62q45 0 73.5 -31t28.5 -71v-16q0 -40 -36 -81l-29 -33q-21 -24 -21 -53v-14h-61zM227 143v74h61v-74h-61z" />
<glyph horiz-adv-x="194" />
<glyph horiz-adv-x="194" />
<glyph horiz-adv-x="194" />
<glyph horiz-adv-x="194" />
<glyph horiz-adv-x="486" d="M409 295h-88l-80 304l-82 -304h-81l114 408h104zM69 265h348l73 -265h-89l-52 187h-219l-50 -187h-85z" />
<glyph horiz-adv-x="521" d="M463 521h-88v3q0 40 -30.5 70t-72.5 30h-132v-236h133q42 0 72 28.5t30 68.5v6h88q-1 -40 -23 -77.5t-53 -57.5q42 -16 69 -59t27 -91v-28q0 -74 -51.5 -126t-125.5 -52h-252v79h237q42 0 71 30t29 72v35q0 40 -30.5 69.5t-77.5 29.5h-143v-206h-86v594h230 q74 0 126.5 -52.5t52.5 -123.5v-6z" />
<glyph horiz-adv-x="519" d="M128 369h-88v145q0 82 58.5 140.5t140.5 58.5h43q82 0 140.5 -58.5t58.5 -140.5v-77h-87v75q0 50 -35 85t-84 35h-29q-49 0 -83.5 -35t-34.5 -85v-143zM40 339h88v-148q0 -50 34.5 -85t83.5 -35h29q49 0 84 35t35 85v75h87v-77q0 -83 -58.5 -141t-140.5 -58h-43 q-82 0 -140.5 58.5t-58.5 140.5v150z" />
<glyph horiz-adv-x="533" d="M286 624h-232v79h239q83 0 141 -58.5t58 -140.5v-135h-88v133q0 49 -35 85.5t-83 36.5zM54 594h88v-515h144q49 0 83.5 36t34.5 86v138h88v-140q0 -83 -58 -141t-141 -58h-239v594z" />
<glyph horiz-adv-x="435" d="M142 421h-88v282h349v-79h-261v-203zM54 391h337v-79h-249v-233h261v-79h-349v391z" />
<glyph horiz-adv-x="408" d="M384 311h-330v392h342v-79h-254v-234h242v-79zM54 281h88v-281h-88v281z" />
<glyph horiz-adv-x="527" d="M40 218h88v-28q0 -50 34.5 -85t83.5 -35h38q49 0 83.5 35t34.5 85v81h-124v78h210v-160q0 -83 -58 -141t-141 -58h-50q-82 0 -140.5 58.5t-58.5 140.5v29zM128 248h-88v266q0 82 58.5 140.5t140.5 58.5h48q83 0 141.5 -58.5t58.5 -140.5v-51h-87v49q0 49 -35 84.5 t-84 35.5h-35q-49 0 -83.5 -35t-34.5 -85v-264z" />
<glyph horiz-adv-x="550" d="M495 421h-87v282h87v-282zM142 391h353v-391h-87v312h-354v391h88v-312zM54 282h88v-282h-88v282z" />
<glyph d="M142 369h-88v334h88v-334zM54 339h88v-339h-88v339z" />
<glyph horiz-adv-x="276" d="M227 211h-88v492h88v-492zM138 181h89q-1 -78 -51.5 -129.5t-129.5 -51.5h-53v79h35q47 0 77 30.5t33 71.5z" />
<glyph horiz-adv-x="496" d="M142 421h-88v282h88v-282zM253 294h102l156 -294h-99zM339 324h-197v-324h-88v391h188l152 312h93l-166 -346z" />
<glyph horiz-adv-x="388" d="M142 109h-88v594h88v-594zM54 79h344v-79h-344v79z" />
<glyph horiz-adv-x="616" d="M478 391h84v-391h-84v391zM54 391h84v-391h-84v391zM138 421h-84v282h92l165 -368l163 368h88v-282h-84v109l-159 -355h-20l-161 355v-109z" />
<glyph horiz-adv-x="549" d="M494 365h-84v338h84v-338zM54 416v287h82l274 -505v137h84v-335h-67l-289 528v-112h-84zM54 386h84v-386h-84v386z" />
<glyph horiz-adv-x="521" d="M481 369h-88v143q0 50 -34.5 85t-83.5 35h-29q-49 0 -83.5 -35t-34.5 -85v-143h-88v145q0 82 58.5 140.5t140.5 58.5h43q82 0 140.5 -58.5t58.5 -140.5v-145zM393 339h88v-150q0 -83 -58.5 -141t-140.5 -58h-43q-82 0 -140.5 58.5t-58.5 140.5v150h88v-148 q0 -50 34.5 -85t83.5 -35h29q49 0 83.5 35t34.5 85v148z" />
<glyph horiz-adv-x="468" d="M142 375h-88v328h217q81 0 138 -57t57 -138v-9h-87v12q0 47 -33 80t-79 33h-125v-249zM54 345h213q46 0 79 33t33 80v11h87v-8q0 -81 -57 -138t-138 -57h-129v-266h-88v345z" />
<glyph horiz-adv-x="521" d="M217 -142v133q-75 8 -126 64.5t-51 133.5v150h88v-148q0 -50 34.5 -85t83.5 -35h29q49 0 83.5 35t34.5 85v148h88v-150q0 -77 -50.5 -133t-125.5 -64v-134h-88zM481 369h-88v143q0 50 -34.5 85t-83.5 35h-29q-49 0 -83.5 -35t-34.5 -85v-143h-88v145q0 82 58.5 140.5 t140.5 58.5h43q82 0 140.5 -58.5t58.5 -140.5v-145z" />
<glyph horiz-adv-x="510" d="M379 475h89v-5q0 -53 -29.5 -99.5t-80.5 -70.5l147 -300h-99l-137 280h-5h-210v423h221q79 0 136 -56.5t57 -133.5v-8h-89v11q0 43 -32.5 75.5t-77.5 32.5h-127v-266h127q45 0 77.5 32.5t32.5 75.5v9zM54 250h88v-250h-88v250z" />
<glyph horiz-adv-x="502" d="M128 532h-88v2q0 75 54.5 127t132.5 52h50q78 0 130 -55t52 -135v-47h-85v46q0 47 -30 79.5t-76 32.5h-34q-44 0 -74.5 -29t-31.5 -73zM381 179h88v-2q0 -77 -52.5 -132t-133.5 -55h-63q-79 0 -133 55t-54 134v46h86v-45q0 -46 32.5 -78.5t78.5 -32.5h42q48 0 77.5 31.5 t31.5 78.5zM469 209h-89q-2 46 -31 75.5t-91 29.5h-19q-91 0 -146 55.5t-53 132.5h88q1 -45 32 -77t91 -32h21q96 0 146.5 -51t50.5 -130v-3z" />
<glyph horiz-adv-x="417" d="M427 624h-437v79h437v-79zM165 594h87v-594h-87v594z" />
<glyph horiz-adv-x="534" d="M137 369h-88v334h88v-334zM49 339h88v-151q0 -48 33.5 -82t80.5 -34h32q46 0 80 32t34 80h88q-3 -84 -59 -139t-136 -55h-45q-81 0 -138.5 57t-57.5 138v154zM485 214h-88v489h88v-489z" />
<glyph horiz-adv-x="474" d="M184 334h-88l-97 369h88zM104 304h87l48 -181l151 580h85l-185 -703h-106z" />
<glyph horiz-adv-x="745" d="M180 320h-83l-71 383h86zM648 320h-81l71 383h84zM102 290h84l29 -164l115 577h91l110 -577l31 164h80l-55 -290h-110l-105 532l-111 -532h-105z" />
<glyph horiz-adv-x="457" d="M290 369h-124l-166 334h89l139 -277l140 277h89zM169 339h119l170 -339h-91l-139 277l-139 -277h-90z" />
<glyph horiz-adv-x="450" d="M269 283h-88l-186 420h87l143 -326l144 326h86zM181 253h88v-253h-88v253z" />
<glyph horiz-adv-x="419" d="M395 624h-370v79h382v-56zM11 79h396v-79h-396v79zM126 109h-94l253 485h95z" />
<glyph horiz-adv-x="669" d="M86 270h212v324h84v-203h243v-79h-243v-233h255v-79h-339v194h-153l-72 -194h-85zM180 300h-83l147 403h393v-79h-341z" />
<glyph horiz-adv-x="717" d="M347 391h327v-79h-243v-233h255v-79h-450q-81 0 -138.5 57.5t-57.5 138.5v143h88v-140q0 -50 34.5 -85t83.5 -35h101v312zM431 421h-84v203h-101q-49 0 -83.5 -35t-34.5 -84v-136h-88v137q0 82 58 139.5t139 57.5h449v-79h-255v-203z" />
<glyph horiz-adv-x="526" d="M395 339h88v-150q0 -83 -58.5 -141t-140.5 -58h-42q-60 0 -112 34l-43 -80l-66 35l53 102q-32 47 -32 108v150h88v-148q0 -50 34.5 -85t83.5 -35h30q49 0 83 35t34 85v148zM483 369h-88v143q0 50 -34 85t-83 35h-30q-49 0 -83.5 -35t-34.5 -85v-143h-88v145 q0 82 58.5 140.5t141.5 58.5h42q61 0 112 -35l42 81l68 -36l-55 -102q32 -50 32 -107v-145z" />
<glyph horiz-adv-x="550" d="M70 594h88v-206h90v-72h-90v-237h143q49 0 84 36t35 86v138h88v-140q0 -82 -58.5 -140.5t-140.5 -58.5h-239v316h-51v72h51v206zM301 624h-231v79h239q82 0 140.5 -58.5t58.5 -140.5v-135h-88v135q0 48 -35.5 84t-83.5 36z" />
<glyph horiz-adv-x="468" d="M54 462h88v-249h125q47 0 79.5 32.5t32.5 79.5v11h87v-8q0 -80 -57 -137t-138 -57h-129v-134h-88v462zM54 703h88v-133h129q81 0 138 -57t57 -138v-9h-87v12q0 47 -33 80.5t-79 33.5h-213v211z" />
<glyph horiz-adv-x="531" d="M41 355h448v-166q0 -82 -58.5 -140.5t-140.5 -58.5h-50q-82 0 -140.5 58t-58.5 141v166zM489 385h-88v127q0 50 -34.5 85t-83.5 35h-35q-49 0 -83.5 -35t-34.5 -85v-49h-88v51q0 82 58.5 140.5t141.5 58.5h48q82 0 140.5 -58.5t58.5 -140.5v-129zM283 70q49 0 83.5 35 t34.5 85v87h-274v-87q0 -50 34.5 -85t83.5 -35h38z" />
<glyph horiz-adv-x="486" d="M409 295h-88l-80 304l-82 -304h-81l114 408h104zM69 265h348l73 -265h-89l-52 187h-219l-50 -187h-85zM214 734l-32 56l158 95l34 -58z" />
<glyph horiz-adv-x="486" d="M409 295h-88l-80 304l-82 -304h-81l114 408h104zM69 265h348l73 -265h-89l-52 187h-219l-50 -187h-85zM228 741q-43 0 -72.5 29.5t-29.5 72.5v24h60v-24q0 -19 13.5 -32.5t32.5 -13.5h21q19 0 32.5 13.5t13.5 32.5v24h61v-24q0 -43 -30 -72.5t-72 -29.5h-30z" />
<glyph horiz-adv-x="486" d="M409 295h-88l-80 304l-82 -304h-81l114 408h104zM69 265h348l73 -265h-89l-52 187h-219l-50 -187h-85zM131 746l-31 52l143 87l143 -87l-31 -52l-112 68z" />
<glyph horiz-adv-x="486" d="M409 295h-88l-80 304l-82 -304h-81l114 408h104zM69 265h348l73 -265h-89l-52 187h-219l-50 -187h-85zM283 763v82h70v-82h-70zM135 763v82h71v-82h-71z" />
<glyph horiz-adv-x="486" d="M409 295h-88l-80 304l-82 -304h-81l114 408h104zM69 265h348l73 -265h-89l-52 187h-219l-50 -187h-85zM298 735l-160 93l33 58l159 -95z" />
<glyph horiz-adv-x="486" d="M409 295h-88l-80 304l-82 -304h-81l114 408h104zM69 265h348l73 -265h-89l-52 187h-219l-50 -187h-85zM115 771v68h255v-68h-255z" />
<glyph horiz-adv-x="486" d="M69 265h348l73 -265v-87h-30q-10 -1 -16.5 -8.5t-6.5 -17.5v-7q0 -10 7.5 -18t18.5 -8h27v-55h-40q-31 0 -53.5 23t-22.5 55v12q0 29 16.5 49.5t43.5 25.5v36h-33l-52 187h-219l-50 -187h-85zM409 295h-88l-80 304l-82 -304h-81l114 408h104z" />
<glyph horiz-adv-x="486" d="M409 295h-88l-80 304l-82 -304h-81l114 408h104zM69 265h348l73 -265h-89l-52 187h-219l-50 -187h-85zM235 730q-31 0 -53.5 22t-22.5 53v15q0 31 22.5 52.5t53.5 21.5h16q31 0 53 -21.5t22 -52.5v-15q0 -31 -22 -53t-53 -22h-16zM238 781h10q10 0 18 8t8 18v10 q0 10 -8 18t-18 8h-10q-10 0 -18 -7.5t-8 -18.5v-10q0 -10 8 -18t18 -8z" />
<glyph horiz-adv-x="486" d="M409 295h-88l-80 304l-82 -304h-81l114 408h104zM69 265h348l73 -265h-89l-52 187h-219l-50 -187h-85zM93 801l24 30q27 37 68 37q31 0 56 -17l29 -20q15 -11 27 -11q16 0 26 14l20 26l49 -39l-25 -33q-25 -35 -65 -35q-34 0 -55 15l-30 20q-18 12 -28 12q-16 0 -24 -10 l-22 -29z" />
<glyph horiz-adv-x="519" d="M128 369h-88v145q0 82 58.5 140.5t140.5 58.5h43q82 0 140.5 -58.5t58.5 -140.5v-77h-87v75q0 50 -35 85t-84 35h-29q-49 0 -83.5 -35t-34.5 -85v-143zM40 339h88v-148q0 -50 34.5 -85t83.5 -35h29q49 0 84 35t35 85v75h87v-77q0 -83 -58.5 -141t-140.5 -58h-43 q-82 0 -140.5 58.5t-58.5 140.5v150zM232 734l-32 56l158 95l34 -58z" />
<glyph horiz-adv-x="519" d="M128 369h-88v145q0 82 58.5 140.5t140.5 58.5h43q82 0 140.5 -58.5t58.5 -140.5v-77h-87v75q0 50 -35 85t-84 35h-29q-49 0 -83.5 -35t-34.5 -85v-143zM40 339h88v-148q0 -50 34.5 -85t83.5 -35h29q49 0 84 35t35 85v75h87v-77q0 -83 -58.5 -141t-140.5 -58h-43 q-82 0 -140.5 58.5t-58.5 140.5v150zM260 737l-143 87l30 52l113 -69l112 69l31 -52z" />
<glyph horiz-adv-x="519" d="M128 369h-88v145q0 82 58.5 140.5t140.5 58.5h43q82 0 140.5 -58.5t58.5 -140.5v-77h-87v75q0 50 -35 85t-84 35h-29q-49 0 -83.5 -35t-34.5 -85v-143zM40 339h88v-148q0 -50 34.5 -85t83.5 -35h29q49 0 84 35t35 85v75h87v-77q0 -83 -58.5 -141t-140.5 -58h-43 q-82 0 -140.5 58.5t-58.5 140.5v150zM148 746l-31 52l143 87l143 -87l-31 -52l-112 68z" />
<glyph horiz-adv-x="519" d="M218 764v82h84v-82h-84zM128 369h-88v145q0 82 58.5 140.5t140.5 58.5h43q82 0 140.5 -58.5t58.5 -140.5v-77h-87v75q0 50 -35 85t-84 35h-29q-49 0 -83.5 -35t-34.5 -85v-143zM40 339h88v-148q0 -50 34.5 -85t83.5 -35h29q49 0 84 35t35 85v75h87v-77q0 -83 -58.5 -141 t-140.5 -58h-43q-82 0 -140.5 58.5t-58.5 140.5v150z" />
<glyph horiz-adv-x="519" d="M40 339h88v-148q0 -50 34.5 -85t83.5 -35h29q49 0 84 35t35 85v75h87v-77q0 -80 -55 -137t-134 -62v-25q25 -4 42.5 -24t17.5 -47v-16q0 -34 -23 -56.5t-56 -22.5h-17q-33 0 -55.5 22.5t-22.5 56.5v17l55 -1v-14q0 -10 8 -18t19 -8h9q11 0 18.5 8t7.5 18v10q0 10 -7 17.5 t-17 8.5h-38v74q-80 3 -136.5 60.5t-56.5 138.5v150zM128 369h-88v145q0 82 58.5 140.5t140.5 58.5h43q82 0 140.5 -58.5t58.5 -140.5v-77h-87v75q0 50 -35 85t-84 35h-29q-49 0 -83.5 -35t-34.5 -85v-143z" />
<glyph horiz-adv-x="550" d="M70 594h88v-206h90v-72h-90v-237h143q49 0 84 36t35 86v138h88v-140q0 -82 -58.5 -140.5t-140.5 -58.5h-239v316h-51v72h51v206zM301 624h-231v79h239q82 0 140.5 -58.5t58.5 -140.5v-135h-88v135q0 48 -35.5 84t-83.5 36z" />
<glyph horiz-adv-x="533" d="M286 624h-232v79h239q83 0 141 -58.5t58 -140.5v-135h-88v133q0 49 -35 85.5t-83 36.5zM54 594h88v-515h144q49 0 83.5 36t34.5 86v138h88v-140q0 -83 -58 -141t-141 -58h-239v594zM260 737l-143 87l30 52l113 -69l112 69l31 -52z" />
<glyph horiz-adv-x="435" d="M142 421h-88v282h349v-79h-261v-203zM54 391h337v-79h-249v-233h261v-79h-349v391zM198 734l-32 56l158 95l34 -58z" />
<glyph horiz-adv-x="435" d="M54 391h337v-79h-249v-233h261v-79h-349v391zM142 421h-88v282h349v-79h-261v-203zM109 843v24h60v-24q0 -19 13.5 -32.5t32.5 -13.5h21q19 0 32.5 13.5t13.5 32.5v24h61v-24q0 -43 -30 -72.5t-72 -29.5h-30q-43 0 -72.5 29.5t-29.5 72.5z" />
<glyph horiz-adv-x="435" d="M142 421h-88v282h349v-79h-261v-203zM54 391h337v-79h-249v-233h261v-79h-349v391zM226 737l-143 87l30 52l113 -69l112 69l31 -52z" />
<glyph horiz-adv-x="435" d="M114 746l-31 52l143 87l143 -87l-31 -52l-112 68zM142 421h-88v282h349v-79h-261v-203zM54 391h337v-79h-249v-233h261v-79h-349v391z" />
<glyph horiz-adv-x="435" d="M142 421h-88v282h349v-79h-261v-203zM54 391h337v-79h-249v-233h261v-79h-349v391zM266 763v82h70v-82h-70zM118 763v82h71v-82h-71z" />
<glyph horiz-adv-x="435" d="M184 764v82h84v-82h-84zM142 421h-88v282h349v-79h-261v-203zM54 391h337v-79h-249v-233h261v-79h-349v391z" />
<glyph horiz-adv-x="435" d="M281 735l-160 93l33 58l159 -95zM142 421h-88v282h349v-79h-261v-203zM54 391h337v-79h-249v-233h261v-79h-349v391z" />
<glyph horiz-adv-x="435" d="M142 421h-88v282h349v-79h-261v-203zM54 391h337v-79h-249v-233h261v-79h-349v391zM98 771v68h255v-68h-255z" />
<glyph horiz-adv-x="435" d="M142 421h-88v282h349v-79h-261v-203zM54 391h337v-79h-249v-233h261v-79h-349v391zM76 801l24 30q27 37 68 37q30 0 56 -17l29 -20q15 -11 27 -11q16 0 26 14l20 26l49 -39l-25 -33q-25 -35 -65 -35q-34 0 -55 15l-30 20q-18 12 -28 12q-16 0 -24 -10l-22 -29z" />
<glyph horiz-adv-x="435" d="M54 391h337v-79h-249v-233h261v-166h-30q-10 -1 -16.5 -8.5t-6.5 -17.5v-7q0 -10 8 -18t18 -8h27v-55h-40q-31 0 -53.5 23t-22.5 55v12q0 29 16.5 49.5t43.5 25.5v36h-293v391zM142 421h-88v282h349v-79h-261v-203z" />
<glyph horiz-adv-x="527" d="M128 248h-88v266q0 82 58.5 140.5t140.5 58.5h48q83 0 141.5 -58.5t58.5 -140.5v-51h-87v49q0 49 -35 84.5t-84 35.5h-35q-49 0 -83.5 -35t-34.5 -85v-264zM40 218h88v-28q0 -50 34.5 -85t83.5 -35h38q49 0 83.5 35t34.5 85v81h-124v78h210v-160q0 -83 -58 -141t-141 -58 h-50q-82 0 -140.5 58.5t-58.5 140.5v29zM248 741q-43 0 -72.5 29.5t-29.5 72.5v24h60v-24q0 -19 13.5 -32.5t32.5 -13.5h21q19 0 32.5 13.5t13.5 32.5v24h61v-24q0 -43 -30 -72.5t-72 -29.5h-30z" />
<glyph horiz-adv-x="527" d="M151 746l-31 52l143 87l143 -87l-31 -52l-112 68zM40 218h88v-28q0 -50 34.5 -85t83.5 -35h38q49 0 83.5 35t34.5 85v81h-124v78h210v-160q0 -83 -58 -141t-141 -58h-50q-82 0 -140.5 58.5t-58.5 140.5v29zM128 248h-88v266q0 82 58.5 140.5t140.5 58.5h48 q83 0 141.5 -58.5t58.5 -140.5v-51h-87v49q0 49 -35 84.5t-84 35.5h-35q-49 0 -83.5 -35t-34.5 -85v-264z" />
<glyph horiz-adv-x="527" d="M239 -28l70 -17l-41 -150l-69 17zM40 218h88v-28q0 -50 34.5 -85t83.5 -35h38q49 0 83.5 35t34.5 85v81h-124v78h210v-160q0 -83 -58 -141t-141 -58h-50q-82 0 -140.5 58.5t-58.5 140.5v29zM128 248h-88v266q0 82 58.5 140.5t140.5 58.5h48q83 0 141.5 -58.5t58.5 -140.5 v-51h-87v49q0 49 -35 84.5t-84 35.5h-35q-49 0 -83.5 -35t-34.5 -85v-264z" />
<glyph horiz-adv-x="527" d="M221 764v82h84v-82h-84zM40 218h88v-28q0 -50 34.5 -85t83.5 -35h38q49 0 83.5 35t34.5 85v81h-124v78h210v-160q0 -83 -58 -141t-141 -58h-50q-82 0 -140.5 58.5t-58.5 140.5v29zM128 248h-88v266q0 82 58.5 140.5t140.5 58.5h48q83 0 141.5 -58.5t58.5 -140.5v-51h-87 v49q0 49 -35 84.5t-84 35.5h-35q-49 0 -83.5 -35t-34.5 -85v-264z" />
<glyph horiz-adv-x="550" d="M495 421h-87v282h87v-282zM142 391h353v-391h-87v312h-354v391h88v-312zM54 282h88v-282h-88v282zM163 746l-31 52l143 87l143 -87l-31 -52l-112 68z" />
<glyph horiz-adv-x="567" d="M503 421h-87v95h-266v-125h353v-391h-87v312h-354v204h-50v64h50v123h88v-123h266v123h87v-123h52v-64h-52v-95zM62 282h88v-282h-88v282z" />
<glyph d="M142 369h-88v334h88v-334zM54 339h88v-339h-88v339zM71 734l-32 56l158 95l34 -58z" />
<glyph d="M54 339h88v-339h-88v339zM142 369h-88v334h88v-334zM-18 843v24h60v-24q0 -19 13.5 -32.5t32.5 -13.5h21q19 0 32.5 13.5t13.5 32.5v24h61v-24q0 -43 -30 -72.5t-72 -29.5h-30q-43 0 -72.5 29.5t-29.5 72.5z" />
<glyph d="M142 369h-88v334h88v-334zM54 339h88v-339h-88v339zM-13 746l-31 52l143 87l143 -87l-31 -52l-112 68z" />
<glyph d="M142 369h-88v334h88v-334zM54 339h88v-339h-88v339zM139 763v82h70v-82h-70zM-9 763v82h71v-82h-71z" />
<glyph d="M142 369h-88v334h88v-334zM54 339h88v-339h-88v339zM154 735l-160 93l33 58l159 -95z" />
<glyph d="M142 369h-88v334h88v-334zM54 339h88v-339h-88v339zM-29 771v68h255v-68h-255z" />
<glyph d="M26 -111q0 29 16.5 49.5t43.5 25.5v36h-32v339h88v-426h-30q-10 -1 -16.5 -8.5t-6.5 -17.5v-7q0 -10 7.5 -18t18.5 -8h27v-55h-40q-31 0 -53.5 23t-22.5 55v12zM142 369h-88v334h88v-334z" />
<glyph d="M142 369h-88v334h88v-334zM54 339h88v-339h-88v339zM-51 801l24 30q27 37 68 37q30 0 56 -17l29 -20q15 -11 27 -11q16 0 26 14l20 26l49 -39l-25 -33q-25 -35 -65 -35q-34 0 -55 15l-30 20q-18 12 -28 12q-16 0 -24 -10l-22 -29z" />
<glyph d="M142 369h-88v334h88v-334zM54 339h88v-339h-88v339zM57 764v82h84v-82h-84z" />
<glyph horiz-adv-x="276" d="M227 211h-88v492h88v-492zM138 181h89q-1 -78 -51.5 -129.5t-129.5 -51.5h-53v79h35q47 0 77 30.5t33 71.5zM71 746l-31 52l143 87l143 -87l-31 -52l-112 68z" />
<glyph horiz-adv-x="496" d="M237 -28l70 -17l-41 -150l-69 17zM142 421h-88v282h88v-282zM253 294h102l156 -294h-99zM339 324h-197v-324h-88v391h188l152 312h93l-166 -346z" />
<glyph horiz-adv-x="388" d="M71 734l-32 56l158 95l34 -58zM142 109h-88v594h88v-594zM54 79h344v-79h-344v79z" />
<glyph horiz-adv-x="395" d="M273 699l-27 -171l-70 8l25 172zM142 109h-88v594h88v-594zM54 79h344v-79h-344v79z" />
<glyph horiz-adv-x="388" d="M201 -28l70 -17l-41 -150l-69 17zM142 109h-88v594h88v-594zM54 79h344v-79h-344v79z" />
<glyph horiz-adv-x="406" d="M142 109h-88v594h88v-594zM54 79h344v-79h-344v79zM277 307v97h83v-97h-83z" />
<glyph horiz-adv-x="421" d="M41 263l-22 61l68 27v352h88v-317l148 59l23 -59l-171 -69v-208h-88v172zM87 79h344v-79h-344v79z" />
<glyph horiz-adv-x="549" d="M247 734l-32 56l158 95l34 -58zM494 365h-84v338h84v-338zM54 416v287h82l274 -505v137h84v-335h-67l-289 528v-112h-84zM54 386h84v-386h-84v386z" />
<glyph horiz-adv-x="549" d="M494 365h-84v338h84v-338zM54 416v287h82l274 -505v137h84v-335h-67l-289 528v-112h-84zM54 386h84v-386h-84v386zM276 737l-143 87l30 52l113 -69l112 69l31 -52z" />
<glyph horiz-adv-x="549" d="M252 -28l70 -17l-41 -150l-69 17zM494 365h-84v338h84v-338zM54 416v287h82l274 -505v137h84v-335h-67l-289 528v-112h-84zM54 386h84v-386h-84v386z" />
<glyph horiz-adv-x="549" d="M126 801l24 30q27 37 68 37q30 0 56 -17l29 -20q15 -11 27 -11q16 0 26 14l20 26l49 -39l-25 -33q-25 -35 -65 -35q-34 0 -55 15l-30 20q-18 12 -28 12q-16 0 -24 -10l-22 -29zM494 365h-84v338h84v-338zM54 416v287h82l274 -505v137h84v-335h-67l-289 528v-112h-84z M54 386h84v-386h-84v386z" />
<glyph horiz-adv-x="549" d="M234 -118v82h84v-82h-84zM494 365h-84v338h84v-338zM54 416v287h82l274 -505v137h84v-335h-67l-289 528v-112h-84zM54 386h84v-386h-84v386z" />
<glyph horiz-adv-x="546" d="M413 354h84v-190q0 -70 -45 -117t-117 -47h-43v76h25q38 0 64 22.5t31 58.5l-274 402v-143h-84v287h82l277 -416v67zM54 386h84v-386h-84v386zM497 384h-84v319h84v-319z" />
<glyph horiz-adv-x="521" d="M233 734l-32 56l158 95l34 -58zM481 369h-88v143q0 50 -34.5 85t-83.5 35h-29q-49 0 -83.5 -35t-34.5 -85v-143h-88v145q0 82 58.5 140.5t140.5 58.5h43q82 0 140.5 -58.5t58.5 -140.5v-145zM393 339h88v-150q0 -83 -58.5 -141t-140.5 -58h-43q-82 0 -140.5 58.5 t-58.5 140.5v150h88v-148q0 -50 34.5 -85t83.5 -35h29q49 0 83.5 35t34.5 85v148z" />
<glyph horiz-adv-x="521" d="M393 339h88v-150q0 -83 -58.5 -141t-140.5 -58h-43q-82 0 -140.5 58.5t-58.5 140.5v150h88v-148q0 -50 34.5 -85t83.5 -35h29q49 0 83.5 35t34.5 85v148zM481 369h-88v143q0 50 -34.5 85t-83.5 35h-29q-49 0 -83.5 -35t-34.5 -85v-143h-88v145q0 82 58.5 140.5 t140.5 58.5h43q82 0 140.5 -58.5t58.5 -140.5v-145zM246 741q-43 0 -72.5 29.5t-29.5 72.5v24h60v-24q0 -19 13.5 -32.5t32.5 -13.5h21q19 0 32.5 13.5t13.5 32.5v24h61v-24q0 -43 -30 -72.5t-72 -29.5h-30z" />
<glyph horiz-adv-x="521" d="M149 746l-31 52l143 87l143 -87l-31 -52l-112 68zM481 369h-88v143q0 50 -34.5 85t-83.5 35h-29q-49 0 -83.5 -35t-34.5 -85v-143h-88v145q0 82 58.5 140.5t140.5 58.5h43q82 0 140.5 -58.5t58.5 -140.5v-145zM393 339h88v-150q0 -83 -58.5 -141t-140.5 -58h-43 q-82 0 -140.5 58.5t-58.5 140.5v150h88v-148q0 -50 34.5 -85t83.5 -35h29q49 0 83.5 35t34.5 85v148z" />
<glyph horiz-adv-x="521" d="M481 369h-88v143q0 50 -34.5 85t-83.5 35h-29q-49 0 -83.5 -35t-34.5 -85v-143h-88v145q0 82 58.5 140.5t140.5 58.5h43q82 0 140.5 -58.5t58.5 -140.5v-145zM393 339h88v-150q0 -83 -58.5 -141t-140.5 -58h-43q-82 0 -140.5 58.5t-58.5 140.5v150h88v-148 q0 -50 34.5 -85t83.5 -35h29q49 0 83.5 35t34.5 85v148zM301 763v82h70v-82h-70zM153 763v82h71v-82h-71z" />
<glyph horiz-adv-x="521" d="M316 735l-160 93l33 58l159 -95zM481 369h-88v143q0 50 -34.5 85t-83.5 35h-29q-49 0 -83.5 -35t-34.5 -85v-143h-88v145q0 82 58.5 140.5t140.5 58.5h43q82 0 140.5 -58.5t58.5 -140.5v-145zM393 339h88v-150q0 -83 -58.5 -141t-140.5 -58h-43q-82 0 -140.5 58.5 t-58.5 140.5v150h88v-148q0 -50 34.5 -85t83.5 -35h29q49 0 83.5 35t34.5 85v148z" />
<glyph horiz-adv-x="521" d="M322 737l-54 29l66 111l54 -30zM190 741l-53 29l66 110l54 -29zM481 369h-88v143q0 50 -34.5 85t-83.5 35h-29q-49 0 -83.5 -35t-34.5 -85v-143h-88v145q0 82 58.5 140.5t140.5 58.5h43q82 0 140.5 -58.5t58.5 -140.5v-145zM393 339h88v-150q0 -83 -58.5 -141t-140.5 -58 h-43q-82 0 -140.5 58.5t-58.5 140.5v150h88v-148q0 -50 34.5 -85t83.5 -35h29q49 0 83.5 35t34.5 85v148z" />
<glyph horiz-adv-x="521" d="M481 369h-88v143q0 50 -34.5 85t-83.5 35h-29q-49 0 -83.5 -35t-34.5 -85v-143h-88v145q0 82 58.5 140.5t140.5 58.5h43q82 0 140.5 -58.5t58.5 -140.5v-145zM393 339h88v-150q0 -83 -58.5 -141t-140.5 -58h-43q-82 0 -140.5 58.5t-58.5 140.5v150h88v-148 q0 -50 34.5 -85t83.5 -35h29q49 0 83.5 35t34.5 85v148zM133 771v68h255v-68h-255z" />
<glyph horiz-adv-x="521" d="M481 369h-88v143q0 50 -34.5 85t-83.5 35h-29q-49 0 -83.5 -35t-34.5 -85v-143h-88v145q0 82 58.5 140.5t140.5 58.5h43q82 0 140.5 -58.5t58.5 -140.5v-145zM393 339h88v-150q0 -83 -58.5 -141t-140.5 -58h-43q-82 0 -140.5 58.5t-58.5 140.5v150h88v-148 q0 -50 34.5 -85t83.5 -35h29q49 0 83.5 35t34.5 85v148zM111 801l24 30q27 37 68 37q31 0 56 -17l29 -20q15 -11 27 -11q16 0 26 14l20 26l49 -39l-25 -33q-25 -35 -65 -35q-34 0 -55 15l-30 20q-18 12 -28 12q-16 0 -24 -10l-22 -29z" />
<glyph horiz-adv-x="510" d="M379 475h89v-5q0 -53 -29.5 -99.5t-80.5 -70.5l147 -300h-99l-137 280h-5h-210v423h221q79 0 136 -56.5t57 -133.5v-8h-89v11q0 43 -32.5 75.5t-77.5 32.5h-127v-266h127q45 0 77.5 32.5t32.5 75.5v9zM54 250h88v-250h-88v250zM207 734l-32 56l158 95l34 -58z" />
<glyph horiz-adv-x="510" d="M379 475h89v-5q0 -53 -29.5 -99.5t-80.5 -70.5l147 -300h-99l-137 280h-5h-210v423h221q79 0 136 -56.5t57 -133.5v-8h-89v11q0 43 -32.5 75.5t-77.5 32.5h-127v-266h127q45 0 77.5 32.5t32.5 75.5v9zM54 250h88v-250h-88v250zM235 737l-143 87l30 52l113 -69l112 69 l31 -52z" />
<glyph horiz-adv-x="510" d="M379 475h89v-5q0 -53 -29.5 -99.5t-80.5 -70.5l147 -300h-99l-137 280h-5h-210v423h221q79 0 136 -56.5t57 -133.5v-8h-89v11q0 43 -32.5 75.5t-77.5 32.5h-127v-266h127q45 0 77.5 32.5t32.5 75.5v9zM54 250h88v-250h-88v250zM237 -28l70 -17l-41 -150l-69 17z" />
<glyph horiz-adv-x="502" d="M128 532h-88v2q0 75 54.5 127t132.5 52h50q78 0 130 -55t52 -135v-47h-85v46q0 47 -30 79.5t-76 32.5h-34q-44 0 -74.5 -29t-31.5 -73zM381 179h88v-2q0 -77 -52.5 -132t-133.5 -55h-63q-79 0 -133 55t-54 134v46h86v-45q0 -46 32.5 -78.5t78.5 -32.5h42q48 0 77.5 31.5 t31.5 78.5zM469 209h-89q-2 46 -31 75.5t-91 29.5h-19q-91 0 -146 55.5t-53 132.5h88q1 -45 32 -77t91 -32h21q96 0 146.5 -51t50.5 -130v-3zM221 734l-32 56l158 95l34 -58z" />
<glyph horiz-adv-x="502" d="M128 532h-88v2q0 75 54.5 127t132.5 52h50q78 0 130 -55t52 -135v-47h-85v46q0 47 -30 79.5t-76 32.5h-34q-44 0 -74.5 -29t-31.5 -73zM381 179h88v-2q0 -77 -52.5 -132t-133.5 -55h-63q-79 0 -133 55t-54 134v46h86v-45q0 -46 32.5 -78.5t78.5 -32.5h42q48 0 77.5 31.5 t31.5 78.5zM469 209h-89q-2 46 -31 75.5t-91 29.5h-19q-91 0 -146 55.5t-53 132.5h88q1 -45 32 -77t91 -32h21q96 0 146.5 -51t50.5 -130v-3zM249 737l-143 87l30 52l113 -69l112 69l31 -52z" />
<glyph horiz-adv-x="502" d="M381 179h88v-2q0 -77 -52.5 -132t-133.5 -55h-2v-25q25 -4 42.5 -24t17.5 -47v-16q0 -34 -23 -56.5t-56 -22.5h-17q-33 0 -55.5 22.5t-22.5 56.5v17l55 -1v-14q0 -10 8 -18t19 -8h9q10 0 18 8t8 18v10q0 10 -7 17.5t-17 8.5h-38v74h-2q-79 0 -133 55t-54 134v46h86v-45 q0 -46 32.5 -78.5t78.5 -32.5h42q48 0 77.5 31.5t31.5 78.5zM128 532h-88v2q0 75 54.5 127t132.5 52h50q78 0 130 -55t52 -135v-47h-85v46q0 47 -30 79.5t-76 32.5h-34q-44 0 -74.5 -29t-31.5 -73zM469 209h-89q-2 46 -31 75.5t-91 29.5h-19q-91 0 -146 55.5t-53 132.5h88 q1 -45 32 -77t91 -32h21q96 0 146.5 -51t50.5 -130v-3z" />
<glyph horiz-adv-x="502" d="M128 532h-88v2q0 75 54.5 127t132.5 52h50q78 0 130 -55t52 -135v-47h-85v46q0 47 -30 79.5t-76 32.5h-34q-44 0 -74.5 -29t-31.5 -73zM381 179h88v-2q0 -77 -52.5 -132t-133.5 -55h-63q-79 0 -133 55t-54 134v46h86v-45q0 -46 32.5 -78.5t78.5 -32.5h42q48 0 77.5 31.5 t31.5 78.5zM469 209h-89q-2 46 -31 75.5t-91 29.5h-19q-91 0 -146 55.5t-53 132.5h88q1 -45 32 -77t91 -32h21q96 0 146.5 -51t50.5 -130v-3zM137 746l-31 52l143 87l143 -87l-31 -52l-112 68z" />
<glyph horiz-adv-x="502" d="M225 -28l70 -17l-41 -150l-69 17zM128 532h-88v2q0 75 54.5 127t132.5 52h50q78 0 130 -55t52 -135v-47h-85v46q0 47 -30 79.5t-76 32.5h-34q-44 0 -74.5 -29t-31.5 -73zM381 179h88v-2q0 -77 -52.5 -132t-133.5 -55h-63q-79 0 -133 55t-54 134v46h86v-45 q0 -46 32.5 -78.5t78.5 -32.5h42q48 0 77.5 31.5t31.5 78.5zM469 209h-89q-2 46 -31 75.5t-91 29.5h-19q-91 0 -146 55.5t-53 132.5h88q1 -45 32 -77t91 -32h21q96 0 146.5 -51t50.5 -130v-3z" />
<glyph horiz-adv-x="502" d="M128 532h-88v2q0 75 54.5 127t132.5 52h50q78 0 130 -55t52 -135v-47h-85v46q0 47 -30 79.5t-76 32.5h-34q-44 0 -74.5 -29t-31.5 -73zM381 179h88v-2q0 -77 -52.5 -132t-133.5 -55h-63q-79 0 -133 55t-54 134v46h86v-45q0 -46 32.5 -78.5t78.5 -32.5h42q48 0 77.5 31.5 t31.5 78.5zM469 209h-89q-2 46 -31 75.5t-91 29.5h-19q-91 0 -146 55.5t-53 132.5h88q1 -45 32 -77t91 -32h21q96 0 146.5 -51t50.5 -130v-3zM207 -118v82h84v-82h-84z" />
<glyph horiz-adv-x="417" d="M252 320v-320h-87v320h-104v64h104v210h87v-210h104v-64h-104zM427 624h-437v79h437v-79z" />
<glyph horiz-adv-x="417" d="M427 624h-437v79h437v-79zM165 594h87v-594h-87v594zM208 737l-143 87l30 52l113 -69l112 69l31 -52z" />
<glyph horiz-adv-x="417" d="M184 -28l70 -17l-41 -150l-69 17zM427 624h-437v79h437v-79zM165 594h87v-594h-87v594z" />
<glyph horiz-adv-x="417" d="M184 -28l70 -17l-41 -150l-69 17zM427 624h-437v79h437v-79zM165 594h87v-594h-87v594z" />
<glyph horiz-adv-x="534" d="M137 369h-88v334h88v-334zM49 339h88v-151q0 -48 33.5 -82t80.5 -34h32q46 0 80 32t34 80h88q-3 -84 -59 -139t-136 -55h-45q-81 0 -138.5 57t-57.5 138v154zM485 214h-88v489h88v-489zM238 734l-32 56l158 95l34 -58z" />
<glyph horiz-adv-x="534" d="M49 339h88v-151q0 -48 33.5 -82t80.5 -34h32q46 0 80 32t34 80h88q-3 -84 -59 -139t-136 -55h-45q-81 0 -138.5 57t-57.5 138v154zM485 214h-88v489h88v-489zM137 369h-88v334h88v-334zM252 741q-43 0 -72.5 29.5t-29.5 72.5v24h60v-24q0 -19 13.5 -32.5t32.5 -13.5h21 q19 0 32.5 13.5t13.5 32.5v24h61v-24q0 -43 -30 -72.5t-72 -29.5h-30z" />
<glyph horiz-adv-x="534" d="M155 746l-31 52l143 87l143 -87l-31 -52l-112 68zM137 369h-88v334h88v-334zM49 339h88v-151q0 -48 33.5 -82t80.5 -34h32q46 0 80 32t34 80h88q-3 -84 -59 -139t-136 -55h-45q-81 0 -138.5 57t-57.5 138v154zM485 214h-88v489h88v-489z" />
<glyph horiz-adv-x="534" d="M137 369h-88v334h88v-334zM49 339h88v-151q0 -48 33.5 -82t80.5 -34h32q46 0 80 32t34 80h88q-3 -84 -59 -139t-136 -55h-45q-81 0 -138.5 57t-57.5 138v154zM485 214h-88v489h88v-489zM307 763v82h70v-82h-70zM159 763v82h71v-82h-71z" />
<glyph horiz-adv-x="534" d="M322 735l-160 93l33 58l159 -95zM137 369h-88v334h88v-334zM49 339h88v-151q0 -48 33.5 -82t80.5 -34h32q46 0 80 32t34 80h88q-3 -84 -59 -139t-136 -55h-45q-81 0 -138.5 57t-57.5 138v154zM485 214h-88v489h88v-489z" />
<glyph horiz-adv-x="534" d="M328 737l-54 29l66 111l54 -30zM196 741l-53 29l66 110l54 -29zM137 369h-88v334h88v-334zM49 339h88v-151q0 -48 33.5 -82t80.5 -34h32q46 0 80 32t34 80h88q-3 -84 -59 -139t-136 -55h-45q-81 0 -138.5 57t-57.5 138v154zM485 214h-88v489h88v-489z" />
<glyph horiz-adv-x="534" d="M137 369h-88v334h88v-334zM49 339h88v-151q0 -48 33.5 -82t80.5 -34h32q46 0 80 32t34 80h88q-3 -84 -59 -139t-136 -55h-45q-81 0 -138.5 57t-57.5 138v154zM485 214h-88v489h88v-489zM139 771v68h255v-68h-255z" />
<glyph horiz-adv-x="534" d="M49 339h88v-151q0 -48 33.5 -82t80.5 -34h32q46 0 80 32t34 80h88q-3 -70 -44 -121.5t-103 -66.5v-83h-30q-10 -1 -16.5 -8.5t-6.5 -17.5v-7q0 -10 7.5 -18t18.5 -8h27v-55h-40q-31 0 -53.5 23t-22.5 55v12q0 29 16.5 49.5t43.5 25.5v26h-37q-81 0 -138.5 57t-57.5 138 v154zM485 214h-88v489h88v-489zM137 369h-88v334h88v-334z" />
<glyph horiz-adv-x="534" d="M259 731q-31 0 -53.5 22t-22.5 53v15q0 31 22.5 52.5t53.5 21.5h16q31 0 53 -21.5t22 -52.5v-15q0 -31 -22 -53t-53 -22h-16zM262 782h10q10 0 18 8t8 18v10q0 10 -8 18t-18 8h-10q-10 0 -18 -8t-8 -18v-10q0 -10 8 -18t18 -8zM137 369h-88v334h88v-334zM49 339h88v-151 q0 -48 33.5 -82t80.5 -34h32q46 0 80 32t34 80h88q-3 -84 -59 -139t-136 -55h-45q-81 0 -138.5 57t-57.5 138v154zM485 214h-88v489h88v-489z" />
<glyph horiz-adv-x="534" d="M137 369h-88v334h88v-334zM49 339h88v-151q0 -48 33.5 -82t80.5 -34h32q46 0 80 32t34 80h88q-3 -84 -59 -139t-136 -55h-45q-81 0 -138.5 57t-57.5 138v154zM485 214h-88v489h88v-489zM117 801l24 30q27 37 68 37q31 0 56 -17l29 -20q15 -11 27 -11q16 0 26 14l20 26 l49 -39l-25 -33q-25 -35 -65 -35q-34 0 -55 15l-30 20q-18 12 -28 12q-16 0 -24 -10l-22 -29z" />
<glyph horiz-adv-x="534" d="M137 369h-88v334h88v-334zM49 339h88v-151q0 -48 33.5 -82t80.5 -34h32q46 0 80 32t34 80h88q-3 -84 -59 -139t-136 -55h-45q-81 0 -138.5 57t-57.5 138v154zM485 214h-88v489h88v-489zM267 737l-143 87l30 52l113 -69l112 69l31 -52z" />
<glyph horiz-adv-x="745" d="M346 747l-32 56l158 95l34 -58zM180 320h-83l-71 383h86zM648 320h-81l71 383h84zM102 290h84l29 -164l115 577h91l110 -577l31 164h80l-55 -290h-110l-105 532l-111 -532h-105z" />
<glyph horiz-adv-x="745" d="M262 759l-31 52l143 87l143 -87l-31 -52l-112 68zM180 320h-83l-71 383h86zM648 320h-81l71 383h84zM102 290h84l29 -164l115 577h91l110 -577l31 164h80l-55 -290h-110l-105 532l-111 -532h-105z" />
<glyph horiz-adv-x="745" d="M180 320h-83l-71 383h86zM648 320h-81l71 383h84zM102 290h84l29 -164l115 577h91l110 -577l31 164h80l-55 -290h-110l-105 532l-111 -532h-105zM414 776v82h70v-82h-70zM266 776v82h71v-82h-71z" />
<glyph horiz-adv-x="745" d="M429 748l-160 93l33 58l159 -95zM180 320h-83l-71 383h86zM648 320h-81l71 383h84zM102 290h84l29 -164l115 577h91l110 -577l31 164h80l-55 -290h-110l-105 532l-111 -532h-105z" />
<glyph horiz-adv-x="450" d="M269 283h-88l-186 420h87l143 -326l144 326h86zM181 253h88v-253h-88v253zM196 734l-32 56l158 95l34 -58z" />
<glyph horiz-adv-x="450" d="M269 283h-88l-186 420h87l143 -326l144 326h86zM181 253h88v-253h-88v253zM112 746l-31 52l143 87l143 -87l-31 -52l-112 68z" />
<glyph horiz-adv-x="450" d="M269 283h-88l-186 420h87l143 -326l144 326h86zM181 253h88v-253h-88v253zM264 763v82h70v-82h-70zM116 763v82h71v-82h-71z" />
<glyph horiz-adv-x="450" d="M269 283h-88l-186 420h87l143 -326l144 326h86zM181 253h88v-253h-88v253zM96 771v68h255v-68h-255z" />
<glyph horiz-adv-x="450" d="M269 283h-88l-186 420h87l143 -326l144 326h86zM181 253h88v-253h-88v253zM279 735l-160 93l33 58l159 -95z" />
<glyph horiz-adv-x="419" d="M395 624h-370v79h382v-56zM11 79h396v-79h-396v79zM126 109h-94l253 485h95zM187 734l-32 56l158 95l34 -58z" />
<glyph horiz-adv-x="419" d="M395 624h-370v79h382v-56zM11 79h396v-79h-396v79zM126 109h-94l253 485h95zM215 737l-143 87l30 52l113 -69l112 69l31 -52z" />
<glyph horiz-adv-x="419" d="M173 764v82h84v-82h-84zM395 624h-370v79h382v-56zM11 79h396v-79h-396v79zM126 109h-94l253 485h95z" />
<glyph horiz-adv-x="671" d="M86 270h212v324h84v-203h243v-79h-243v-233h255v-79h-339v194h-153l-72 -194h-85zM180 300h-83l147 403h393v-79h-341zM373 734l-32 56l158 95l34 -58z" />
<glyph horiz-adv-x="671" d="M86 270h212v324h84v-203h243v-79h-243v-233h255v-79h-339v194h-153l-72 -194h-85zM180 300h-83l147 403h393v-79h-341zM273 771v68h255v-68h-255z" />
<glyph horiz-adv-x="526" d="M395 339h88v-150q0 -83 -58.5 -141t-140.5 -58h-42q-60 0 -112 34l-43 -80l-66 35l53 102q-32 47 -32 108v150h88v-148q0 -50 34.5 -85t83.5 -35h30q49 0 83 35t34 85v148zM483 369h-88v143q0 50 -34 85t-83 35h-30q-49 0 -83.5 -35t-34.5 -85v-143h-88v145 q0 82 58.5 140.5t141.5 58.5h42q61 0 112 -35l42 81l68 -36l-55 -102q32 -50 32 -107v-145zM235 734l-32 56l158 95l34 -58z" />
<glyph horiz-adv-x="473" d="M142 369h-88v334h88v-334zM54 339h88v-339h-88v339zM423 211h-88v492h88v-492zM334 181h89q-1 -78 -51.5 -129.5t-129.5 -51.5h-53v79h35q47 0 77 30.5t33 71.5z" />
<glyph horiz-adv-x="473" d="M142 369h-88v334h88v-334zM54 339h88v-339h-88v339zM423 211h-88v492h88v-492zM334 181h89q-1 -78 -51.5 -129.5t-129.5 -51.5h-53v79h35q47 0 77 30.5t33 71.5zM71 734l-32 56l158 95l34 -58zM351 734l-32 56l158 95l34 -58z" />
<glyph horiz-adv-x="466" d="M325 288h87v-159q0 -32 9.5 -45t37.5 -13h12v-72h-46q-50 0 -75 26.5t-25 69.5v92h-140q-31 0 -51.5 -15t-20.5 -44q0 -66 70 -66h39q49 0 77 32v-15q0 -30 16 -53q-38 -31 -110 -31h-50q-52 0 -91.5 33.5t-39.5 94.5q0 59 35.5 96t95.5 37h170v32zM412 318h-87v29 q0 37 -22.5 64t-58.5 27h-28q-41 0 -64 -27.5t-23 -64.5v-23h-83v37q0 64 45.5 109.5t113.5 45.5h55q66 0 109 -43.5t43 -106.5v-47z" />
<glyph horiz-adv-x="485" d="M142 276h-88v427h85v-239q36 51 115 51h53q60 0 100 -42t40 -101v-96h-87v68q0 40 -20.5 67t-57.5 27h-39q-42 0 -70.5 -32t-30.5 -73v-57zM54 246h88v-106q1 -32 25.5 -51.5t60.5 -19.5h42q43 0 66.5 31.5t23.5 75.5v70h87v-86q0 -70 -46.5 -118.5t-114.5 -48.5h-50 q-72 0 -99 37v-30h-83v246z" />
<glyph horiz-adv-x="469" d="M125 276h-87v68q0 71 48.5 121t118.5 50h63q70 0 118 -50t48 -121v-41h-86v30q0 44 -24 74.5t-66 30.5h-43q-42 0 -66 -30.5t-24 -74.5v-57zM38 246h87v-72q0 -44 25 -74.5t67 -30.5h41q42 0 66 30.5t24 74.5v30h86v-40q0 -71 -48 -121t-118 -50h-63q-70 0 -118.5 50 t-48.5 121v82z" />
<glyph horiz-adv-x="485" d="M430 276h-87v91q0 32 -24.5 51.5t-61.5 19.5h-42q-43 0 -66.5 -31t-23.5 -76v-55h-87v68q0 71 47 121t118 50h48q63 0 94 -34v222h85v-427zM343 246h87v-246h-84v44q-37 -51 -115 -51h-52q-61 0 -101 42t-40 101v110h87v-83q0 -40 20 -67t58 -27h39q41 0 70 33t31 74v70z " />
<glyph horiz-adv-x="460" d="M151 268v66h193v8q0 43 -23.5 72t-65.5 29h-43q-43 0 -67 -29t-24 -72v-103h-83v107q0 70 50 119.5t121 49.5h52q70 0 118 -49t48 -120v-78h-276zM38 209h83v-40q0 -43 25.5 -74t68.5 -31h38q42 0 66 31t24 76v24h84v-29q0 -74 -47 -123.5t-117 -49.5h-59 q-71 0 -118.5 49t-47.5 122v45z" />
<glyph horiz-adv-x="248" d="M76 402h86v-402h-86v402zM162 538h-86v24q2 58 42 99.5t100 41.5h84v-75h-67q-36 0 -54.5 -21t-18.5 -54v-15zM9 432v76h259v-76h-259z" />
<glyph horiz-adv-x="466" d="M455 -41h-86q-15 43 -66 43h-106q-72 0 -105.5 35.5t-33.5 80.5v17q0 46 19 73q-40 43 -40 106v12h84v-5q0 -38 22 -63.5t59 -25.5h42q38 0 59.5 25t21.5 64v5h85v-11q0 -65 -42 -109t-107 -44h-76q-26 0 -47 7q-4 -15 -4 -31v-7q0 -53 56 -53h129q55 0 94.5 -32.5 t41.5 -81.5v-5zM56 39q22 -33 67 -46q-25 -18 -25 -52v-10q0 -25 19 -43.5t55 -18.5h107q90 0 92 65h86q-3 -139 -171 -139h-126q-70 0 -108.5 37.5t-38.5 82.5v32q0 60 43 92zM412 434q-6 0 -18 -2q16 -32 16 -65v-11h-85v5q0 33 -21.5 58.5t-59.5 25.5h-42q-37 0 -59 -25 t-22 -59v-5h-84v11q0 60 42.5 104t107.5 44h77q43 0 78 -24q27 16 58 16h63v-73h-51z" />
<glyph horiz-adv-x="490" d="M440 276h-89v73q0 37 -18 62t-52 25h-34q-35 0 -65 -25.5t-40 -65.5h-88v358h88v-252q17 33 52 48.5t70 15.5h38q58 0 98 -39.5t40 -101.5v-98zM54 315h88v-315h-88v315zM351 246h89v-246h-89v246z" />
<glyph d="M142 276h-88v232h88v-232zM54 246h88v-246h-88v246zM54 569v84h88v-84h-88z" />
<glyph horiz-adv-x="200" d="M145 276h-88v232h88v-232zM57 569v84h88v-84h-88zM57 246h88v-304q0 -58 -38.5 -98t-95.5 -40h-72v75h49q35 0 52 24t17 59v284z" />
<glyph horiz-adv-x="434" d="M54 293h167l109 215h93l-126 -250l22 -40h-177v-218h-88v293zM142 323h-88v380h88v-380zM239 188h96l104 -188h-95z" />
<glyph d="M142 369h-88v334h88v-334zM54 339h88v-339h-88v339z" />
<glyph horiz-adv-x="753" d="M140 276h-86v232h85v-64q17 34 52 52.5t68 18.5h43q36 0 65 -20t44 -52q22 36 57.5 54t69.5 18h39q54 0 90 -38t36 -93v-108h-87v73q0 36 -18.5 60.5t-52.5 24.5h-24q-41 0 -69 -30.5t-30 -71.5v-56h-87v73q0 36 -18.5 60.5t-52.5 24.5h-24q-40 0 -68.5 -29.5 t-31.5 -68.5v-60zM616 246h87v-246h-87v246zM335 246h87v-246h-87v246zM54 246h86v-246h-86v246z" />
<glyph horiz-adv-x="490" d="M142 276h-88v232h87v-58q17 34 52 49.5t71 15.5h38q58 0 98 -39.5t40 -101.5v-98h-89v73q0 37 -18 62t-52 25h-34q-37 0 -69 -30t-36 -81v-49zM351 246h89v-246h-89v246zM54 246h88v-246h-88v246z" />
<glyph horiz-adv-x="477" d="M439 276h-87v57q0 44 -25 74.5t-67 30.5h-43q-42 0 -67 -30.5t-25 -74.5v-57h-87v68q0 71 48.5 121t118.5 50h67q70 0 118.5 -50t48.5 -121v-68zM352 246h87v-82q0 -71 -48.5 -121t-118.5 -50h-67q-70 0 -118.5 50t-48.5 121v82h87v-72q0 -44 25 -74.5t67 -30.5h43 q42 0 67 30.5t25 74.5v72z" />
<glyph horiz-adv-x="485" d="M54 246h88v-109q1 -31 25.5 -49.5t60.5 -18.5h42q43 0 66.5 31.5t23.5 75.5v70h87v-82q0 -71 -47.5 -121t-117.5 -50h-48q-64 0 -95 35v-224h-85v442zM142 276h-88v232h84v-45q37 52 116 52h53q60 0 100 -42t40 -101v-96h-87v68q0 40 -20.5 67t-57.5 27h-39 q-42 0 -70.5 -32t-30.5 -73v-57z" />
<glyph horiz-adv-x="486" d="M344 246h87v-442h-85v240q-37 -51 -114 -51h-53q-61 0 -101 42t-40 101v110h87v-83q0 -39 20.5 -66.5t57.5 -27.5h40q41 0 70 33t31 74v70zM431 276h-87v94q-1 31 -26 49.5t-61 18.5h-42q-43 0 -66.5 -31t-23.5 -76v-55h-87v71q0 70 46.5 119t115.5 49h49q69 0 99 -37v30 h83v-232z" />
<glyph horiz-adv-x="312" d="M303 508v-79h-40q-50 0 -83 -33t-38 -83h-88v195h84v-68q17 33 52.5 50.5t71.5 17.5h41zM54 283h88v-283h-88v283z" />
<glyph horiz-adv-x="452" d="M129 386h-87q5 55 48.5 92t109.5 37h57q68 0 112 -40.5t44 -97.5v-35h-86v26q0 33 -22.5 53.5t-62.5 20.5h-30q-34 0 -56.5 -15t-26.5 -41zM333 123h90q-4 -54 -48 -92t-108 -38h-79q-68 0 -112.5 39.5t-44.5 95.5v42h86v-28q0 -34 23.5 -55t66.5 -21h41q36 0 59 16 t26 41zM423 153h-90q-3 29 -28 46t-70 17h-18q-81 0 -128.5 37.5t-47.5 96.5v6h88q2 -28 27.5 -44.5t71.5 -16.5h19q78 0 127 -37.5t49 -96.5v-8z" />
<glyph horiz-adv-x="404" d="M72 402h86v-262q0 -31 17.5 -51.5t47.5 -20.5h19q36 0 52.5 21t16.5 53v35h81v-50q0 -55 -38.5 -94.5t-94.5 -39.5h-56q-56 0 -93.5 38.5t-37.5 91.5v279zM9 432v76h63v87h86v-87h229v-76h-378z" />
<glyph horiz-adv-x="489" d="M50 246h89v-87q0 -37 18 -62t52 -25h33q40 0 72 32t33 75h87v-179h-84v59q-36 -66 -126 -66h-39q-54 0 -94.5 39.5t-40.5 96.5v117zM434 209h-87v299h87v-299zM139 276h-89v232h89v-232z" />
<glyph horiz-adv-x="418" d="M171 218h-88l-83 290h88zM92 188h88l29 -102l121 422h88l-147 -508h-125z" />
<glyph horiz-adv-x="654" d="M162 247h-84l-58 261h84zM582 247h-82l57 261h84zM493 217h83l-49 -217h-106l-94 360l-88 -360h-106l-48 217h83l23 -102l93 393h87l100 -393z" />
<glyph horiz-adv-x="399" d="M139 243h121l142 -243h-96l-107 188l-106 -188h-97zM262 273h-124l-138 235h96l103 -183l104 183h96z" />
<glyph horiz-adv-x="418" d="M171 218h-87l-84 290h88zM176 -29h85l-18 -55q-20 -61 -58 -87t-97 -26h-71v76h65q64 0 84 62zM92 188h87l30 -103l121 423h88l-147 -508h-124z" />
<glyph horiz-adv-x="401" d="M248 399h97l-213 -320h250v-79h-361v62zM365 429h-340v79h355v-56z" />
<glyph horiz-adv-x="485" d="M436 526h-87q-1 43 -25.5 72.5t-66.5 29.5h-36q-38 0 -59.5 -25t-21.5 -63v-171h-86v178q0 65 44 110.5t110 45.5h62q70 0 118 -51t48 -126zM349 496h87q0 -87 -63 -137q39 -19 60 -57t21 -80v-10h-91q-1 46 -25.5 77t-66.5 31h-41v71h27q42 0 66 30t26 75zM54 339h86 v-339h-86v339zM363 182h91v-17q0 -69 -46.5 -117t-114.5 -48h-64v79h43q42 0 66 30t25 73z" />
<glyph d="M142 276h-88v232h88v-232zM54 246h88v-246h-88v246z" />
<glyph horiz-adv-x="200" d="M145 276h-88v232h88v-232zM57 246h88v-304q0 -58 -38.5 -98t-95.5 -40h-72v75h49q35 0 52 24t17 59v284z" />
<glyph horiz-adv-x="748" d="M325 164v23h-139q-32 0 -52.5 -15t-20.5 -44q0 -66 77 -66h33q22 0 46.5 10.5t37.5 30.5q5 -37 35 -65q-47 -44 -119 -44h-65q-55 0 -94.5 33.5t-39.5 95.5q0 60 35.5 96.5t99.5 36.5h166v78h308v8q0 42 -24.5 71.5t-67.5 29.5h-41q-71 0 -88 -79h-88l-1 4q-17 70 -79 70 h-27q-41 0 -64.5 -27.5t-23.5 -64.5v-23h-83v37q0 64 44 109.5t112 45.5h52q73 0 114 -60q49 60 123 60h59q70 0 118 -49t48 -120v-78h-306v-99q0 -44 25 -74.5t67 -30.5h38q43 0 67.5 31t24.5 76v24h84v-29q0 -74 -47.5 -123.5t-118.5 -49.5h-53q-73 0 -122.5 47.5 t-49.5 123.5z" />
<glyph horiz-adv-x="777" d="M125 313h-87v31q0 71 48.5 121t118.5 50h67q39 0 72 -19t51 -52q19 33 52.5 52t72.5 19h59q70 0 118 -49t48 -120v-78h-306v-29h-87v94q0 44 -25 74.5t-67 30.5h-43q-42 0 -67 -30.5t-25 -74.5v-20zM38 283h87v-109q0 -44 25 -74.5t67 -30.5h43q42 0 67 30.5t25 74.5v35 h87v-40q0 -44 25 -74.5t67 -30.5h38q43 0 68 31t25 76v24h83v-29q0 -74 -47 -123.5t-117 -49.5h-61q-39 0 -72.5 19t-51.5 52q-18 -33 -51.5 -52t-72.5 -19h-67q-70 0 -118.5 50t-48.5 121v119zM439 342v-8h223v8q0 43 -24 72t-65 29h-44q-43 0 -66.5 -29t-23.5 -72z" />
<glyph horiz-adv-x="477" d="M352 246h87v-82q0 -71 -48.5 -121t-118.5 -50h-67q-30 0 -60 11l-45 -85l-57 31l46 90q-51 49 -51 124v82h87v-72q0 -44 25 -74.5t67 -30.5h43q42 0 67 30.5t25 74.5v72zM439 276h-87v57q0 44 -25 74.5t-67 30.5h-43q-42 0 -67 -30.5t-25 -74.5v-57h-87v68q0 71 48.5 121 t118.5 50h67q32 0 64 -13l41 80l60 -31l-46 -87q48 -50 48 -120v-68z" />
<glyph horiz-adv-x="459" d="M421 325h-87q-55 24 -96 24h-23q-41 0 -69 -27.5t-28 -69.5v-24h-87v28q0 73 49.5 122.5t121.5 49.5h31q54 0 100 -25q-6 72 -86 140l-108 -68l-34 52l90 57l-93 75l50 62l115 -91l88 56l35 -52l-72 -46q103 -94 103 -219v-44zM334 295h87v-138q0 -69 -47.5 -118 t-116.5 -49h-63q-68 0 -115.5 49t-47.5 118v41h87v-37q0 -39 26 -66.5t64 -27.5h36q38 0 64 27t26 66v135z" />
<glyph horiz-adv-x="485" d="M54 246h88v-109q1 -31 25.5 -49.5t60.5 -18.5h42q43 0 66.5 31.5t23.5 75.5v70h87v-82q0 -71 -47.5 -121t-117.5 -50h-48q-64 0 -95 35v-224h-85v442zM142 276h-88v427h85v-239q36 51 115 51h53q60 0 100 -42t40 -101v-96h-87v68q0 40 -20.5 67t-57.5 27h-39 q-42 0 -70.5 -32t-30.5 -73v-57z" />
<glyph horiz-adv-x="460" d="M344 269h83v-107q0 -70 -50 -119.5t-121 -49.5h-52q-70 0 -119 49t-49 120v78h308v29zM427 299h-83v40q0 43 -25.5 74t-68.5 31h-38q-43 0 -67.5 -31t-24.5 -76v-24h-84v29q0 74 47.5 123.5t118.5 49.5h59q71 0 118.5 -49t47.5 -122v-45zM253 65q43 0 67 29t24 72v8h-225 v-8q0 -43 24 -72t67 -29h43z" />
<glyph horiz-adv-x="466" d="M325 288h87v-159q0 -32 9.5 -45t37.5 -13h12v-72h-46q-50 0 -75 26.5t-25 69.5v92h-140q-31 0 -51.5 -15t-20.5 -44q0 -66 70 -66h39q49 0 77 32v-15q0 -30 16 -53q-38 -31 -110 -31h-50q-52 0 -91.5 33.5t-39.5 94.5q0 59 35.5 96t95.5 37h170v32zM412 318h-87v29 q0 37 -22.5 64t-58.5 27h-28q-41 0 -64 -27.5t-23 -64.5v-23h-83v37q0 64 45.5 109.5t113.5 45.5h55q66 0 109 -43.5t43 -106.5v-47zM203 541l-33 55l158 95l35 -57z" />
<glyph horiz-adv-x="466" d="M325 288h87v-159q0 -32 9.5 -45t37.5 -13h12v-72h-46q-50 0 -75 26.5t-25 69.5v92h-140q-31 0 -51.5 -15t-20.5 -44q0 -66 70 -66h39q49 0 77 32v-15q0 -30 16 -53q-38 -31 -110 -31h-50q-52 0 -91.5 33.5t-39.5 94.5q0 59 35.5 96t95.5 37h170v32zM412 318h-87v29 q0 37 -22.5 64t-58.5 27h-28q-41 0 -64 -27.5t-23 -64.5v-23h-83v37q0 64 45.5 109.5t113.5 45.5h55q66 0 109 -43.5t43 -106.5v-47zM216 548q-43 0 -72.5 29.5t-29.5 72.5v24h60v-24q0 -18 13.5 -32t32.5 -14h21q19 0 32.5 14t13.5 32v24h61v-24q0 -43 -30 -72.5t-72 -29.5 h-30z" />
<glyph horiz-adv-x="466" d="M325 288h87v-159q0 -32 9.5 -45t37.5 -13h12v-72h-46q-50 0 -75 26.5t-25 69.5v92h-140q-31 0 -51.5 -15t-20.5 -44q0 -66 70 -66h39q49 0 77 32v-15q0 -30 16 -53q-38 -31 -110 -31h-50q-52 0 -91.5 33.5t-39.5 94.5q0 59 35.5 96t95.5 37h170v32zM412 318h-87v29 q0 37 -22.5 64t-58.5 27h-28q-41 0 -64 -27.5t-23 -64.5v-23h-83v37q0 64 45.5 109.5t113.5 45.5h55q66 0 109 -43.5t43 -106.5v-47zM119 553l-31 52l143 87l143 -87l-31 -52l-112 69z" />
<glyph horiz-adv-x="466" d="M325 288h87v-159q0 -32 9.5 -45t37.5 -13h12v-72h-46q-50 0 -75 26.5t-25 69.5v92h-140q-31 0 -51.5 -15t-20.5 -44q0 -66 70 -66h39q49 0 77 32v-15q0 -30 16 -53q-38 -31 -110 -31h-50q-52 0 -91.5 33.5t-39.5 94.5q0 59 35.5 96t95.5 37h170v32zM412 318h-87v29 q0 37 -22.5 64t-58.5 27h-28q-41 0 -64 -27.5t-23 -64.5v-23h-83v37q0 64 45.5 109.5t113.5 45.5h55q66 0 109 -43.5t43 -106.5v-47zM123 571v82h71v-82h-71zM271 571v82h70v-82h-70z" />
<glyph horiz-adv-x="466" d="M325 288h87v-159q0 -32 9.5 -45t37.5 -13h12v-72h-46q-50 0 -75 26.5t-25 69.5v92h-140q-31 0 -51.5 -15t-20.5 -44q0 -66 70 -66h39q49 0 77 32v-15q0 -30 16 -53q-38 -31 -110 -31h-50q-52 0 -91.5 33.5t-39.5 94.5q0 59 35.5 96t95.5 37h170v32zM412 318h-87v29 q0 37 -22.5 64t-58.5 27h-28q-41 0 -64 -27.5t-23 -64.5v-23h-83v37q0 64 45.5 109.5t113.5 45.5h55q66 0 109 -43.5t43 -106.5v-47zM286 542l-160 93l34 57l159 -95z" />
<glyph horiz-adv-x="466" d="M325 288h87v-159q0 -32 9.5 -45t37.5 -13h12v-72h-46q-50 0 -75 26.5t-25 69.5v92h-140q-31 0 -51.5 -15t-20.5 -44q0 -66 70 -66h39q49 0 77 32v-15q0 -30 16 -53q-38 -31 -110 -31h-50q-52 0 -91.5 33.5t-39.5 94.5q0 59 35.5 96t95.5 37h170v32zM412 318h-87v29 q0 37 -22.5 64t-58.5 27h-28q-41 0 -64 -27.5t-23 -64.5v-23h-83v37q0 64 45.5 109.5t113.5 45.5h55q66 0 109 -43.5t43 -106.5v-47zM103 578v68h255v-68h-255z" />
<glyph horiz-adv-x="466" d="M355 -111q0 29 16.5 49.5t43.5 25.5v35q-45 3 -67.5 29t-22.5 67v92h-140q-31 0 -51.5 -15t-20.5 -44q0 -66 70 -66h39q49 0 77 32v-15q0 -30 16 -53q-38 -31 -110 -31h-50q-52 0 -91.5 33.5t-39.5 94.5q0 59 35.5 96t95.5 37h170v32h87v-159q0 -32 9.5 -45t37.5 -13h12 v-158h-30q-10 -1 -16.5 -8.5t-6.5 -17.5v-7q0 -10 8 -18t18 -8h27v-55h-40q-31 0 -53.5 23t-22.5 55v12zM412 318h-87v29q0 37 -22.5 64t-58.5 27h-28q-41 0 -64 -27.5t-23 -64.5v-23h-83v37q0 64 45.5 109.5t113.5 45.5h55q66 0 109 -43.5t43 -106.5v-47z" />
<glyph horiz-adv-x="466" d="M325 288h87v-159q0 -32 9.5 -45t37.5 -13h12v-72h-46q-50 0 -75 26.5t-25 69.5v92h-140q-31 0 -51.5 -15t-20.5 -44q0 -66 70 -66h39q49 0 77 32v-15q0 -30 16 -53q-38 -31 -110 -31h-50q-52 0 -91.5 33.5t-39.5 94.5q0 59 35.5 96t95.5 37h170v32zM412 318h-87v29 q0 37 -22.5 64t-58.5 27h-28q-41 0 -64 -27.5t-23 -64.5v-23h-83v37q0 64 45.5 109.5t113.5 45.5h55q66 0 109 -43.5t43 -106.5v-47zM223 538q-31 0 -53.5 22t-22.5 53v15q0 31 22.5 52.5t53.5 21.5h16q31 0 53 -21.5t22 -52.5v-15q0 -31 -22 -53t-53 -22h-16zM226 589h10 q10 0 18 8t8 18v10q0 10 -8 18t-18 8h-10q-10 0 -18 -7.5t-8 -18.5v-10q0 -10 8 -18t18 -8z" />
<glyph horiz-adv-x="466" d="M325 288h87v-159q0 -32 9.5 -45t37.5 -13h12v-72h-46q-50 0 -75 26.5t-25 69.5v92h-140q-31 0 -51.5 -15t-20.5 -44q0 -66 70 -66h39q49 0 77 32v-15q0 -30 16 -53q-38 -31 -110 -31h-50q-52 0 -91.5 33.5t-39.5 94.5q0 59 35.5 96t95.5 37h170v32zM412 318h-87v29 q0 37 -22.5 64t-58.5 27h-28q-41 0 -64 -27.5t-23 -64.5v-23h-83v37q0 64 45.5 109.5t113.5 45.5h55q66 0 109 -43.5t43 -106.5v-47zM81 608l24 30q27 37 68 37q31 0 56 -17l29 -20q15 -11 27 -11q16 0 26 14l20 26l49 -39l-25 -33q-25 -35 -65 -35q-34 0 -55 15l-30 20 q-18 12 -28 12q-16 0 -24 -10l-22 -29z" />
<glyph horiz-adv-x="469" d="M208 541l-33 55l158 95l35 -57zM125 276h-87v68q0 71 48.5 121t118.5 50h63q70 0 118 -50t48 -121v-41h-86v30q0 44 -24 74.5t-66 30.5h-43q-42 0 -66 -30.5t-24 -74.5v-57zM38 246h87v-72q0 -44 25 -74.5t67 -30.5h41q42 0 66 30.5t24 74.5v30h86v-40q0 -71 -48 -121 t-118 -50h-63q-70 0 -118.5 50t-48.5 121v82z" />
<glyph horiz-adv-x="469" d="M236 544l-143 87l30 52l113 -68l112 68l31 -52zM125 276h-87v68q0 71 48.5 121t118.5 50h63q70 0 118 -50t48 -121v-41h-86v30q0 44 -24 74.5t-66 30.5h-43q-42 0 -66 -30.5t-24 -74.5v-57zM38 246h87v-72q0 -44 25 -74.5t67 -30.5h41q42 0 66 30.5t24 74.5v30h86v-40 q0 -71 -48 -121t-118 -50h-63q-70 0 -118.5 50t-48.5 121v82z" />
<glyph horiz-adv-x="469" d="M124 553l-31 52l143 87l143 -87l-31 -52l-112 69zM125 276h-87v68q0 71 48.5 121t118.5 50h63q70 0 118 -50t48 -121v-41h-86v30q0 44 -24 74.5t-66 30.5h-43q-42 0 -66 -30.5t-24 -74.5v-57zM38 246h87v-72q0 -44 25 -74.5t67 -30.5h41q42 0 66 30.5t24 74.5v30h86v-40 q0 -71 -48 -121t-118 -50h-63q-70 0 -118.5 50t-48.5 121v82z" />
<glyph horiz-adv-x="469" d="M125 276h-87v68q0 71 48.5 121t118.5 50h63q70 0 118 -50t48 -121v-41h-86v30q0 44 -24 74.5t-66 30.5h-43q-42 0 -66 -30.5t-24 -74.5v-57zM38 246h87v-72q0 -44 25 -74.5t67 -30.5h41q42 0 66 30.5t24 74.5v30h86v-40q0 -71 -48 -121t-118 -50h-63q-70 0 -118.5 50 t-48.5 121v82zM194 571v82h84v-82h-84z" />
<glyph horiz-adv-x="469" d="M38 246h87v-72q0 -44 25 -74.5t67 -30.5h41q42 0 66 30.5t24 74.5v30h86v-40q0 -71 -48 -121t-118 -50v-28q25 -4 42.5 -24t17.5 -47v-16q0 -34 -23 -56.5t-56 -22.5h-17q-33 0 -55.5 22.5t-22.5 56.5v17l55 -1v-14q0 -10 8 -18t19 -8h9q11 0 18.5 8t7.5 18v10 q0 10 -7 17.5t-17 8.5h-38v77h-4q-70 0 -118.5 50t-48.5 121v82zM125 276h-87v68q0 71 48.5 121t118.5 50h63q70 0 118 -50t48 -121v-41h-86v30q0 44 -24 74.5t-66 30.5h-43q-42 0 -66 -30.5t-24 -74.5v-57z" />
<glyph horiz-adv-x="496" d="M256 578v58h89v67h85v-67h52v-58h-52v-302h-87v94q-1 31 -25.5 49.5t-60.5 18.5h-42q-43 0 -66.5 -31t-23.5 -76v-55h-87v68q0 71 47 121t118 50h48q63 0 94 -34v97h-89zM343 246h87v-246h-84v44q-37 -51 -115 -51h-52q-61 0 -101 42t-40 101v110h87v-83q0 -40 20 -67 t58 -27h39q41 0 70 33t31 74v70z" />
<glyph horiz-adv-x="554" d="M430 276h-87v91q0 32 -24.5 51.5t-61.5 19.5h-42q-43 0 -66.5 -31t-23.5 -76v-55h-87v68q0 71 47 121t118 50h48q63 0 94 -34v222h85v-427zM343 246h87v-246h-84v44q-37 -51 -115 -51h-52q-61 0 -101 42t-40 101v110h87v-83q0 -40 20 -67t58 -27h39q42 0 71.5 34.5 t29.5 76.5v66zM562 699l-27 -171l-70 8l25 172z" />
<glyph horiz-adv-x="460" d="M151 268v66h193v8q0 43 -23.5 72t-65.5 29h-43q-43 0 -67 -29t-24 -72v-103h-83v107q0 70 50 119.5t121 49.5h52q70 0 118 -49t48 -120v-78h-276zM38 209h83v-40q0 -43 25.5 -74t68.5 -31h38q42 0 66 31t24 76v24h84v-29q0 -74 -47 -123.5t-117 -49.5h-59 q-71 0 -118.5 49t-47.5 122v45zM205 541l-33 55l158 95l35 -57z" />
<glyph horiz-adv-x="460" d="M151 268v66h193v8q0 43 -23.5 72t-65.5 29h-43q-43 0 -67 -29t-24 -72v-103h-83v107q0 70 50 119.5t121 49.5h52q70 0 118 -49t48 -120v-78h-276zM38 209h83v-40q0 -43 25.5 -74t68.5 -31h38q42 0 66 31t24 76v24h84v-29q0 -74 -47 -123.5t-117 -49.5h-59 q-71 0 -118.5 49t-47.5 122v45zM218 548q-43 0 -72.5 29.5t-29.5 72.5v24h60v-24q0 -18 13.5 -32t32.5 -14h21q19 0 32.5 14t13.5 32v24h61v-24q0 -43 -30 -72.5t-72 -29.5h-30z" />
<glyph horiz-adv-x="460" d="M151 268v66h193v8q0 43 -23.5 72t-65.5 29h-43q-43 0 -67 -29t-24 -72v-103h-83v107q0 70 50 119.5t121 49.5h52q70 0 118 -49t48 -120v-78h-276zM38 209h83v-40q0 -43 25.5 -74t68.5 -31h38q42 0 66 31t24 76v24h84v-29q0 -74 -47 -123.5t-117 -49.5h-59 q-71 0 -118.5 49t-47.5 122v45zM233 544l-143 87l30 52l113 -68l112 68l31 -52z" />
<glyph horiz-adv-x="460" d="M151 268v66h193v8q0 43 -23.5 72t-65.5 29h-43q-43 0 -67 -29t-24 -72v-103h-83v107q0 70 50 119.5t121 49.5h52q70 0 118 -49t48 -120v-78h-276zM38 209h83v-40q0 -43 25.5 -74t68.5 -31h38q42 0 66 31t24 76v24h84v-29q0 -74 -47 -123.5t-117 -49.5h-59 q-71 0 -118.5 49t-47.5 122v45zM121 553l-31 52l143 87l143 -87l-31 -52l-112 69z" />
<glyph horiz-adv-x="460" d="M151 268v66h193v8q0 43 -23.5 72t-65.5 29h-43q-43 0 -67 -29t-24 -72v-103h-83v107q0 70 50 119.5t121 49.5h52q70 0 118 -49t48 -120v-78h-276zM38 209h83v-40q0 -43 25.5 -74t68.5 -31h38q42 0 66 31t24 76v24h84v-29q0 -74 -47 -123.5t-117 -49.5h-59 q-71 0 -118.5 49t-47.5 122v45zM125 571v82h71v-82h-71zM273 571v82h70v-82h-70z" />
<glyph horiz-adv-x="460" d="M151 268v66h193v8q0 43 -23.5 72t-65.5 29h-43q-43 0 -67 -29t-24 -72v-103h-83v107q0 70 50 119.5t121 49.5h52q70 0 118 -49t48 -120v-78h-276zM38 209h83v-40q0 -43 25.5 -74t68.5 -31h38q42 0 66 31t24 76v24h84v-29q0 -74 -47 -123.5t-117 -49.5h-59 q-71 0 -118.5 49t-47.5 122v45zM191 571v82h84v-82h-84z" />
<glyph horiz-adv-x="460" d="M151 268v66h193v8q0 43 -23.5 72t-65.5 29h-43q-43 0 -67 -29t-24 -72v-103h-83v107q0 70 50 119.5t121 49.5h52q70 0 118 -49t48 -120v-78h-276zM38 209h83v-40q0 -43 25.5 -74t68.5 -31h38q42 0 66 31t24 76v24h84v-29q0 -74 -47 -123.5t-117 -49.5h-59 q-71 0 -118.5 49t-47.5 122v45zM288 542l-160 93l34 57l159 -95z" />
<glyph horiz-adv-x="460" d="M151 268v66h193v8q0 43 -23.5 72t-65.5 29h-43q-43 0 -67 -29t-24 -72v-103h-83v107q0 70 50 119.5t121 49.5h52q70 0 118 -49t48 -120v-78h-276zM38 209h83v-40q0 -43 25.5 -74t68.5 -31h38q42 0 66 31t24 76v24h84v-29q0 -74 -47 -123.5t-117 -49.5h-59 q-71 0 -118.5 49t-47.5 122v45zM105 578v68h255v-68h-255z" />
<glyph horiz-adv-x="460" d="M151 268v66h193v8q0 43 -23.5 72t-65.5 29h-43q-43 0 -67 -29t-24 -72v-103h-83v107q0 70 50 119.5t121 49.5h52q70 0 118 -49t48 -120v-78h-276zM38 209h83v-40q0 -43 25.5 -74t68.5 -31h38q42 0 66 31t24 76v24h84v-29q0 -74 -47 -123.5t-117 -49.5h-59 q-71 0 -118.5 49t-47.5 122v45zM83 608l24 30q27 37 68 37q31 0 56 -17l29 -20q15 -11 27 -11q16 0 26 14l20 26l49 -39l-25 -33q-25 -35 -65 -35q-34 0 -55 15l-30 20q-18 12 -28 12q-16 0 -24 -10l-22 -29z" />
<glyph horiz-adv-x="460" d="M151 268v66h193v8q0 43 -23.5 72t-65.5 29h-43q-43 0 -67 -29t-24 -72v-103h-83v107q0 70 50 119.5t121 49.5h52q70 0 118 -49t48 -120v-78h-276zM38 209h83v-40q0 -43 25.5 -74t68.5 -31h38q42 0 66 31t24 76v24h84v-29q0 -62 -33.5 -107.5t-88.5 -59.5v-86h-30 q-10 -1 -16.5 -8.5t-6.5 -17.5v-7q0 -10 8 -18t18 -8h27v-55h-40q-31 0 -53.5 23t-22.5 55v12q0 29 16.5 49.5t43.5 25.5v29h-45q-71 0 -118.5 49t-47.5 122v45z" />
<glyph horiz-adv-x="473" d="M455 -41h-86q-15 43 -66 43h-106q-72 0 -105.5 35.5t-33.5 80.5v17q0 46 19 73q-40 43 -40 106v12h84v-5q0 -38 22 -63.5t59 -25.5h42q38 0 59.5 25t21.5 64v5h85v-11q0 -65 -42 -109t-107 -44h-76q-26 0 -47 7q-4 -15 -4 -31v-7q0 -53 56 -53h129q55 0 94.5 -32.5 t41.5 -81.5v-5zM56 39q22 -33 67 -46q-25 -18 -25 -52v-10q0 -25 19 -43.5t55 -18.5h107q90 0 92 65h86q-3 -139 -171 -139h-126q-70 0 -108.5 37.5t-38.5 82.5v32q0 60 43 92zM412 434q-6 0 -18 -2q16 -32 16 -65v-11h-85v5q0 33 -21.5 58.5t-59.5 25.5h-42q-37 0 -59 -25 t-22 -59v-5h-84v11q0 60 42.5 104t107.5 44h77q43 0 78 -24q27 16 58 16h63v-73h-51zM215 548q-43 0 -72.5 29.5t-29.5 72.5v24h60v-24q0 -18 13.5 -32t32.5 -14h21q19 0 32.5 14t13.5 32v24h61v-24q0 -43 -30 -72.5t-72 -29.5h-30z" />
<glyph horiz-adv-x="473" d="M455 -41h-86q-15 43 -66 43h-106q-72 0 -105.5 35.5t-33.5 80.5v17q0 46 19 73q-40 43 -40 106v12h84v-5q0 -38 22 -63.5t59 -25.5h42q38 0 59.5 25t21.5 64v5h85v-11q0 -65 -42 -109t-107 -44h-76q-26 0 -47 7q-4 -15 -4 -31v-7q0 -53 56 -53h129q55 0 94.5 -32.5 t41.5 -81.5v-5zM56 39q22 -33 67 -46q-25 -18 -25 -52v-10q0 -25 19 -43.5t55 -18.5h107q90 0 92 65h86q-3 -139 -171 -139h-126q-70 0 -108.5 37.5t-38.5 82.5v32q0 60 43 92zM412 434q-6 0 -18 -2q16 -32 16 -65v-11h-85v5q0 33 -21.5 58.5t-59.5 25.5h-42q-37 0 -59 -25 t-22 -59v-5h-84v11q0 60 42.5 104t107.5 44h77q43 0 78 -24q27 16 58 16h63v-73h-51zM118 553l-31 52l143 87l143 -87l-31 -52l-112 69z" />
<glyph horiz-adv-x="473" d="M455 -41h-86q-15 43 -66 43h-106q-72 0 -105.5 35.5t-33.5 80.5v17q0 46 19 73q-40 43 -40 106v12h84v-5q0 -38 22 -63.5t59 -25.5h42q38 0 59.5 25t21.5 64v5h85v-11q0 -65 -42 -109t-107 -44h-76q-26 0 -47 7q-4 -15 -4 -31v-7q0 -53 56 -53h129q55 0 94.5 -32.5 t41.5 -81.5v-5zM56 39q22 -33 67 -46q-25 -18 -25 -52v-10q0 -25 19 -43.5t55 -18.5h107q90 0 92 65h86q-3 -139 -171 -139h-126q-70 0 -108.5 37.5t-38.5 82.5v32q0 60 43 92zM412 434q-6 0 -18 -2q16 -32 16 -65v-11h-85v5q0 33 -21.5 58.5t-59.5 25.5h-42q-37 0 -59 -25 t-22 -59v-5h-84v11q0 60 42.5 104t107.5 44h77q43 0 78 -24q27 16 58 16h63v-73h-51zM263 544l-70 17l41 150l69 -17z" />
<glyph horiz-adv-x="473" d="M455 -41h-86q-15 43 -66 43h-106q-72 0 -105.5 35.5t-33.5 80.5v17q0 46 19 73q-40 43 -40 106v12h84v-5q0 -38 22 -63.5t59 -25.5h42q38 0 59.5 25t21.5 64v5h85v-11q0 -65 -42 -109t-107 -44h-76q-26 0 -47 7q-4 -15 -4 -31v-7q0 -53 56 -53h129q55 0 94.5 -32.5 t41.5 -81.5v-5zM56 39q22 -33 67 -46q-25 -18 -25 -52v-10q0 -25 19 -43.5t55 -18.5h107q90 0 92 65h86q-3 -139 -171 -139h-126q-70 0 -108.5 37.5t-38.5 82.5v32q0 60 43 92zM412 434q-6 0 -18 -2q16 -32 16 -65v-11h-85v5q0 33 -21.5 58.5t-59.5 25.5h-42q-37 0 -59 -25 t-22 -59v-5h-84v11q0 60 42.5 104t107.5 44h77q43 0 78 -24q27 16 58 16h63v-73h-51zM188 571v82h84v-82h-84z" />
<glyph horiz-adv-x="490" d="M440 276h-89v73q0 37 -18 62t-52 25h-34q-35 0 -65 -25.5t-40 -65.5h-88v358h88v-252q17 33 52 48.5t70 15.5h38q58 0 98 -39.5t40 -101.5v-98zM54 315h88v-315h-88v315zM351 246h89v-246h-89v246zM-13 730l-31 52l143 87l143 -87l-31 -52l-112 68z" />
<glyph horiz-adv-x="501" d="M15 578v58h50v67h88v-67h88v-58h-88v-127q17 33 52 48.5t70 15.5h38q58 0 98 -39.5t40 -101.5v-98h-89v73q0 37 -18 62t-52 25h-34q-35 0 -65 -25.5t-40 -65.5h-88v233h-50zM65 315h88v-315h-88v315zM362 246h89v-246h-89v246z" />
<glyph d="M62 541l-33 55l158 95l35 -57zM142 276h-88v232h88v-232zM54 246h88v-246h-88v246z" />
<glyph d="M54 246h88v-246h-88v246zM142 276h-88v232h88v-232zM-18 650v24h60v-24q0 -18 13.5 -32t32.5 -14h21q19 0 32.5 14t13.5 32v24h61v-24q0 -43 -30 -72.5t-72 -29.5h-30q-43 0 -72.5 29.5t-29.5 72.5z" />
<glyph d="M-13 553l-31 52l143 87l143 -87l-31 -52l-112 69zM142 276h-88v232h88v-232zM54 246h88v-246h-88v246z" />
<glyph d="M139 571v82h70v-82h-70zM-9 571v82h71v-82h-71zM142 276h-88v232h88v-232zM54 246h88v-246h-88v246z" />
<glyph d="M142 276h-88v232h88v-232zM54 246h88v-246h-88v246zM154 542l-160 93l34 57l159 -95z" />
<glyph d="M142 276h-88v232h88v-232zM54 246h88v-246h-88v246zM-29 578v68h255v-68h-255z" />
<glyph d="M26 -111q0 29 16.5 49.5t43.5 25.5v36h-32v246h88v-333h-30q-10 -1 -16.5 -8.5t-6.5 -17.5v-7q0 -10 7.5 -18t18.5 -8h27v-55h-40q-31 0 -53.5 23t-22.5 55v12zM142 276h-88v232h88v-232zM54 569v84h88v-84h-88z" />
<glyph d="M142 276h-88v232h88v-232zM54 246h88v-246h-88v246zM-51 608l24 30q27 37 68 37q30 0 56 -17l29 -20q15 -11 27 -11q16 0 26 14l20 26l49 -39l-25 -33q-25 -35 -65 -35q-34 0 -55 15l-30 20q-18 12 -28 12q-16 0 -24 -10l-22 -29z" />
<glyph horiz-adv-x="200" d="M145 276h-88v232h88v-232zM57 246h88v-304q0 -58 -38.5 -98t-95.5 -40h-72v75h49q35 0 52 24t17 59v284zM-10 553l-31 52l143 87l143 -87l-31 -52l-112 69z" />
<glyph horiz-adv-x="434" d="M54 293h167l109 215h93l-126 -250l22 -40h-177v-218h-88v293zM142 323h-88v380h88v-380zM239 188h96l104 -188h-95zM204 -28l70 -17l-41 -150l-69 17z" />
<glyph d="M71 716l-33 55l158 95l35 -57zM142 369h-88v334h88v-334zM54 339h88v-339h-88v339z" />
<glyph horiz-adv-x="266" d="M273 699l-27 -171l-70 8l25 172zM142 369h-88v334h88v-334zM54 339h88v-339h-88v339z" />
<glyph d="M75 -28l70 -17l-41 -150l-69 17zM142 369h-88v334h88v-334zM54 339h88v-339h-88v339z" />
<glyph horiz-adv-x="284" d="M142 369h-88v334h88v-334zM54 339h88v-339h-88v339zM204 208v97h83v-97h-83z" />
<glyph horiz-adv-x="217" d="M21 280l-21 55l195 77l22 -53l-68 -28v-331h-88v296zM149 423l-88 -35v315h88v-280z" />
<glyph horiz-adv-x="490" d="M142 276h-88v232h87v-58q17 34 52 49.5t71 15.5h38q58 0 98 -39.5t40 -101.5v-98h-89v73q0 37 -18 62t-52 25h-34q-37 0 -69 -30t-36 -81v-49zM351 246h89v-246h-89v246zM54 246h88v-246h-88v246zM219 541l-33 55l158 95l35 -57z" />
<glyph horiz-adv-x="490" d="M142 276h-88v232h87v-58q17 34 52 49.5t71 15.5h38q58 0 98 -39.5t40 -101.5v-98h-89v73q0 37 -18 62t-52 25h-34q-37 0 -69 -30t-36 -81v-49zM351 246h89v-246h-89v246zM54 246h88v-246h-88v246zM247 544l-143 87l30 52l113 -68l112 68l31 -52z" />
<glyph horiz-adv-x="490" d="M142 276h-88v232h87v-58q17 34 52 49.5t71 15.5h38q58 0 98 -39.5t40 -101.5v-98h-89v73q0 37 -18 62t-52 25h-34q-37 0 -69 -30t-36 -81v-49zM351 246h89v-246h-89v246zM54 246h88v-246h-88v246zM223 -28l70 -17l-41 -150l-69 17z" />
<glyph horiz-adv-x="490" d="M142 276h-88v232h87v-58q17 34 52 49.5t71 15.5h38q58 0 98 -39.5t40 -101.5v-98h-89v73q0 37 -18 62t-52 25h-34q-37 0 -69 -30t-36 -81v-49zM351 246h89v-246h-89v246zM54 246h88v-246h-88v246zM97 608l24 30q27 37 68 37q30 0 56 -17l29 -20q15 -11 27 -11q16 0 26 14 l20 26l49 -39l-25 -33q-25 -35 -65 -35q-34 0 -55 15l-30 20q-18 12 -28 12q-16 0 -24 -10l-22 -29z" />
<glyph horiz-adv-x="595" d="M247 276h-88v232h87v-58q17 34 52 49.5t71 15.5h38q58 0 98 -39.5t40 -101.5v-98h-89v73q0 37 -18 62t-52 25h-34q-37 0 -69 -30t-36 -81v-49zM456 246h89v-246h-89v246zM159 246h88v-246h-88v246zM109 538h-74v232h74v-232z" />
<glyph horiz-adv-x="490" d="M142 276h-88v232h87v-58q17 34 52 49.5t71 15.5h38q58 0 98 -39.5t40 -101.5v-98h-89v73q0 37 -18 62t-52 25h-34q-37 0 -69 -30t-36 -81v-49zM351 246h89v-246h-89v246zM54 246h88v-246h-88v246zM205 -118v82h84v-82h-84z" />
<glyph horiz-adv-x="490" d="M142 276h-88v232h87v-58q17 34 52 49.5t71 15.5h38q58 0 98 -39.5t40 -101.5v-98h-89v73q0 37 -18 62t-52 25h-34q-37 0 -69 -30t-36 -81v-49zM351 246h89v-304q0 -58 -38.5 -98t-95.5 -40h-72v75h49q34 0 51 23.5t17 59.5v284zM54 246h88v-246h-88v246z" />
<glyph horiz-adv-x="477" d="M209 541l-33 55l158 95l35 -57zM439 276h-87v57q0 44 -25 74.5t-67 30.5h-43q-42 0 -67 -30.5t-25 -74.5v-57h-87v68q0 71 48.5 121t118.5 50h67q70 0 118.5 -50t48.5 -121v-68zM352 246h87v-82q0 -71 -48.5 -121t-118.5 -50h-67q-70 0 -118.5 50t-48.5 121v82h87v-72 q0 -44 25 -74.5t67 -30.5h43q42 0 67 30.5t25 74.5v72z" />
<glyph horiz-adv-x="477" d="M352 246h87v-82q0 -71 -48.5 -121t-118.5 -50h-67q-70 0 -118.5 50t-48.5 121v82h87v-72q0 -44 25 -74.5t67 -30.5h43q42 0 67 30.5t25 74.5v72zM439 276h-87v57q0 44 -25 74.5t-67 30.5h-43q-42 0 -67 -30.5t-25 -74.5v-57h-87v68q0 71 48.5 121t118.5 50h67 q70 0 118.5 -50t48.5 -121v-68zM222 548q-43 0 -72.5 29.5t-29.5 72.5v24h60v-24q0 -18 13.5 -32t32.5 -14h21q19 0 32.5 14t13.5 32v24h61v-24q0 -43 -30 -72.5t-72 -29.5h-30z" />
<glyph horiz-adv-x="477" d="M125 553l-31 52l143 87l143 -87l-31 -52l-112 69zM439 276h-87v57q0 44 -25 74.5t-67 30.5h-43q-42 0 -67 -30.5t-25 -74.5v-57h-87v68q0 71 48.5 121t118.5 50h67q70 0 118.5 -50t48.5 -121v-68zM352 246h87v-82q0 -71 -48.5 -121t-118.5 -50h-67q-70 0 -118.5 50 t-48.5 121v82h87v-72q0 -44 25 -74.5t67 -30.5h43q42 0 67 30.5t25 74.5v72z" />
<glyph horiz-adv-x="477" d="M277 571v82h70v-82h-70zM129 571v82h71v-82h-71zM439 276h-87v57q0 44 -25 74.5t-67 30.5h-43q-42 0 -67 -30.5t-25 -74.5v-57h-87v68q0 71 48.5 121t118.5 50h67q70 0 118.5 -50t48.5 -121v-68zM352 246h87v-82q0 -71 -48.5 -121t-118.5 -50h-67q-70 0 -118.5 50 t-48.5 121v82h87v-72q0 -44 25 -74.5t67 -30.5h43q42 0 67 30.5t25 74.5v72z" />
<glyph horiz-adv-x="477" d="M439 276h-87v57q0 44 -25 74.5t-67 30.5h-43q-42 0 -67 -30.5t-25 -74.5v-57h-87v68q0 71 48.5 121t118.5 50h67q70 0 118.5 -50t48.5 -121v-68zM352 246h87v-82q0 -71 -48.5 -121t-118.5 -50h-67q-70 0 -118.5 50t-48.5 121v82h87v-72q0 -44 25 -74.5t67 -30.5h43 q42 0 67 30.5t25 74.5v72zM292 542l-160 93l34 57l159 -95z" />
<glyph horiz-adv-x="477" d="M311 543l-54 29l66 111l54 -30zM179 547l-53 29l66 110l54 -29zM439 276h-87v57q0 44 -25 74.5t-67 30.5h-43q-42 0 -67 -30.5t-25 -74.5v-57h-87v68q0 71 48.5 121t118.5 50h67q70 0 118.5 -50t48.5 -121v-68zM352 246h87v-82q0 -71 -48.5 -121t-118.5 -50h-67 q-70 0 -118.5 50t-48.5 121v82h87v-72q0 -44 25 -74.5t67 -30.5h43q42 0 67 30.5t25 74.5v72z" />
<glyph horiz-adv-x="477" d="M109 578v68h255v-68h-255zM439 276h-87v57q0 44 -25 74.5t-67 30.5h-43q-42 0 -67 -30.5t-25 -74.5v-57h-87v68q0 71 48.5 121t118.5 50h67q70 0 118.5 -50t48.5 -121v-68zM352 246h87v-82q0 -71 -48.5 -121t-118.5 -50h-67q-70 0 -118.5 50t-48.5 121v82h87v-72 q0 -44 25 -74.5t67 -30.5h43q42 0 67 30.5t25 74.5v72z" />
</font>
</defs>
</svg>
